<svg width="73" height="84" viewBox="0 0 73 84" fill="none" xmlns="http://www.w3.org/2000/svg">
<g clip-path="url(#clip0_8_352)">
<path d="M53.002 36.7168H32.7914L31.7544 30.4099C32.5504 30.4847 33.2292 31.0872 33.3648 31.9121C33.4763 32.5899 34.4461 32.3418 34.3474 31.75C33.9497 29.3323 37.5332 28.9055 37.9048 31.1657C38.0025 31.7597 38.999 31.6845 38.8875 31.0041C38.5222 28.7823 41.8957 28.1152 42.4179 30.2879C42.4582 31.0878 43.5711 30.8784 43.3968 30.0991C42.8444 26.9924 41.1328 24.2744 38.5641 22.4311C35.9713 20.5706 32.8134 19.8234 29.6643 20.3222C29.6614 20.3226 29.6585 20.3231 29.6568 20.3234L29.6411 20.3258C29.6406 20.3258 29.6401 20.326 29.6396 20.326C29.6284 20.3278 29.6172 20.3293 29.606 20.3311C29.6054 20.3312 29.6048 20.3313 29.6042 20.3314C29.6009 20.3319 29.5971 20.3325 29.5941 20.3329C29.594 20.3329 29.5939 20.3329 29.5938 20.333C29.5935 20.3331 29.5933 20.3331 29.5931 20.3331C23.0434 21.4099 18.591 27.6145 19.6679 34.1641C19.7727 34.8016 20.8369 34.6539 20.7276 33.9898C20.568 33.0194 21.2433 32.0783 22.2138 31.9188C23.1604 31.763 24.1308 32.4673 24.2849 33.405C24.3878 34.0309 25.379 33.921 25.2676 33.2434C24.9068 31.0487 28.198 30.3158 28.7853 32.4767C28.9793 33.1913 29.8922 33.2629 29.795 32.4064C29.7148 31.7015 30.156 30.9068 30.7756 30.5943L31.7822 36.7167H20.0046C19.7296 36.7167 19.5067 36.9397 19.5067 37.2147C19.5067 37.4897 19.7296 37.7126 20.0046 37.7126H31.9459L32.4611 40.8461C31.4612 40.1556 30.4138 39.5292 29.2645 39.1388C27.6057 38.5753 25.7176 38.5717 23.948 39.1286C22.1782 39.6854 20.6328 40.7694 19.5966 42.1809C19.4338 42.4026 19.4816 42.7142 19.7033 42.877C19.925 43.0397 20.2366 42.9919 20.3993 42.7703C21.3111 41.5283 22.6776 40.5723 24.2468 40.0786C25.816 39.5848 27.4843 39.5859 28.9441 40.0818C30.4906 40.6072 31.8998 41.647 33.2626 42.6527C35.1834 44.0701 37.1697 45.5359 39.6277 45.6571C39.7367 45.6624 39.8451 45.665 39.9531 45.665C41.3182 45.665 42.605 45.253 43.7159 44.8601C43.9752 44.7684 44.111 44.484 44.0193 44.2247C43.9276 43.9654 43.6431 43.8294 43.3839 43.9213C42.2746 44.3136 40.9822 44.7266 39.6768 44.6624C37.519 44.556 35.7388 43.2422 33.8539 41.8513C33.7677 41.7877 33.6812 41.7239 33.5945 41.6601C33.5955 41.6285 33.5936 41.5963 33.5883 41.5639L32.9551 37.7126H53.002C53.277 37.7126 53.5 37.4897 53.5 37.2147C53.5 36.9397 53.277 36.7168 53.002 36.7168ZM32.9574 29.767C31.8324 29.1326 30.3807 29.3604 29.5067 30.3288C29.2367 28.1701 29.1166 26.1561 29.1651 24.5217C29.2371 22.093 29.6627 21.3721 29.8059 21.3084C29.8061 21.3084 29.8061 21.3084 29.8063 21.3083C29.9675 21.3241 30.6015 21.8733 31.4468 24.1507C32.0178 25.6892 32.5502 27.6433 32.9863 29.7828C32.9767 29.7773 32.967 29.7723 32.9574 29.767ZM33.9787 29.667C33.5149 27.3729 32.9421 25.284 32.3248 23.656C31.9556 22.6823 31.5849 21.9124 31.2218 21.3644C32.362 21.619 33.5081 22.3693 34.5531 23.5662C35.7705 24.9604 36.7405 26.8296 37.3608 28.9468C36.8413 28.69 36.2418 28.6029 35.672 28.6966C34.9828 28.81 34.3942 29.1682 33.9787 29.667ZM41.8234 28.1645C40.642 27.6257 39.2018 27.9945 38.4224 29.0432C37.4781 25.5586 35.6743 22.7874 33.566 21.3503C35.1402 21.642 36.6441 22.2791 37.9835 23.2402C39.7368 24.4985 41.0549 26.2012 41.8234 28.1645ZM22.5078 30.8987C21.7941 30.8987 21.011 31.2252 20.5135 31.7317C20.6792 27.8897 22.8557 24.4247 26.1537 22.575C25.6101 23.2943 25.1498 24.1659 24.7958 25.1687C24.5814 25.7758 25.5205 26.1074 25.7349 25.5003C26.3593 23.7317 27.3305 22.4352 28.4934 21.7707C28.3196 22.4049 28.2149 23.2518 28.1752 24.3269C28.1105 26.0736 28.2374 28.2474 28.535 30.5819C27.4052 29.8697 25.907 30.0637 24.9977 31.045C24.9481 29.9355 25.0036 28.8542 25.1642 27.814C25.2624 27.1777 24.2783 27.0256 24.18 27.662C23.997 28.8467 23.9427 30.0797 24.0162 31.3435C23.5751 31.0604 23.0545 30.8987 22.5078 30.8987Z" fill="#616161"/>
<path d="M47.9813 23.7797C49.5018 23.7797 50.7389 22.5427 50.7389 21.022C50.7389 19.5014 49.5019 18.2644 47.9813 18.2644C46.4607 18.2644 45.2236 19.5014 45.2236 21.022C45.2236 22.5427 46.4607 23.7797 47.9813 23.7797ZM47.9813 19.2604C48.9527 19.2604 49.743 20.0506 49.743 21.0221C49.743 21.9936 48.9527 22.7839 47.9813 22.7839C47.0098 22.7839 46.2195 21.9936 46.2195 21.0221C46.2195 20.0506 47.0099 19.2604 47.9813 19.2604Z" fill="#616161"/>
<path d="M47.9812 17.6783C48.2562 17.6783 48.4792 17.4554 48.4792 17.1804V16.0014C48.4792 15.7264 48.2562 15.5034 47.9812 15.5034C47.7062 15.5034 47.4833 15.7264 47.4833 16.0014V17.1804C47.4833 17.4554 47.7062 17.6783 47.9812 17.6783Z" fill="#616161"/>
<path d="M47.4833 24.8639V26.0429C47.4833 26.3179 47.7062 26.5409 47.9812 26.5409C48.2562 26.5409 48.4792 26.3179 48.4792 26.0429V24.8639C48.4792 24.5889 48.2562 24.366 47.9812 24.366C47.7062 24.366 47.4833 24.5889 47.4833 24.8639Z" fill="#616161"/>
<path d="M50.6978 18.8035C50.8252 18.8035 50.9526 18.7549 51.0498 18.6576L51.8835 17.8239C52.078 17.6294 52.078 17.3141 51.8835 17.1197C51.6891 16.9253 51.3738 16.9253 51.1794 17.1197L50.3457 17.9534C50.1512 18.1479 50.1512 18.4632 50.3457 18.6576C50.4429 18.7549 50.5704 18.8035 50.6978 18.8035Z" fill="#616161"/>
<path d="M44.9127 23.3866L44.079 24.2203C43.8845 24.4147 43.8845 24.73 44.079 24.9244C44.1762 25.0216 44.3036 25.0703 44.431 25.0703C44.5584 25.0703 44.6859 25.0217 44.7831 24.9244L45.6168 24.0907C45.8113 23.8963 45.8113 23.581 45.6168 23.3866C45.4224 23.1921 45.1071 23.1921 44.9127 23.3866Z" fill="#616161"/>
<path d="M51.3251 21.0221C51.3251 21.2971 51.548 21.5201 51.823 21.5201H53.002C53.277 21.5201 53.5 21.2971 53.5 21.0221C53.5 20.7471 53.277 20.5242 53.002 20.5242H51.823C51.548 20.5242 51.3251 20.7471 51.3251 21.0221Z" fill="#616161"/>
<path d="M42.9605 21.5201H44.1395C44.4145 21.5201 44.6374 21.2971 44.6374 21.0221C44.6374 20.7471 44.4145 20.5242 44.1395 20.5242H42.9605C42.6855 20.5242 42.4625 20.7471 42.4625 21.0221C42.4625 21.2971 42.6855 21.5201 42.9605 21.5201Z" fill="#616161"/>
<path d="M50.3457 23.3866C50.1512 23.581 50.1512 23.8963 50.3457 24.0907L51.1794 24.9244C51.2766 25.0217 51.4041 25.0703 51.5315 25.0703C51.6589 25.0703 51.7863 25.0217 51.8835 24.9244C52.078 24.73 52.078 24.4147 51.8835 24.2203L51.0498 23.3866C50.8554 23.1921 50.5401 23.1921 50.3457 23.3866Z" fill="#616161"/>
<path d="M44.9127 18.6576C45.0099 18.7549 45.1373 18.8035 45.2647 18.8035C45.3921 18.8035 45.5196 18.7549 45.6168 18.6576C45.8113 18.4632 45.8113 18.1479 45.6168 17.9535L44.7831 17.1198C44.5887 16.9252 44.2734 16.9253 44.079 17.1198C43.8845 17.3142 43.8845 17.6295 44.079 17.8239L44.9127 18.6576Z" fill="#616161"/>
<path d="M21.7812 43.7632C21.1404 43.7632 21.1393 44.7591 21.7812 44.7591C22.422 44.7591 22.4231 43.7632 21.7812 43.7632Z" fill="#616161"/>
<path d="M28.6567 46.5427C28.0159 46.5427 28.0148 47.5386 28.6567 47.5386C29.2975 47.5386 29.2986 46.5427 28.6567 46.5427Z" fill="#616161"/>
<path d="M30.3891 42.7761C29.7483 42.7761 29.7472 43.772 30.3891 43.772C31.0299 43.772 31.031 42.7761 30.3891 42.7761Z" fill="#616161"/>
<path d="M43.5859 48.501C42.945 48.501 42.944 49.4969 43.5859 49.4969C44.2267 49.4969 44.2278 48.501 43.5859 48.501Z" fill="#616161"/>
<path d="M49.4913 45.7317C48.8504 45.7317 48.8494 46.7276 49.4913 46.7276C50.1321 46.7276 50.1332 45.7317 49.4913 45.7317Z" fill="#616161"/>
<path d="M38.8159 41.1467C38.5409 41.1467 38.318 41.3697 38.318 41.6447C38.318 41.9197 38.5409 42.1426 38.8159 42.1426H42.648C42.923 42.1426 43.1459 41.9197 43.1459 41.6447C43.1459 41.3697 42.923 41.1467 42.648 41.1467H38.8159Z" fill="#616161"/>
<path d="M50.7389 39.6085C50.7389 39.3335 50.516 39.1106 50.241 39.1106H41.6764C41.4014 39.1106 41.1785 39.3335 41.1785 39.6085C41.1785 39.8835 41.4014 40.1065 41.6764 40.1065H50.241C50.516 40.1065 50.7389 39.8836 50.7389 39.6085Z" fill="#616161"/>
<path d="M53.3117 44.2801C51.4122 42.686 49.1839 42.2305 46.4991 42.8875C46.232 42.9529 46.0684 43.2224 46.1338 43.4896C46.1992 43.7567 46.4688 43.9203 46.7358 43.8549C49.0907 43.2785 51.0322 43.6672 52.6715 45.043C52.7648 45.1212 52.8784 45.1595 52.9913 45.1595C53.1334 45.1595 53.2746 45.099 53.373 44.9816C53.5498 44.771 53.5224 44.4569 53.3117 44.2801Z" fill="#616161"/>
</g>
<path d="M4.668 58.1C5.372 58.1 5.912 58.284 6.288 58.652C6.672 59.012 6.864 59.524 6.864 60.188C6.864 60.54 6.784 60.864 6.624 61.16C6.464 61.456 6.228 61.692 5.916 61.868C5.612 62.044 5.236 62.14 4.788 62.156L4.764 61.82C5.044 61.82 5.332 61.86 5.628 61.94C5.924 62.02 6.196 62.148 6.444 62.324C6.7 62.5 6.904 62.732 7.056 63.02C7.216 63.308 7.296 63.664 7.296 64.088C7.296 64.544 7.22 64.928 7.068 65.24C6.916 65.544 6.712 65.792 6.456 65.984C6.208 66.168 5.928 66.3 5.616 66.38C5.312 66.46 5.004 66.5 4.692 66.5H1.536C1.4 66.5 1.284 66.452 1.188 66.356C1.1 66.26 1.056 66.144 1.056 66.008V58.58C1.056 58.444 1.1 58.332 1.188 58.244C1.284 58.148 1.4 58.1 1.536 58.1H4.668ZM4.524 59.048H1.944L2.088 58.832V61.82L1.956 61.664H4.548C4.9 61.664 5.2 61.552 5.448 61.328C5.704 61.096 5.832 60.756 5.832 60.308C5.832 59.908 5.716 59.6 5.484 59.384C5.252 59.16 4.932 59.048 4.524 59.048ZM4.62 62.624H2.004L2.088 62.54V65.672L1.992 65.564H4.656C5.128 65.564 5.512 65.444 5.808 65.204C6.112 64.964 6.264 64.592 6.264 64.088C6.264 63.696 6.184 63.396 6.024 63.188C5.864 62.972 5.656 62.824 5.4 62.744C5.152 62.664 4.892 62.624 4.62 62.624ZM11.5841 66.62C10.9441 66.62 10.3841 66.484 9.90413 66.212C9.42413 65.94 9.04813 65.568 8.77613 65.096C8.51213 64.616 8.38013 64.064 8.38013 63.44C8.38013 62.744 8.51613 62.152 8.78813 61.664C9.06813 61.168 9.42813 60.792 9.86813 60.536C10.3161 60.272 10.7881 60.14 11.2841 60.14C11.6521 60.14 12.0081 60.208 12.3521 60.344C12.6961 60.48 13.0001 60.68 13.2641 60.944C13.5281 61.2 13.7401 61.512 13.9001 61.88C14.0601 62.24 14.1441 62.644 14.1521 63.092C14.1521 63.22 14.1041 63.328 14.0081 63.416C13.9121 63.504 13.8001 63.548 13.6721 63.548H8.93213L8.71613 62.72H13.3361L13.1441 62.888V62.624C13.1121 62.296 13.0001 62.016 12.8081 61.784C12.6241 61.544 12.3961 61.36 12.1241 61.232C11.8601 61.104 11.5801 61.04 11.2841 61.04C11.0441 61.04 10.8041 61.084 10.5641 61.172C10.3321 61.252 10.1201 61.388 9.92813 61.58C9.74413 61.764 9.59213 62.004 9.47213 62.3C9.36013 62.596 9.30413 62.952 9.30413 63.368C9.30413 63.832 9.39613 64.24 9.58013 64.592C9.77213 64.944 10.0361 65.224 10.3721 65.432C10.7081 65.632 11.1001 65.732 11.5481 65.732C11.8281 65.732 12.0721 65.696 12.2801 65.624C12.4881 65.552 12.6681 65.464 12.8201 65.36C12.9721 65.248 13.1001 65.136 13.2041 65.024C13.3081 64.952 13.4081 64.916 13.5041 64.916C13.6241 64.916 13.7201 64.956 13.7921 65.036C13.8721 65.116 13.9121 65.212 13.9121 65.324C13.9121 65.46 13.8481 65.58 13.7201 65.684C13.4961 65.932 13.1921 66.152 12.8081 66.344C12.4241 66.528 12.0161 66.62 11.5841 66.62ZM20.7539 60.236C20.8899 60.236 21.0019 60.284 21.0899 60.38C21.1859 60.468 21.2339 60.58 21.2339 60.716V66.008C21.2339 66.144 21.1859 66.26 21.0899 66.356C21.0019 66.452 20.8899 66.5 20.7539 66.5C20.6099 66.5 20.4939 66.452 20.4059 66.356C20.3179 66.26 20.2739 66.144 20.2739 66.008V64.868L20.5019 64.844C20.5019 65.02 20.4419 65.212 20.3219 65.42C20.2019 65.628 20.0379 65.824 19.8299 66.008C19.6219 66.184 19.3739 66.332 19.0859 66.452C18.8059 66.564 18.5019 66.62 18.1739 66.62C17.6299 66.62 17.1419 66.48 16.7099 66.2C16.2779 65.912 15.9339 65.524 15.6779 65.036C15.4299 64.548 15.3059 63.992 15.3059 63.368C15.3059 62.736 15.4299 62.18 15.6779 61.7C15.9339 61.212 16.2779 60.832 16.7099 60.56C17.1419 60.28 17.6219 60.14 18.1499 60.14C18.4939 60.14 18.8139 60.196 19.1099 60.308C19.4059 60.42 19.6619 60.572 19.8779 60.764C20.1019 60.956 20.2739 61.168 20.3939 61.4C20.5219 61.632 20.5859 61.864 20.5859 62.096L20.2739 62.024V60.716C20.2739 60.58 20.3179 60.468 20.4059 60.38C20.4939 60.284 20.6099 60.236 20.7539 60.236ZM18.2819 65.732C18.6819 65.732 19.0339 65.628 19.3379 65.42C19.6499 65.212 19.8899 64.932 20.0579 64.58C20.2339 64.22 20.3219 63.816 20.3219 63.368C20.3219 62.928 20.2339 62.532 20.0579 62.18C19.8899 61.82 19.6499 61.54 19.3379 61.34C19.0339 61.132 18.6819 61.028 18.2819 61.028C17.8899 61.028 17.5379 61.128 17.2259 61.328C16.9219 61.528 16.6819 61.804 16.5059 62.156C16.3299 62.508 16.2419 62.912 16.2419 63.368C16.2419 63.816 16.3259 64.22 16.4939 64.58C16.6699 64.932 16.9099 65.212 17.2139 65.42C17.5259 65.628 17.8819 65.732 18.2819 65.732ZM25.773 60.14C26.181 60.14 26.549 60.184 26.877 60.272C27.205 60.36 27.465 60.48 27.657 60.632C27.849 60.784 27.945 60.956 27.945 61.148C27.945 61.252 27.909 61.352 27.837 61.448C27.765 61.544 27.669 61.592 27.549 61.592C27.437 61.592 27.345 61.572 27.273 61.532C27.209 61.492 27.145 61.44 27.081 61.376C27.025 61.312 26.945 61.256 26.841 61.208C26.745 61.152 26.605 61.108 26.421 61.076C26.237 61.044 26.053 61.028 25.869 61.028C25.429 61.028 25.041 61.132 24.705 61.34C24.377 61.548 24.117 61.828 23.925 62.18C23.733 62.532 23.637 62.932 23.637 63.38C23.637 63.828 23.729 64.228 23.913 64.58C24.097 64.932 24.353 65.212 24.681 65.42C25.009 65.628 25.389 65.732 25.821 65.732C26.101 65.732 26.325 65.708 26.493 65.66C26.661 65.612 26.801 65.556 26.913 65.492C27.057 65.412 27.165 65.332 27.237 65.252C27.317 65.172 27.421 65.132 27.549 65.132C27.685 65.132 27.789 65.176 27.861 65.264C27.941 65.352 27.981 65.46 27.981 65.588C27.981 65.732 27.881 65.884 27.681 66.044C27.481 66.204 27.209 66.34 26.865 66.452C26.529 66.564 26.145 66.62 25.713 66.62C25.105 66.62 24.573 66.48 24.117 66.2C23.661 65.912 23.305 65.524 23.049 65.036C22.801 64.54 22.677 63.988 22.677 63.38C22.677 62.772 22.805 62.224 23.061 61.736C23.325 61.248 23.689 60.86 24.153 60.572C24.617 60.284 25.157 60.14 25.773 60.14ZM32.2357 60.2C32.7637 60.2 33.1797 60.316 33.4837 60.548C33.7957 60.772 34.0157 61.076 34.1437 61.46C34.2797 61.836 34.3477 62.256 34.3477 62.72V66.008C34.3477 66.144 34.2997 66.26 34.2037 66.356C34.1157 66.452 34.0037 66.5 33.8677 66.5C33.7317 66.5 33.6157 66.452 33.5197 66.356C33.4317 66.26 33.3877 66.144 33.3877 66.008V62.72C33.3877 62.416 33.3437 62.144 33.2557 61.904C33.1677 61.656 33.0197 61.46 32.8117 61.316C32.6117 61.164 32.3357 61.088 31.9837 61.088C31.6557 61.088 31.3557 61.164 31.0837 61.316C30.8117 61.46 30.5957 61.656 30.4357 61.904C30.2757 62.144 30.1957 62.416 30.1957 62.72V66.008C30.1957 66.144 30.1477 66.26 30.0517 66.356C29.9637 66.452 29.8517 66.5 29.7157 66.5C29.5797 66.5 29.4637 66.452 29.3677 66.356C29.2797 66.26 29.2357 66.144 29.2357 66.008V58.1C29.2357 57.964 29.2797 57.852 29.3677 57.764C29.4637 57.668 29.5797 57.62 29.7157 57.62C29.8597 57.62 29.9757 57.668 30.0637 57.764C30.1517 57.852 30.1957 57.964 30.1957 58.1V61.688L29.9557 61.952C29.9957 61.744 30.0837 61.536 30.2197 61.328C30.3557 61.112 30.5277 60.92 30.7357 60.752C30.9437 60.584 31.1757 60.452 31.4317 60.356C31.6877 60.252 31.9557 60.2 32.2357 60.2ZM42.431 60.2C42.959 60.2 43.375 60.316 43.679 60.548C43.991 60.772 44.211 61.076 44.339 61.46C44.475 61.836 44.543 62.256 44.543 62.72V66.008C44.543 66.144 44.495 66.26 44.399 66.356C44.311 66.452 44.199 66.5 44.063 66.5C43.927 66.5 43.811 66.452 43.715 66.356C43.627 66.26 43.583 66.144 43.583 66.008V62.72C43.583 62.416 43.539 62.144 43.451 61.904C43.363 61.656 43.215 61.46 43.007 61.316C42.807 61.164 42.531 61.088 42.179 61.088C41.851 61.088 41.551 61.164 41.279 61.316C41.007 61.46 40.791 61.656 40.631 61.904C40.471 62.144 40.391 62.416 40.391 62.72V66.008C40.391 66.144 40.343 66.26 40.247 66.356C40.159 66.452 40.047 66.5 39.911 66.5C39.775 66.5 39.659 66.452 39.563 66.356C39.475 66.26 39.431 66.144 39.431 66.008V58.1C39.431 57.964 39.475 57.852 39.563 57.764C39.659 57.668 39.775 57.62 39.911 57.62C40.055 57.62 40.171 57.668 40.259 57.764C40.347 57.852 40.391 57.964 40.391 58.1V61.688L40.151 61.952C40.191 61.744 40.279 61.536 40.415 61.328C40.551 61.112 40.723 60.92 40.931 60.752C41.139 60.584 41.371 60.452 41.627 60.356C41.883 60.252 42.151 60.2 42.431 60.2ZM52.2136 63.38C52.2136 64.004 52.0736 64.56 51.7936 65.048C51.5216 65.536 51.1496 65.92 50.6776 66.2C50.2136 66.48 49.6896 66.62 49.1056 66.62C48.5216 66.62 47.9936 66.48 47.5216 66.2C47.0496 65.92 46.6736 65.536 46.3936 65.048C46.1216 64.56 45.9856 64.004 45.9856 63.38C45.9856 62.756 46.1216 62.2 46.3936 61.712C46.6736 61.224 47.0496 60.84 47.5216 60.56C47.9936 60.28 48.5216 60.14 49.1056 60.14C49.6896 60.14 50.2136 60.28 50.6776 60.56C51.1496 60.84 51.5216 61.224 51.7936 61.712C52.0736 62.2 52.2136 62.756 52.2136 63.38ZM51.2536 63.38C51.2536 62.916 51.1576 62.508 50.9656 62.156C50.7816 61.804 50.5256 61.528 50.1976 61.328C49.8776 61.128 49.5136 61.028 49.1056 61.028C48.6976 61.028 48.3296 61.128 48.0016 61.328C47.6816 61.528 47.4256 61.804 47.2336 62.156C47.0416 62.508 46.9456 62.916 46.9456 63.38C46.9456 63.836 47.0416 64.24 47.2336 64.592C47.4256 64.944 47.6816 65.224 48.0016 65.432C48.3296 65.632 48.6976 65.732 49.1056 65.732C49.5136 65.732 49.8776 65.632 50.1976 65.432C50.5256 65.224 50.7816 64.944 50.9656 64.592C51.1576 64.24 51.2536 63.836 51.2536 63.38ZM58.3015 60.296C58.4455 60.296 58.5615 60.344 58.6495 60.44C58.7375 60.528 58.7815 60.64 58.7815 60.776V64.052C58.7815 64.86 58.5535 65.488 58.0975 65.936C57.6495 66.376 57.0215 66.596 56.2135 66.596C55.4135 66.596 54.7855 66.376 54.3295 65.936C53.8815 65.488 53.6575 64.86 53.6575 64.052V60.776C53.6575 60.64 53.7015 60.528 53.7895 60.44C53.8855 60.344 54.0015 60.296 54.1375 60.296C54.2815 60.296 54.3975 60.344 54.4855 60.44C54.5735 60.528 54.6175 60.64 54.6175 60.776V64.052C54.6175 64.596 54.7575 65.008 55.0375 65.288C55.3175 65.568 55.7095 65.708 56.2135 65.708C56.7335 65.708 57.1295 65.568 57.4015 65.288C57.6815 65.008 57.8215 64.596 57.8215 64.052V60.776C57.8215 60.64 57.8655 60.528 57.9535 60.44C58.0495 60.344 58.1655 60.296 58.3015 60.296ZM60.2119 65.516C60.1399 65.412 60.1079 65.304 60.1159 65.192C60.1239 65.072 60.1919 64.968 60.3199 64.88C60.3999 64.824 60.4919 64.8 60.5959 64.808C60.7079 64.816 60.8079 64.868 60.8959 64.964C61.1199 65.228 61.3759 65.44 61.6639 65.6C61.9519 65.752 62.3039 65.828 62.7199 65.828C62.9119 65.82 63.1039 65.788 63.2959 65.732C63.4879 65.676 63.6479 65.58 63.7759 65.444C63.9119 65.3 63.9799 65.112 63.9799 64.88C63.9799 64.656 63.9119 64.48 63.7759 64.352C63.6399 64.216 63.4639 64.108 63.2479 64.028C63.0319 63.94 62.7959 63.864 62.5399 63.8C62.2759 63.728 62.0159 63.648 61.7599 63.56C61.5039 63.464 61.2719 63.348 61.0639 63.212C60.8639 63.068 60.6999 62.892 60.5719 62.684C60.4519 62.468 60.3919 62.208 60.3919 61.904C60.3919 61.544 60.4879 61.232 60.6799 60.968C60.8799 60.704 61.1439 60.5 61.4719 60.356C61.8079 60.212 62.1719 60.14 62.5639 60.14C62.7879 60.14 63.0199 60.168 63.2599 60.224C63.5079 60.272 63.7479 60.36 63.9799 60.488C64.2119 60.608 64.4159 60.776 64.5919 60.992C64.6639 61.072 64.7039 61.172 64.7119 61.292C64.7199 61.412 64.6679 61.52 64.5559 61.616C64.4679 61.68 64.3679 61.708 64.2559 61.7C64.1519 61.692 64.0639 61.652 63.9919 61.58C63.8239 61.38 63.6119 61.228 63.3559 61.124C63.1079 61.012 62.8319 60.956 62.5279 60.956C62.3359 60.956 62.1479 60.984 61.9639 61.04C61.7799 61.096 61.6239 61.192 61.4959 61.328C61.3759 61.456 61.3159 61.636 61.3159 61.868C61.3239 62.084 61.3959 62.26 61.5319 62.396C61.6679 62.532 61.8519 62.644 62.0839 62.732C62.3159 62.812 62.5719 62.892 62.8519 62.972C63.1079 63.036 63.3519 63.112 63.5839 63.2C63.8239 63.28 64.0399 63.388 64.2319 63.524C64.4239 63.66 64.5759 63.836 64.6879 64.052C64.7999 64.26 64.8559 64.524 64.8559 64.844C64.8559 65.212 64.7519 65.532 64.5439 65.804C64.3359 66.068 64.0599 66.272 63.7159 66.416C63.3799 66.552 63.0159 66.62 62.6239 66.62C62.1839 66.62 61.7479 66.536 61.3159 66.368C60.8919 66.2 60.5239 65.916 60.2119 65.516ZM69.1115 66.62C68.4715 66.62 67.9115 66.484 67.4315 66.212C66.9515 65.94 66.5755 65.568 66.3035 65.096C66.0395 64.616 65.9075 64.064 65.9075 63.44C65.9075 62.744 66.0435 62.152 66.3155 61.664C66.5955 61.168 66.9555 60.792 67.3955 60.536C67.8435 60.272 68.3155 60.14 68.8115 60.14C69.1795 60.14 69.5355 60.208 69.8795 60.344C70.2235 60.48 70.5275 60.68 70.7915 60.944C71.0555 61.2 71.2675 61.512 71.4275 61.88C71.5875 62.24 71.6715 62.644 71.6795 63.092C71.6795 63.22 71.6315 63.328 71.5355 63.416C71.4395 63.504 71.3275 63.548 71.1995 63.548H66.4595L66.2435 62.72H70.8635L70.6715 62.888V62.624C70.6395 62.296 70.5275 62.016 70.3355 61.784C70.1515 61.544 69.9235 61.36 69.6515 61.232C69.3875 61.104 69.1075 61.04 68.8115 61.04C68.5715 61.04 68.3315 61.084 68.0915 61.172C67.8595 61.252 67.6475 61.388 67.4555 61.58C67.2715 61.764 67.1195 62.004 66.9995 62.3C66.8875 62.596 66.8315 62.952 66.8315 63.368C66.8315 63.832 66.9235 64.24 67.1075 64.592C67.2995 64.944 67.5635 65.224 67.8995 65.432C68.2355 65.632 68.6275 65.732 69.0755 65.732C69.3555 65.732 69.5995 65.696 69.8075 65.624C70.0155 65.552 70.1955 65.464 70.3475 65.36C70.4995 65.248 70.6275 65.136 70.7315 65.024C70.8355 64.952 70.9355 64.916 71.0315 64.916C71.1515 64.916 71.2475 64.956 71.3195 65.036C71.3995 65.116 71.4395 65.212 71.4395 65.324C71.4395 65.46 71.3755 65.58 71.2475 65.684C71.0235 65.932 70.7195 66.152 70.3355 66.344C69.9515 66.528 69.5435 66.62 69.1115 66.62Z" fill="#616161"/>
<defs>
<clipPath id="clip0_8_352">
<rect width="34" height="34" fill="white" transform="translate(19.5 15.5)"/>
</clipPath>
</defs>
</svg>
