<svg width="59" height="84" viewBox="0 0 59 84" fill="none" xmlns="http://www.w3.org/2000/svg">
<g clip-path="url(#clip0_8_422)">
<path d="M14.2419 33.2011C14.4404 33.3095 14.6492 33.3977 14.8653 33.4646C14.5998 34.443 14.8784 35.4887 15.5955 36.2054C16.3125 36.9221 17.3583 37.2002 18.3367 36.9343C18.7343 38.213 19.8529 39.1339 21.1842 39.2786C21.375 39.8217 21.7018 40.3069 22.1333 40.6879V44.4001C22.1333 46.0174 21.8132 47.7242 20.9615 48.2194C20.8583 47.0782 20.4758 44.8806 19.0478 43.9286C18.7874 43.7549 18.4355 43.8252 18.2619 44.0856C18.0882 44.346 18.1584 44.6979 18.4188 44.8716C19.0428 45.4014 19.4616 46.133 19.6026 46.9393C19.045 46.4478 18.3414 46.153 17.6 46.1001C17.2909 46.1004 17.0398 46.3497 17.0373 46.6588C17.035 46.9694 17.2816 47.2248 17.5921 47.2334C18.3331 47.3339 18.9959 47.7463 19.4133 48.3668H16.4667C16.1537 48.3668 15.9 48.6205 15.9 48.9334C15.9 49.2464 16.1537 49.5001 16.4667 49.5001H45.9333C46.2463 49.5001 46.5 49.2464 46.5 48.9334C46.5 48.6205 46.2463 48.3668 45.9333 48.3668H44.8V24.0001C45.7389 24.0001 46.5 23.239 46.5 22.3001V22.0763C46.5008 21.7409 46.4022 21.4127 46.2167 21.1333L43.3437 16.8267C43.0286 16.352 42.4967 16.0667 41.927 16.0668H27.8C27.6109 16.0668 27.4342 16.1612 27.3291 16.3184L27.154 16.5813C26.2129 15.9149 24.9594 15.894 23.9965 16.5286C23.2765 15.7879 22.2583 15.4154 21.2303 15.5166C20.2022 15.6179 19.2763 16.1818 18.7146 17.0488C18.5294 17.3367 18.3893 17.6512 18.2993 17.9815C16.5572 17.3865 14.6349 18.0722 13.6627 19.6354C12.6904 21.1987 12.9254 23.226 14.2295 24.5254C13.8421 25.0232 13.6323 25.6361 13.6333 26.2668C13.6349 26.6883 13.7318 27.104 13.9167 27.4828C12.9719 28.1588 12.4392 29.2715 12.505 30.4313C12.5709 31.5911 13.2267 32.6364 14.2419 33.2011ZM22.4048 48.3668C22.9658 47.4975 23.2667 46.1505 23.2667 44.4001V41.3707C23.9996 41.6321 24.8004 41.6321 25.5333 41.3707V44.4001C25.5333 46.1505 25.8342 47.4975 26.3952 48.3668H22.4048ZM43.6667 37.6001H36.8667V36.4668H43.6667V37.6001ZM35.7333 46.1001H32.3333V44.4001H35.7333V46.1001ZM35.7333 43.2668H32.3333V41.5668H35.7333V43.2668ZM35.7333 40.4334H32.3333V38.7334H35.7333V40.4334ZM32.3333 47.2334H35.7333V48.3668H32.3333V47.2334ZM35.7333 37.6001H32.3333V31.3668C32.3333 30.4279 33.0944 29.6668 34.0333 29.6668C34.9722 29.6668 35.7333 30.4279 35.7333 31.3668V37.6001ZM31.2 37.6001H26.6667V37.1394C26.9769 36.9599 27.2572 36.7329 27.4974 36.4668H31.2V37.6001ZM29.0093 48.3668C29.0708 47.8802 29.3428 47.4451 29.7533 47.1768C30.0334 47.0369 30.147 46.6964 30.0072 46.4163C29.8673 46.1362 29.5268 46.0225 29.2467 46.1624C28.4911 46.6056 27.9842 47.3747 27.8748 48.2438C26.9953 47.7735 26.6667 46.0434 26.6667 44.4001V38.7334H31.2V48.3668H29.0093ZM36.8667 48.3668V38.7334H41.4V48.3668H36.8667ZM42.5333 48.3668V38.7334H43.6667V48.3668H42.5333ZM43.6667 35.3334H36.8667V31.3668C36.8667 29.802 35.5981 28.5334 34.0333 28.5334C32.4685 28.5334 31.2 29.802 31.2 31.3668V35.3334H28.1632C28.2953 34.9701 28.3641 34.5867 28.3667 34.2001C28.3663 34.0523 28.3564 33.9047 28.3372 33.7581C29.2688 33.2345 29.8988 32.3021 30.037 31.2423C30.1752 30.1826 29.8054 29.1198 29.0393 28.3748C29.3404 27.9172 29.5006 27.3812 29.5 26.8334C29.491 25.681 28.7891 24.6473 27.7212 24.2137C27.7354 24.1435 27.7433 24.0715 27.7541 24.0001H43.6667V35.3334ZM41.927 17.2001C42.1164 17.2001 42.2933 17.2947 42.3985 17.4523L45.2715 21.7618C45.3332 21.855 45.3663 21.9644 45.3667 22.0763V22.3001C45.3667 22.6131 45.1129 22.8668 44.8 22.8668H27.7586C27.5981 21.7867 27.0014 20.8198 26.1079 20.1921L28.1026 17.2001H41.927ZM18.1032 32.236C18.0241 32.1082 17.8974 32.017 17.7511 31.9826C17.6047 31.9481 17.4507 31.9733 17.3229 32.0524C16.575 32.5715 15.6008 32.6326 14.7939 32.2111C14.0775 31.8106 13.6336 31.0542 13.6333 30.2334C13.6301 29.4958 13.9904 28.804 14.5967 28.3838C14.9301 28.6812 15.3253 28.901 15.7538 29.0276C16.0539 29.1163 16.3691 28.9449 16.4579 28.6448C16.5466 28.3447 16.3752 28.0294 16.0751 27.9407C15.3139 27.7377 14.7798 27.0544 14.7667 26.2668C14.764 25.4879 15.2953 24.8085 16.0519 24.6234C16.2486 24.5754 16.4048 24.4259 16.4616 24.2315C16.5183 24.037 16.467 23.8271 16.327 23.6807C16.187 23.5343 15.9795 23.4738 15.7827 23.5218C15.5433 23.5834 15.3131 23.6764 15.0982 23.7984C14.0873 22.855 13.9066 21.3191 14.6708 20.1668C15.435 19.0146 16.9202 18.5836 18.1825 19.1477C18.2156 19.5776 18.3229 19.9984 18.4999 20.3916C18.5908 20.5963 18.7938 20.7282 19.0178 20.7282C19.0971 20.7278 19.1754 20.711 19.2479 20.6789C19.3852 20.6177 19.4925 20.5044 19.5463 20.364C19.6001 20.2236 19.5959 20.0676 19.5346 19.9303C19.1857 19.2038 19.2352 18.349 19.6655 17.6676C20.04 17.0894 20.6576 16.7132 21.3433 16.6458C22.0289 16.5785 22.7079 16.8271 23.1879 17.3214C23.0052 17.5955 22.8722 17.8998 22.7952 18.2201C22.7244 18.5242 22.9129 18.8283 23.2168 18.9001C23.2597 18.9102 23.3036 18.9154 23.3477 18.9154C23.6104 18.915 23.8383 18.7342 23.8985 18.4785C24.0796 17.7239 24.7573 17.194 25.5333 17.2001C25.8897 17.2009 26.2367 17.3146 26.5244 17.5248L25.0857 19.6832C24.8025 19.5843 24.5089 19.5182 24.2107 19.486C24.0092 19.4667 23.8126 19.5564 23.6951 19.7212C23.5776 19.8861 23.557 20.1011 23.641 20.2853C23.725 20.4696 23.9009 20.5949 24.1025 20.6143C24.4364 20.6444 24.7618 20.7361 25.0624 20.8846C26.0412 21.3569 26.6642 22.3467 26.6667 23.4334C26.6653 24.1813 26.3614 24.8967 25.824 25.4168C25.612 25.6378 25.6139 25.9873 25.8284 26.2059C26.0429 26.4245 26.3923 26.4332 26.6174 26.2254C26.9023 25.9462 27.1437 25.6259 27.3336 25.2751C27.9566 25.5437 28.3619 26.1551 28.3667 26.8334C28.3662 27.1495 28.2762 27.4589 28.1071 27.7259C27.8601 27.606 27.5991 27.5173 27.3302 27.4619C27.1303 27.421 26.9238 27.4908 26.7897 27.6446C26.6555 27.7984 26.6145 28.0124 26.6821 28.2049C26.7498 28.3975 26.9157 28.5387 27.1166 28.5748C28.2596 28.8067 29.0408 29.867 28.9238 31.0273C28.8068 32.1877 27.8295 33.0706 26.6633 33.0696C26.3503 33.0696 26.0966 33.3233 26.0966 33.6363C26.0966 33.9492 26.3503 34.2029 26.6633 34.2029C26.8521 34.2013 27.0405 34.1841 27.2265 34.1514C27.2265 34.1678 27.2299 34.1837 27.2299 34.2001C27.2278 35.1002 26.6966 35.9148 25.8739 36.2798C25.3942 36.4834 24.8602 36.5207 24.3569 36.3857C24.1619 36.331 23.9525 36.3845 23.8076 36.5261C23.6628 36.6677 23.6045 36.8758 23.6548 37.0721C23.7051 37.2683 23.8564 37.4227 24.0515 37.4771C24.3495 37.5597 24.6574 37.6011 24.9667 37.6001C25.1566 37.5988 25.3462 37.5817 25.5333 37.5491V40.1229C24.7473 40.5678 23.7738 40.5128 23.0428 39.9824C22.3083 39.4396 21.9797 38.5033 22.2138 37.6205C22.292 37.3172 22.1096 37.008 21.8064 36.9297C21.5031 36.8515 21.1938 37.0339 21.1156 37.3372C21.0544 37.5853 21.021 37.8394 21.0159 38.0948C19.8411 37.8057 19.1059 36.6385 19.3527 35.4541C19.3916 35.2554 19.3215 35.0511 19.1688 34.9181C19.0162 34.7851 18.8042 34.7436 18.6126 34.8093C18.4211 34.875 18.2792 35.0378 18.2403 35.2365C18.2069 35.4164 18.188 35.5987 18.1837 35.7817C17.9979 35.8563 17.8001 35.8964 17.6 35.9001C16.6611 35.9001 15.9 35.139 15.9 34.2001C15.9034 34.001 15.9429 33.8042 16.0167 33.6193C16.6924 33.5868 17.348 33.379 17.919 33.0163C18.047 32.9373 18.1383 32.8107 18.1728 32.6644C18.2074 32.518 18.1823 32.3639 18.1032 32.236Z" fill="#616161"/>
<path d="M21.5667 33.0667C21.8796 33.0667 22.1333 32.813 22.1333 32.5C22.1333 32.1871 22.387 31.9334 22.7 31.9334C23.013 31.9334 23.2667 31.6797 23.2667 31.3667C23.2667 31.0538 23.013 30.8 22.7 30.8C21.7611 30.8 21 31.5612 21 32.5C21 32.813 21.2537 33.0667 21.5667 33.0667Z" fill="#616161"/>
<path d="M19.3 26.2667C19.613 26.2667 19.8667 26.013 19.8667 25.7C19.8667 25.387 20.1204 25.1333 20.4333 25.1333C20.7463 25.1333 21 24.8796 21 24.5667C21 24.2537 20.7463 24 20.4333 24C19.4945 24 18.7333 24.7611 18.7333 25.7C18.7333 26.013 18.987 26.2667 19.3 26.2667Z" fill="#616161"/>
<path d="M23.8333 27.4002C24.1463 27.4002 24.4 27.6539 24.4 27.9668C24.4 28.2798 24.6537 28.5335 24.9667 28.5335C25.2796 28.5335 25.5333 28.2798 25.5333 27.9668C25.5333 27.028 24.7722 26.2668 23.8333 26.2668C23.5204 26.2668 23.2667 26.5206 23.2667 26.8335C23.2667 27.1465 23.5204 27.4002 23.8333 27.4002Z" fill="#616161"/>
<path d="M39.1333 29.6669H41.4C42.0259 29.6669 42.5333 29.1595 42.5333 28.5335V26.2669C42.5333 25.641 42.0259 25.1335 41.4 25.1335H39.1333C38.5074 25.1335 38 25.641 38 26.2669V28.5335C38 29.1595 38.5074 29.6669 39.1333 29.6669ZM39.1333 26.2669H41.4V28.5335H39.1333V26.2669Z" fill="#616161"/>
<path d="M28.9333 21.7334H42.5333C42.8463 21.7334 43.1 21.4797 43.1 21.1668C43.1 20.8538 42.8463 20.6001 42.5333 20.6001H28.9333C28.6203 20.6001 28.3666 20.8538 28.3666 21.1668C28.3666 21.4797 28.6203 21.7334 28.9333 21.7334Z" fill="#616161"/>
<path d="M14.2 49.5C14.513 49.5 14.7667 49.2463 14.7667 48.9334C14.7667 48.6204 14.513 48.3667 14.2 48.3667H13.0667C12.7537 48.3667 12.5 48.6204 12.5 48.9334C12.5 49.2463 12.7537 49.5 13.0667 49.5H14.2Z" fill="#616161"/>
</g>
<path d="M3.66 66.5C3.516 66.5 3.396 66.452 3.3 66.356C3.204 66.26 3.156 66.144 3.156 66.008V58.592H4.176V66.008C4.176 66.144 4.128 66.26 4.032 66.356C3.936 66.452 3.812 66.5 3.66 66.5ZM0.876 59.012C0.74 59.012 0.624 58.972 0.528 58.892C0.44 58.804 0.396 58.692 0.396 58.556C0.396 58.42 0.44 58.312 0.528 58.232C0.624 58.144 0.74 58.1 0.876 58.1H6.456C6.592 58.1 6.708 58.144 6.804 58.232C6.9 58.312 6.948 58.42 6.948 58.556C6.948 58.7 6.9 58.812 6.804 58.892C6.708 58.972 6.592 59.012 6.456 59.012H0.876ZM7.98909 66.5C7.85309 66.5 7.73709 66.452 7.64109 66.356C7.55309 66.26 7.50909 66.144 7.50909 66.008V60.776C7.50909 60.64 7.55309 60.528 7.64109 60.44C7.73709 60.344 7.85309 60.296 7.98909 60.296C8.13309 60.296 8.24909 60.344 8.33709 60.44C8.42509 60.528 8.46909 60.64 8.46909 60.776V62.36L8.32509 62.108C8.37309 61.86 8.45709 61.62 8.57709 61.388C8.70509 61.148 8.86509 60.936 9.05709 60.752C9.24909 60.56 9.46909 60.412 9.71709 60.308C9.96509 60.196 10.2371 60.14 10.5331 60.14C10.7091 60.14 10.8691 60.184 11.0131 60.272C11.1651 60.352 11.2411 60.468 11.2411 60.62C11.2411 60.788 11.1971 60.912 11.1091 60.992C11.0211 61.072 10.9211 61.112 10.8091 61.112C10.7051 61.112 10.6051 61.092 10.5091 61.052C10.4131 61.004 10.2931 60.98 10.1491 60.98C9.94909 60.98 9.74909 61.036 9.54909 61.148C9.35709 61.252 9.17709 61.404 9.00909 61.604C8.84909 61.804 8.71709 62.032 8.61309 62.288C8.51709 62.536 8.46909 62.804 8.46909 63.092V66.008C8.46909 66.144 8.42109 66.26 8.32509 66.356C8.23709 66.452 8.12509 66.5 7.98909 66.5ZM14.924 66.62C14.284 66.62 13.724 66.484 13.244 66.212C12.764 65.94 12.388 65.568 12.116 65.096C11.852 64.616 11.72 64.064 11.72 63.44C11.72 62.744 11.856 62.152 12.128 61.664C12.408 61.168 12.768 60.792 13.208 60.536C13.656 60.272 14.128 60.14 14.624 60.14C14.992 60.14 15.348 60.208 15.692 60.344C16.036 60.48 16.34 60.68 16.604 60.944C16.868 61.2 17.08 61.512 17.24 61.88C17.4 62.24 17.484 62.644 17.492 63.092C17.492 63.22 17.444 63.328 17.348 63.416C17.252 63.504 17.14 63.548 17.012 63.548H12.272L12.056 62.72H16.676L16.484 62.888V62.624C16.452 62.296 16.34 62.016 16.148 61.784C15.964 61.544 15.736 61.36 15.464 61.232C15.2 61.104 14.92 61.04 14.624 61.04C14.384 61.04 14.144 61.084 13.904 61.172C13.672 61.252 13.46 61.388 13.268 61.58C13.084 61.764 12.932 62.004 12.812 62.3C12.7 62.596 12.644 62.952 12.644 63.368C12.644 63.832 12.736 64.24 12.92 64.592C13.112 64.944 13.376 65.224 13.712 65.432C14.048 65.632 14.44 65.732 14.888 65.732C15.168 65.732 15.412 65.696 15.62 65.624C15.828 65.552 16.008 65.464 16.16 65.36C16.312 65.248 16.44 65.136 16.544 65.024C16.648 64.952 16.748 64.916 16.844 64.916C16.964 64.916 17.06 64.956 17.132 65.036C17.212 65.116 17.252 65.212 17.252 65.324C17.252 65.46 17.188 65.58 17.06 65.684C16.836 65.932 16.532 66.152 16.148 66.344C15.764 66.528 15.356 66.62 14.924 66.62ZM21.8029 66.62C21.1629 66.62 20.6029 66.484 20.1229 66.212C19.6429 65.94 19.2669 65.568 18.9949 65.096C18.7309 64.616 18.5989 64.064 18.5989 63.44C18.5989 62.744 18.7349 62.152 19.0069 61.664C19.2869 61.168 19.6469 60.792 20.0869 60.536C20.5349 60.272 21.0069 60.14 21.5029 60.14C21.8709 60.14 22.2269 60.208 22.5709 60.344C22.9149 60.48 23.2189 60.68 23.4829 60.944C23.7469 61.2 23.9589 61.512 24.1189 61.88C24.2789 62.24 24.3629 62.644 24.3709 63.092C24.3709 63.22 24.3229 63.328 24.2269 63.416C24.1309 63.504 24.0189 63.548 23.8909 63.548H19.1509L18.9349 62.72H23.5549L23.3629 62.888V62.624C23.3309 62.296 23.2189 62.016 23.0269 61.784C22.8429 61.544 22.6149 61.36 22.3429 61.232C22.0789 61.104 21.7989 61.04 21.5029 61.04C21.2629 61.04 21.0229 61.084 20.7829 61.172C20.5509 61.252 20.3389 61.388 20.1469 61.58C19.9629 61.764 19.8109 62.004 19.6909 62.3C19.5789 62.596 19.5229 62.952 19.5229 63.368C19.5229 63.832 19.6149 64.24 19.7989 64.592C19.9909 64.944 20.2549 65.224 20.5909 65.432C20.9269 65.632 21.3189 65.732 21.7669 65.732C22.0469 65.732 22.2909 65.696 22.4989 65.624C22.7069 65.552 22.8869 65.464 23.0389 65.36C23.1909 65.248 23.3189 65.136 23.4229 65.024C23.5269 64.952 23.6269 64.916 23.7229 64.916C23.8429 64.916 23.9389 64.956 24.0109 65.036C24.0909 65.116 24.1309 65.212 24.1309 65.324C24.1309 65.46 24.0669 65.58 23.9389 65.684C23.7149 65.932 23.4109 66.152 23.0269 66.344C22.6429 66.528 22.2349 66.62 21.8029 66.62ZM28.8138 60.2C29.3418 60.2 29.7578 60.316 30.0618 60.548C30.3738 60.772 30.5938 61.076 30.7218 61.46C30.8578 61.836 30.9258 62.256 30.9258 62.72V66.008C30.9258 66.144 30.8778 66.26 30.7818 66.356C30.6938 66.452 30.5818 66.5 30.4458 66.5C30.3098 66.5 30.1938 66.452 30.0978 66.356C30.0098 66.26 29.9658 66.144 29.9658 66.008V62.72C29.9658 62.416 29.9218 62.144 29.8338 61.904C29.7458 61.656 29.5978 61.46 29.3898 61.316C29.1898 61.164 28.9138 61.088 28.5618 61.088C28.2338 61.088 27.9338 61.164 27.6618 61.316C27.3898 61.46 27.1738 61.656 27.0138 61.904C26.8538 62.144 26.7738 62.416 26.7738 62.72V66.008C26.7738 66.144 26.7258 66.26 26.6298 66.356C26.5418 66.452 26.4298 66.5 26.2938 66.5C26.1578 66.5 26.0418 66.452 25.9458 66.356C25.8578 66.26 25.8138 66.144 25.8138 66.008V58.1C25.8138 57.964 25.8578 57.852 25.9458 57.764C26.0418 57.668 26.1578 57.62 26.2938 57.62C26.4378 57.62 26.5538 57.668 26.6418 57.764C26.7298 57.852 26.7738 57.964 26.7738 58.1V61.688L26.5338 61.952C26.5738 61.744 26.6618 61.536 26.7978 61.328C26.9338 61.112 27.1058 60.92 27.3138 60.752C27.5218 60.584 27.7538 60.452 28.0098 60.356C28.2658 60.252 28.5338 60.2 28.8138 60.2ZM38.5964 63.38C38.5964 64.004 38.4564 64.56 38.1764 65.048C37.9044 65.536 37.5324 65.92 37.0604 66.2C36.5964 66.48 36.0724 66.62 35.4884 66.62C34.9044 66.62 34.3764 66.48 33.9044 66.2C33.4324 65.92 33.0564 65.536 32.7764 65.048C32.5044 64.56 32.3684 64.004 32.3684 63.38C32.3684 62.756 32.5044 62.2 32.7764 61.712C33.0564 61.224 33.4324 60.84 33.9044 60.56C34.3764 60.28 34.9044 60.14 35.4884 60.14C36.0724 60.14 36.5964 60.28 37.0604 60.56C37.5324 60.84 37.9044 61.224 38.1764 61.712C38.4564 62.2 38.5964 62.756 38.5964 63.38ZM37.6364 63.38C37.6364 62.916 37.5404 62.508 37.3484 62.156C37.1644 61.804 36.9084 61.528 36.5804 61.328C36.2604 61.128 35.8964 61.028 35.4884 61.028C35.0804 61.028 34.7124 61.128 34.3844 61.328C34.0644 61.528 33.8084 61.804 33.6164 62.156C33.4244 62.508 33.3284 62.916 33.3284 63.38C33.3284 63.836 33.4244 64.24 33.6164 64.592C33.8084 64.944 34.0644 65.224 34.3844 65.432C34.7124 65.632 35.0804 65.732 35.4884 65.732C35.8964 65.732 36.2604 65.632 36.5804 65.432C36.9084 65.224 37.1644 64.944 37.3484 64.592C37.5404 64.24 37.6364 63.836 37.6364 63.38ZM44.6843 60.296C44.8283 60.296 44.9443 60.344 45.0323 60.44C45.1203 60.528 45.1643 60.64 45.1643 60.776V64.052C45.1643 64.86 44.9363 65.488 44.4803 65.936C44.0323 66.376 43.4043 66.596 42.5963 66.596C41.7963 66.596 41.1683 66.376 40.7123 65.936C40.2643 65.488 40.0403 64.86 40.0403 64.052V60.776C40.0403 60.64 40.0843 60.528 40.1723 60.44C40.2683 60.344 40.3843 60.296 40.5203 60.296C40.6643 60.296 40.7803 60.344 40.8683 60.44C40.9563 60.528 41.0003 60.64 41.0003 60.776V64.052C41.0003 64.596 41.1403 65.008 41.4203 65.288C41.7003 65.568 42.0923 65.708 42.5963 65.708C43.1163 65.708 43.5123 65.568 43.7843 65.288C44.0643 65.008 44.2043 64.596 44.2043 64.052V60.776C44.2043 60.64 44.2483 60.528 44.3363 60.44C44.4323 60.344 44.5483 60.296 44.6843 60.296ZM46.5947 65.516C46.5227 65.412 46.4907 65.304 46.4987 65.192C46.5067 65.072 46.5747 64.968 46.7027 64.88C46.7827 64.824 46.8747 64.8 46.9787 64.808C47.0907 64.816 47.1907 64.868 47.2787 64.964C47.5027 65.228 47.7587 65.44 48.0467 65.6C48.3347 65.752 48.6867 65.828 49.1027 65.828C49.2947 65.82 49.4867 65.788 49.6787 65.732C49.8707 65.676 50.0307 65.58 50.1587 65.444C50.2947 65.3 50.3627 65.112 50.3627 64.88C50.3627 64.656 50.2947 64.48 50.1587 64.352C50.0227 64.216 49.8467 64.108 49.6307 64.028C49.4147 63.94 49.1787 63.864 48.9227 63.8C48.6587 63.728 48.3987 63.648 48.1427 63.56C47.8867 63.464 47.6547 63.348 47.4467 63.212C47.2467 63.068 47.0827 62.892 46.9547 62.684C46.8347 62.468 46.7747 62.208 46.7747 61.904C46.7747 61.544 46.8707 61.232 47.0627 60.968C47.2627 60.704 47.5267 60.5 47.8547 60.356C48.1907 60.212 48.5547 60.14 48.9467 60.14C49.1707 60.14 49.4027 60.168 49.6427 60.224C49.8907 60.272 50.1307 60.36 50.3627 60.488C50.5947 60.608 50.7987 60.776 50.9747 60.992C51.0467 61.072 51.0867 61.172 51.0947 61.292C51.1027 61.412 51.0507 61.52 50.9387 61.616C50.8507 61.68 50.7507 61.708 50.6387 61.7C50.5347 61.692 50.4467 61.652 50.3747 61.58C50.2067 61.38 49.9947 61.228 49.7387 61.124C49.4907 61.012 49.2147 60.956 48.9107 60.956C48.7187 60.956 48.5307 60.984 48.3467 61.04C48.1627 61.096 48.0067 61.192 47.8787 61.328C47.7587 61.456 47.6987 61.636 47.6987 61.868C47.7067 62.084 47.7787 62.26 47.9147 62.396C48.0507 62.532 48.2347 62.644 48.4667 62.732C48.6987 62.812 48.9547 62.892 49.2347 62.972C49.4907 63.036 49.7347 63.112 49.9667 63.2C50.2067 63.28 50.4227 63.388 50.6147 63.524C50.8067 63.66 50.9587 63.836 51.0707 64.052C51.1827 64.26 51.2387 64.524 51.2387 64.844C51.2387 65.212 51.1347 65.532 50.9267 65.804C50.7187 66.068 50.4427 66.272 50.0987 66.416C49.7627 66.552 49.3987 66.62 49.0067 66.62C48.5667 66.62 48.1307 66.536 47.6987 66.368C47.2747 66.2 46.9067 65.916 46.5947 65.516ZM55.4943 66.62C54.8543 66.62 54.2943 66.484 53.8143 66.212C53.3343 65.94 52.9583 65.568 52.6863 65.096C52.4223 64.616 52.2903 64.064 52.2903 63.44C52.2903 62.744 52.4263 62.152 52.6983 61.664C52.9783 61.168 53.3383 60.792 53.7783 60.536C54.2263 60.272 54.6983 60.14 55.1943 60.14C55.5623 60.14 55.9183 60.208 56.2623 60.344C56.6063 60.48 56.9103 60.68 57.1743 60.944C57.4383 61.2 57.6503 61.512 57.8103 61.88C57.9703 62.24 58.0543 62.644 58.0623 63.092C58.0623 63.22 58.0143 63.328 57.9183 63.416C57.8223 63.504 57.7103 63.548 57.5823 63.548H52.8423L52.6263 62.72H57.2463L57.0543 62.888V62.624C57.0223 62.296 56.9103 62.016 56.7183 61.784C56.5343 61.544 56.3063 61.36 56.0343 61.232C55.7703 61.104 55.4903 61.04 55.1943 61.04C54.9543 61.04 54.7143 61.084 54.4743 61.172C54.2423 61.252 54.0303 61.388 53.8383 61.58C53.6543 61.764 53.5023 62.004 53.3823 62.3C53.2703 62.596 53.2143 62.952 53.2143 63.368C53.2143 63.832 53.3063 64.24 53.4903 64.592C53.6823 64.944 53.9463 65.224 54.2823 65.432C54.6183 65.632 55.0103 65.732 55.4583 65.732C55.7383 65.732 55.9823 65.696 56.1903 65.624C56.3983 65.552 56.5783 65.464 56.7303 65.36C56.8823 65.248 57.0103 65.136 57.1143 65.024C57.2183 64.952 57.3183 64.916 57.4143 64.916C57.5343 64.916 57.6303 64.956 57.7023 65.036C57.7823 65.116 57.8223 65.212 57.8223 65.324C57.8223 65.46 57.7583 65.58 57.6303 65.684C57.4063 65.932 57.1023 66.152 56.7183 66.344C56.3343 66.528 55.9263 66.62 55.4943 66.62Z" fill="#616161"/>
<defs>
<clipPath id="clip0_8_422">
<rect width="34" height="34" fill="white" transform="translate(12.5 15.5)"/>
</clipPath>
</defs>
</svg>
