<svg width="38" height="84" viewBox="0 0 38 84" fill="none" xmlns="http://www.w3.org/2000/svg">
<g clip-path="url(#clip0_8_432)">
<path d="M35.9869 31.7585C35.9229 31.1561 35.6282 30.6156 35.1381 30.2206L32.0334 27.9228V22.2999H27.5001V24.5682L19.0337 18.3032L2.88509 29.667C2.40513 30.0359 2.09744 30.5702 2.01924 31.1703C1.94104 31.771 2.1014 32.3654 2.4703 32.8453C3.23302 33.8359 4.65759 34.0217 5.62601 33.2771L5.96714 33.0408V34.3991C5.29962 34.7187 4.83382 35.3953 4.83382 36.1835C4.83382 36.9717 5.29962 37.6483 5.96714 37.9679V40.0657C5.29962 40.3853 4.83382 41.0619 4.83382 41.8501C4.83382 42.6383 5.29962 43.3149 5.96714 43.6345V45.7323C5.29962 46.0519 4.83382 46.7285 4.83382 47.5167C4.83382 48.6103 5.72348 49.5 6.81712 49.5H15.0337H16.167H21.8335H22.9669H31.1834C32.277 49.5 33.1667 48.6103 33.1667 47.5167C33.1667 46.5205 32.4255 45.7011 31.4667 45.5623V43.8045C32.4255 43.6657 33.1667 42.8463 33.1667 41.8501C33.1667 40.8539 32.4255 40.0345 31.4667 39.8957V38.1379C32.4255 37.9991 33.1667 37.1797 33.1667 36.1835C33.1667 35.1873 32.4255 34.368 31.4667 34.2291V33.1485L32.3207 33.7713C32.7366 34.1033 33.2347 34.2643 33.7305 34.2643C34.3924 34.2643 35.0491 33.9764 35.4968 33.4228C35.877 32.9519 36.0515 32.3609 35.9869 31.7585ZM28.6334 23.4337H30.9001V27.0841L28.6334 25.4068V23.4337ZM15.0337 43.8334V45.5334H7.10045V43.8334H15.0337ZM7.10045 39.8668V38.1668H15.0337V39.8668H7.10045ZM6.81712 41.0001H15.0337V42.7001H6.81712C6.3485 42.7001 5.96714 42.3187 5.96714 41.8501C5.96714 41.3815 6.3485 41.0001 6.81712 41.0001ZM15.0337 48.3667H6.81712C6.3485 48.3667 5.96714 47.9853 5.96714 47.5167C5.96714 47.048 6.3485 46.6667 6.81712 46.6667H15.0337V48.3667ZM21.8335 48.3667H16.167V46.1V45.5334V43.8334V43.2667V40.4335V39.8668V38.1668H21.8335V39.8668V40.4335V43.2667V43.8334V45.5334V46.1V48.3667ZM22.9669 39.8668V38.1668H30.3334V39.8668H22.9669ZM22.9669 45.5334V43.8334H30.3334V45.5334H22.9669ZM32.0334 47.5167C32.0334 47.9853 31.652 48.3667 31.1834 48.3667H22.9669V46.6667H31.1834C31.652 46.6667 32.0334 47.048 32.0334 47.5167ZM32.0334 41.8501C32.0334 42.3187 31.652 42.7001 31.1834 42.7001H22.9669V41.0001H31.1834C31.652 41.0001 32.0334 41.3815 32.0334 41.8501ZM32.0334 36.1835C32.0334 36.6522 31.652 37.0335 31.1834 37.0335H22.9669H15.0337H6.81712C6.3485 37.0335 5.96714 36.6522 5.96714 36.1835C5.96714 35.7149 6.3485 35.3335 6.81712 35.3335H15.6003H22.4002H31.1834C31.652 35.3335 32.0334 35.7149 32.0334 36.1835ZM21.2669 34.2002H19.5669V32.5003H21.2669V34.2002ZM21.2669 31.3669H19.5669V29.667H21.2669V31.3669ZM18.4336 31.3669H16.7336V29.667H18.4336V31.3669ZM16.7336 32.5003H18.4336V34.2002H16.7336V32.5003ZM24.6668 32.5003H30.3334V34.2002H22.4002V28.5337H15.6003V34.2002H7.10045V32.5003H13.3337C13.647 32.5003 13.9003 32.247 13.9003 31.9336C13.9003 31.6202 13.647 31.3669 13.3337 31.3669H8.3811L10.833 29.667H13.9003V28.5337H12.4678L14.9198 26.8337H22.8127L24.1704 27.8242L25.1428 28.5337H24.1007V29.667H26.696L29.0261 31.3669H24.6674C24.354 31.3669 24.1007 31.6202 24.1007 31.9336C24.1007 32.247 24.3535 32.5003 24.6668 32.5003ZM16.554 25.7004L18.9668 24.0276L21.2595 25.7004H16.554ZM34.6145 32.711C34.2224 33.1961 33.5067 33.2737 33.0205 32.8805L31.4338 31.7228L30.9488 31.3669H30.9465L28.617 29.667H28.6181L23.1816 25.7004L18.9827 22.6365L14.5645 25.7004L8.84349 29.667H8.84462L6.35756 31.3913L6.35417 31.3919L6.15357 31.533L4.95792 32.362C4.46153 32.7428 3.74867 32.6499 3.36845 32.1552C3.18372 31.9149 3.10382 31.6174 3.14292 31.3171C3.18202 31.0167 3.33615 30.7498 3.55601 30.5793L19.0173 19.7012L27.5001 25.978L28.7451 26.8994L34.4456 31.1176C34.6808 31.3074 34.8287 31.5783 34.8599 31.8792C34.8922 32.1795 34.8049 32.4753 34.6145 32.711Z" fill="#616161"/>
<path d="M17.3003 43.8333C17.6133 43.8333 17.867 43.5796 17.867 43.2666C17.867 42.9537 17.6133 42.7 17.3003 42.7C16.9873 42.7 16.7336 42.9537 16.7336 43.2666C16.7336 43.5796 16.9873 43.8333 17.3003 43.8333Z" fill="#616161"/>
<path d="M28.6334 21.7337C28.7808 21.7337 28.9281 21.6713 29.0358 21.5693C29.1378 21.4617 29.2001 21.3143 29.2001 21.167C29.2001 21.0197 29.1378 20.8718 29.0358 20.7647C28.8261 20.555 28.4408 20.555 28.2311 20.7647C28.1285 20.8718 28.0668 21.0197 28.0668 21.167C28.0668 21.3143 28.1285 21.4617 28.2311 21.5693C28.3382 21.6708 28.4861 21.7337 28.6334 21.7337Z" fill="#616161"/>
<path d="M30.9 21.7337C31.2134 21.7337 31.4667 21.4804 31.4667 21.167V18.9004C31.4667 18.587 31.2134 18.3337 30.9 18.3337C30.5867 18.3337 30.3334 18.587 30.3334 18.9004V21.167C30.3334 21.4798 30.5867 21.7337 30.9 21.7337Z" fill="#616161"/>
<path d="M30.9 17.7671C31.2134 17.7671 31.4667 17.5138 31.4667 17.2005V16.0671C31.4667 15.7538 31.2134 15.5005 30.9 15.5005C30.5867 15.5005 30.3334 15.7538 30.3334 16.0671V17.2005C30.3334 17.5133 30.5867 17.7671 30.9 17.7671Z" fill="#616161"/>
<path d="M28.6334 20.0337C28.9468 20.0337 29.2001 19.7804 29.2001 19.4671V18.3337C29.2001 18.0204 28.9468 17.7671 28.6334 17.7671C28.3201 17.7671 28.0668 18.0204 28.0668 18.3337V19.4671C28.0668 19.7799 28.3201 20.0337 28.6334 20.0337Z" fill="#616161"/>
<path d="M28.6334 17.2005C28.9468 17.2005 29.2001 16.9472 29.2001 16.6338V16.0671C29.2001 15.7538 28.9468 15.5005 28.6334 15.5005C28.3201 15.5005 28.0668 15.7538 28.0668 16.0671V16.6338C28.0668 16.9466 28.3201 17.2005 28.6334 17.2005Z" fill="#616161"/>
</g>
<path d="M7.104 58.652C7.24 58.724 7.316 58.832 7.332 58.976C7.356 59.12 7.32 59.252 7.224 59.372C7.152 59.476 7.06 59.532 6.948 59.54C6.836 59.548 6.724 59.524 6.612 59.468C6.348 59.308 6.064 59.184 5.76 59.096C5.456 59 5.136 58.952 4.8 58.952C4.328 58.952 3.896 59.036 3.504 59.204C3.112 59.364 2.772 59.592 2.484 59.888C2.196 60.184 1.972 60.536 1.812 60.944C1.652 61.352 1.572 61.804 1.572 62.3C1.572 62.828 1.656 63.3 1.824 63.716C1.992 64.132 2.22 64.488 2.508 64.784C2.804 65.072 3.144 65.292 3.528 65.444C3.92 65.596 4.344 65.672 4.8 65.672C5.128 65.672 5.444 65.628 5.748 65.54C6.052 65.452 6.34 65.324 6.612 65.156C6.724 65.1 6.836 65.08 6.948 65.096C7.06 65.112 7.156 65.168 7.236 65.264C7.332 65.392 7.368 65.528 7.344 65.672C7.32 65.808 7.244 65.908 7.116 65.972C6.916 66.092 6.688 66.204 6.432 66.308C6.176 66.404 5.908 66.48 5.628 66.536C5.356 66.592 5.08 66.62 4.8 66.62C4.224 66.62 3.68 66.52 3.168 66.32C2.656 66.12 2.204 65.832 1.812 65.456C1.42 65.08 1.108 64.628 0.876 64.1C0.652 63.564 0.54 62.964 0.54 62.3C0.54 61.676 0.648 61.104 0.864 60.584C1.08 60.064 1.38 59.612 1.764 59.228C2.156 58.844 2.608 58.544 3.12 58.328C3.64 58.112 4.2 58.004 4.8 58.004C5.216 58.004 5.62 58.06 6.012 58.172C6.412 58.284 6.776 58.444 7.104 58.652ZM13.7344 60.236C13.8704 60.236 13.9824 60.284 14.0704 60.38C14.1664 60.468 14.2144 60.58 14.2144 60.716V66.008C14.2144 66.144 14.1664 66.26 14.0704 66.356C13.9824 66.452 13.8704 66.5 13.7344 66.5C13.5904 66.5 13.4744 66.452 13.3864 66.356C13.2984 66.26 13.2544 66.144 13.2544 66.008V64.868L13.4824 64.844C13.4824 65.02 13.4224 65.212 13.3024 65.42C13.1824 65.628 13.0184 65.824 12.8104 66.008C12.6024 66.184 12.3544 66.332 12.0664 66.452C11.7864 66.564 11.4824 66.62 11.1544 66.62C10.6104 66.62 10.1224 66.48 9.69038 66.2C9.25838 65.912 8.91438 65.524 8.65838 65.036C8.41038 64.548 8.28638 63.992 8.28638 63.368C8.28638 62.736 8.41038 62.18 8.65838 61.7C8.91438 61.212 9.25838 60.832 9.69038 60.56C10.1224 60.28 10.6024 60.14 11.1304 60.14C11.4744 60.14 11.7944 60.196 12.0904 60.308C12.3864 60.42 12.6424 60.572 12.8584 60.764C13.0824 60.956 13.2544 61.168 13.3744 61.4C13.5024 61.632 13.5664 61.864 13.5664 62.096L13.2544 62.024V60.716C13.2544 60.58 13.2984 60.468 13.3864 60.38C13.4744 60.284 13.5904 60.236 13.7344 60.236ZM11.2624 65.732C11.6624 65.732 12.0144 65.628 12.3184 65.42C12.6304 65.212 12.8704 64.932 13.0384 64.58C13.2144 64.22 13.3024 63.816 13.3024 63.368C13.3024 62.928 13.2144 62.532 13.0384 62.18C12.8704 61.82 12.6304 61.54 12.3184 61.34C12.0144 61.132 11.6624 61.028 11.2624 61.028C10.8704 61.028 10.5184 61.128 10.2064 61.328C9.90238 61.528 9.66238 61.804 9.48638 62.156C9.31038 62.508 9.22238 62.912 9.22238 63.368C9.22238 63.816 9.30638 64.22 9.47438 64.58C9.65038 64.932 9.89038 65.212 10.1944 65.42C10.5064 65.628 10.8624 65.732 11.2624 65.732ZM19.0535 60.14C19.5975 60.14 20.0855 60.28 20.5175 60.56C20.9495 60.832 21.2895 61.208 21.5375 61.688C21.7935 62.168 21.9215 62.724 21.9215 63.356C21.9215 63.988 21.7935 64.548 21.5375 65.036C21.2895 65.524 20.9495 65.912 20.5175 66.2C20.0935 66.48 19.6135 66.62 19.0775 66.62C18.7815 66.62 18.5015 66.576 18.2375 66.488C17.9815 66.392 17.7455 66.268 17.5295 66.116C17.3215 65.956 17.1455 65.784 17.0015 65.6C16.8575 65.408 16.7535 65.22 16.6895 65.036L16.9535 64.868V66.068C16.9535 66.204 16.9095 66.32 16.8215 66.416C16.7335 66.512 16.6175 66.56 16.4735 66.56C16.3375 66.56 16.2215 66.516 16.1255 66.428C16.0375 66.332 15.9935 66.212 15.9935 66.068V58.112C15.9935 57.976 16.0375 57.86 16.1255 57.764C16.2215 57.668 16.3375 57.62 16.4735 57.62C16.6175 57.62 16.7335 57.668 16.8215 57.764C16.9095 57.86 16.9535 57.976 16.9535 58.112V61.808L16.7735 61.712C16.8295 61.512 16.9255 61.32 17.0615 61.136C17.2055 60.944 17.3775 60.776 17.5775 60.632C17.7855 60.48 18.0135 60.36 18.2615 60.272C18.5175 60.184 18.7815 60.14 19.0535 60.14ZM18.9455 61.028C18.5455 61.028 18.1895 61.128 17.8775 61.328C17.5735 61.528 17.3335 61.804 17.1575 62.156C16.9895 62.508 16.9055 62.908 16.9055 63.356C16.9055 63.804 16.9895 64.208 17.1575 64.568C17.3335 64.928 17.5735 65.212 17.8775 65.42C18.1895 65.628 18.5455 65.732 18.9455 65.732C19.3455 65.732 19.6975 65.628 20.0015 65.42C20.3055 65.212 20.5455 64.928 20.7215 64.568C20.8975 64.208 20.9855 63.804 20.9855 63.356C20.9855 62.908 20.8975 62.508 20.7215 62.156C20.5455 61.804 20.3055 61.528 20.0015 61.328C19.6975 61.128 19.3455 61.028 18.9455 61.028ZM24.2886 66.008C24.2886 66.144 24.2406 66.26 24.1446 66.356C24.0566 66.452 23.9446 66.5 23.8086 66.5C23.6646 66.5 23.5486 66.452 23.4606 66.356C23.3726 66.26 23.3286 66.144 23.3286 66.008V60.68C23.3286 60.544 23.3726 60.432 23.4606 60.344C23.5566 60.248 23.6726 60.2 23.8086 60.2C23.9446 60.2 24.0566 60.248 24.1446 60.344C24.2406 60.432 24.2886 60.544 24.2886 60.68V66.008ZM23.8086 59.396C23.6086 59.396 23.4606 59.356 23.3646 59.276C23.2686 59.196 23.2206 59.072 23.2206 58.904V58.736C23.2206 58.568 23.2726 58.444 23.3766 58.364C23.4806 58.284 23.6286 58.244 23.8206 58.244C24.0126 58.244 24.1566 58.284 24.2526 58.364C24.3486 58.444 24.3966 58.568 24.3966 58.736V58.904C24.3966 59.072 24.3446 59.196 24.2406 59.276C24.1446 59.356 24.0006 59.396 23.8086 59.396ZM29.097 60.14C29.641 60.14 30.069 60.252 30.381 60.476C30.693 60.7 30.913 61 31.041 61.376C31.177 61.752 31.245 62.172 31.245 62.636V66.008C31.245 66.144 31.197 66.26 31.101 66.356C31.013 66.452 30.901 66.5 30.765 66.5C30.629 66.5 30.513 66.452 30.417 66.356C30.329 66.26 30.285 66.144 30.285 66.008V62.66C30.285 62.356 30.237 62.084 30.141 61.844C30.053 61.596 29.901 61.4 29.685 61.256C29.477 61.104 29.189 61.028 28.821 61.028C28.485 61.028 28.177 61.104 27.897 61.256C27.617 61.4 27.393 61.596 27.225 61.844C27.057 62.084 26.973 62.356 26.973 62.66V66.008C26.973 66.144 26.925 66.26 26.829 66.356C26.741 66.452 26.629 66.5 26.493 66.5C26.357 66.5 26.241 66.452 26.145 66.356C26.057 66.26 26.013 66.144 26.013 66.008V60.776C26.013 60.64 26.057 60.528 26.145 60.44C26.241 60.344 26.357 60.296 26.493 60.296C26.637 60.296 26.753 60.344 26.841 60.44C26.929 60.528 26.973 60.64 26.973 60.776V61.628L26.733 61.892C26.773 61.684 26.865 61.476 27.009 61.268C27.153 61.052 27.333 60.86 27.549 60.692C27.765 60.524 28.005 60.392 28.269 60.296C28.533 60.192 28.809 60.14 29.097 60.14ZM32.6728 65.516C32.6008 65.412 32.5688 65.304 32.5768 65.192C32.5848 65.072 32.6528 64.968 32.7808 64.88C32.8608 64.824 32.9528 64.8 33.0568 64.808C33.1688 64.816 33.2688 64.868 33.3568 64.964C33.5808 65.228 33.8368 65.44 34.1248 65.6C34.4128 65.752 34.7648 65.828 35.1808 65.828C35.3728 65.82 35.5648 65.788 35.7568 65.732C35.9488 65.676 36.1088 65.58 36.2368 65.444C36.3728 65.3 36.4408 65.112 36.4408 64.88C36.4408 64.656 36.3728 64.48 36.2368 64.352C36.1008 64.216 35.9248 64.108 35.7088 64.028C35.4928 63.94 35.2568 63.864 35.0008 63.8C34.7368 63.728 34.4768 63.648 34.2208 63.56C33.9648 63.464 33.7328 63.348 33.5248 63.212C33.3248 63.068 33.1608 62.892 33.0328 62.684C32.9128 62.468 32.8528 62.208 32.8528 61.904C32.8528 61.544 32.9488 61.232 33.1408 60.968C33.3408 60.704 33.6048 60.5 33.9328 60.356C34.2688 60.212 34.6328 60.14 35.0248 60.14C35.2488 60.14 35.4808 60.168 35.7208 60.224C35.9688 60.272 36.2088 60.36 36.4408 60.488C36.6728 60.608 36.8768 60.776 37.0528 60.992C37.1248 61.072 37.1648 61.172 37.1728 61.292C37.1808 61.412 37.1288 61.52 37.0168 61.616C36.9288 61.68 36.8288 61.708 36.7168 61.7C36.6128 61.692 36.5248 61.652 36.4528 61.58C36.2848 61.38 36.0728 61.228 35.8168 61.124C35.5688 61.012 35.2928 60.956 34.9888 60.956C34.7968 60.956 34.6088 60.984 34.4248 61.04C34.2408 61.096 34.0848 61.192 33.9568 61.328C33.8368 61.456 33.7768 61.636 33.7768 61.868C33.7848 62.084 33.8568 62.26 33.9928 62.396C34.1288 62.532 34.3128 62.644 34.5448 62.732C34.7768 62.812 35.0328 62.892 35.3128 62.972C35.5688 63.036 35.8128 63.112 36.0448 63.2C36.2848 63.28 36.5008 63.388 36.6928 63.524C36.8848 63.66 37.0368 63.836 37.1488 64.052C37.2608 64.26 37.3168 64.524 37.3168 64.844C37.3168 65.212 37.2128 65.532 37.0048 65.804C36.7968 66.068 36.5208 66.272 36.1768 66.416C35.8408 66.552 35.4768 66.62 35.0848 66.62C34.6448 66.62 34.2088 66.536 33.7768 66.368C33.3528 66.2 32.9848 65.916 32.6728 65.516Z" fill="#616161"/>
<defs>
<clipPath id="clip0_8_432">
<rect width="34" height="34" fill="white" transform="translate(2 15.5)"/>
</clipPath>
</defs>
</svg>
