<svg width="61" height="84" viewBox="0 0 61 84" fill="none" xmlns="http://www.w3.org/2000/svg">
<path d="M27.8438 23.4688H29.9688C30.1096 23.4688 30.2448 23.4128 30.3444 23.3132C30.444 23.2135 30.5 23.0784 30.5 22.9375V19.75C30.5 19.6091 30.444 19.474 30.3444 19.3743C30.2448 19.2747 30.1096 19.2188 29.9688 19.2188H27.8438C27.7029 19.2188 27.5677 19.2747 27.4681 19.3743C27.3685 19.474 27.3125 19.6091 27.3125 19.75V22.9375C27.3125 23.0784 27.3685 23.2135 27.4681 23.3132C27.5677 23.4128 27.7029 23.4688 27.8438 23.4688ZM28.375 20.2812H29.4375V22.4062H28.375V20.2812Z" fill="#616161"/>
<path d="M32.0938 23.4688H34.2188C34.3596 23.4688 34.4948 23.4128 34.5944 23.3132C34.694 23.2135 34.75 23.0784 34.75 22.9375V19.75C34.75 19.6091 34.694 19.474 34.5944 19.3743C34.4948 19.2747 34.3596 19.2188 34.2188 19.2188H32.0938C31.9529 19.2188 31.8177 19.2747 31.7181 19.3743C31.6185 19.474 31.5625 19.6091 31.5625 19.75V22.9375C31.5625 23.0784 31.6185 23.2135 31.7181 23.3132C31.8177 23.4128 31.9529 23.4688 32.0938 23.4688ZM32.625 20.2812H33.6875V22.4062H32.625V20.2812Z" fill="#616161"/>
<path d="M36.3438 23.4688H38.4688C38.6096 23.4688 38.7448 23.4128 38.8444 23.3132C38.944 23.2135 39 23.0784 39 22.9375V19.75C39 19.6091 38.944 19.474 38.8444 19.3743C38.7448 19.2747 38.6096 19.2188 38.4688 19.2188H36.3438C36.2029 19.2188 36.0677 19.2747 35.9681 19.3743C35.8685 19.474 35.8125 19.6091 35.8125 19.75V22.9375C35.8125 23.0784 35.8685 23.2135 35.9681 23.3132C36.0677 23.4128 36.2029 23.4688 36.3438 23.4688ZM36.875 20.2812H37.9375V22.4062H36.875V20.2812Z" fill="#616161"/>
<path d="M27.8438 28.7812H29.9688C30.1096 28.7812 30.2448 28.7253 30.3444 28.6257C30.444 28.526 30.5 28.3909 30.5 28.25V25.0625C30.5 24.9216 30.444 24.7865 30.3444 24.6868C30.2448 24.5872 30.1096 24.5312 29.9688 24.5312H27.8438C27.7029 24.5312 27.5677 24.5872 27.4681 24.6868C27.3685 24.7865 27.3125 24.9216 27.3125 25.0625V28.25C27.3125 28.3909 27.3685 28.526 27.4681 28.6257C27.5677 28.7253 27.7029 28.7812 27.8438 28.7812ZM28.375 25.5938H29.4375V27.7188H28.375V25.5938Z" fill="#616161"/>
<path d="M32.0938 28.7812H34.2188C34.3596 28.7812 34.4948 28.7253 34.5944 28.6257C34.694 28.526 34.75 28.3909 34.75 28.25V25.0625C34.75 24.9216 34.694 24.7865 34.5944 24.6868C34.4948 24.5872 34.3596 24.5312 34.2188 24.5312H32.0938C31.9529 24.5312 31.8177 24.5872 31.7181 24.6868C31.6185 24.7865 31.5625 24.9216 31.5625 25.0625V28.25C31.5625 28.3909 31.6185 28.526 31.7181 28.6257C31.8177 28.7253 31.9529 28.7812 32.0938 28.7812ZM32.625 25.5938H33.6875V27.7188H32.625V25.5938Z" fill="#616161"/>
<path d="M36.3438 28.7812H38.4688C38.6096 28.7812 38.7448 28.7253 38.8444 28.6257C38.944 28.526 39 28.3909 39 28.25V25.0625C39 24.9216 38.944 24.7865 38.8444 24.6868C38.7448 24.5872 38.6096 24.5312 38.4688 24.5312H36.3438C36.2029 24.5312 36.0677 24.5872 35.9681 24.6868C35.8685 24.7865 35.8125 24.9216 35.8125 25.0625V28.25C35.8125 28.3909 35.8685 28.526 35.9681 28.6257C36.0677 28.7253 36.2029 28.7812 36.3438 28.7812ZM36.875 25.5938H37.9375V27.7188H36.875V25.5938Z" fill="#616161"/>
<path d="M23.5938 23.4688H25.7188C25.8596 23.4688 25.9948 23.4128 26.0944 23.3132C26.194 23.2135 26.25 23.0784 26.25 22.9375V19.75C26.25 19.6091 26.194 19.474 26.0944 19.3743C25.9948 19.2747 25.8596 19.2188 25.7188 19.2188H23.5938C23.4529 19.2188 23.3177 19.2747 23.2181 19.3743C23.1185 19.474 23.0625 19.6091 23.0625 19.75V22.9375C23.0625 23.0784 23.1185 23.2135 23.2181 23.3132C23.3177 23.4128 23.4529 23.4688 23.5938 23.4688ZM24.125 20.2812H25.1875V22.4062H24.125V20.2812Z" fill="#616161"/>
<path d="M23.5938 28.7812H25.7188C25.8596 28.7812 25.9948 28.7253 26.0944 28.6257C26.194 28.526 26.25 28.3909 26.25 28.25V25.0625C26.25 24.9216 26.194 24.7865 26.0944 24.6868C25.9948 24.5872 25.8596 24.5312 25.7188 24.5312H23.5938C23.4529 24.5312 23.3177 24.5872 23.2181 24.6868C23.1185 24.7865 23.0625 24.9216 23.0625 25.0625V28.25C23.0625 28.3909 23.1185 28.526 23.2181 28.6257C23.3177 28.7253 23.4529 28.7812 23.5938 28.7812ZM24.125 25.5938H25.1875V27.7188H24.125V25.5938Z" fill="#616161"/>
<path d="M27.8438 34.0938H29.9688C30.1096 34.0938 30.2448 34.0378 30.3444 33.9382C30.444 33.8385 30.5 33.7034 30.5 33.5625V30.375C30.5 30.2341 30.444 30.099 30.3444 29.9993C30.2448 29.8997 30.1096 29.8438 29.9688 29.8438H27.8438C27.7029 29.8438 27.5677 29.8997 27.4681 29.9993C27.3685 30.099 27.3125 30.2341 27.3125 30.375V33.5625C27.3125 33.7034 27.3685 33.8385 27.4681 33.9382C27.5677 34.0378 27.7029 34.0938 27.8438 34.0938ZM28.375 30.9062H29.4375V33.0312H28.375V30.9062Z" fill="#616161"/>
<path d="M23.5938 34.0938H25.7188C25.8596 34.0938 25.9948 34.0378 26.0944 33.9382C26.194 33.8385 26.25 33.7034 26.25 33.5625V30.375C26.25 30.2341 26.194 30.099 26.0944 29.9993C25.9948 29.8997 25.8596 29.8438 25.7188 29.8438H23.5938C23.4529 29.8438 23.3177 29.8997 23.2181 29.9993C23.1185 30.099 23.0625 30.2341 23.0625 30.375V33.5625C23.0625 33.7034 23.1185 33.8385 23.2181 33.9382C23.3177 34.0378 23.4529 34.0938 23.5938 34.0938ZM24.125 30.9062H25.1875V33.0312H24.125V30.9062Z" fill="#616161"/>
<path d="M32.0938 34.0938H34.2188C34.3596 34.0938 34.4948 34.0378 34.5944 33.9382C34.694 33.8385 34.75 33.7034 34.75 33.5625V30.375C34.75 30.2341 34.694 30.099 34.5944 29.9993C34.4948 29.8997 34.3596 29.8438 34.2188 29.8438H32.0938C31.9529 29.8438 31.8177 29.8997 31.7181 29.9993C31.6185 30.099 31.5625 30.2341 31.5625 30.375V33.5625C31.5625 33.7034 31.6185 33.8385 31.7181 33.9382C31.8177 34.0378 31.9529 34.0938 32.0938 34.0938ZM32.625 30.9062H33.6875V33.0312H32.625V30.9062Z" fill="#616161"/>
<path d="M36.3438 34.0938H38.4688C38.6096 34.0938 38.7448 34.0378 38.8444 33.9382C38.944 33.8385 39 33.7034 39 33.5625V30.375C39 30.2341 38.944 30.099 38.8444 29.9993C38.7448 29.8997 38.6096 29.8438 38.4688 29.8438H36.3438C36.2029 29.8438 36.0677 29.8997 35.9681 29.9993C35.8685 30.099 35.8125 30.2341 35.8125 30.375V33.5625C35.8125 33.7034 35.8685 33.8385 35.9681 33.9382C36.0677 34.0378 36.2029 34.0938 36.3438 34.0938ZM36.875 30.9062H37.9375V33.0312H36.875V30.9062Z" fill="#616161"/>
<path d="M27.8438 39.4062H29.9688C30.1096 39.4062 30.2448 39.3503 30.3444 39.2507C30.444 39.151 30.5 39.0159 30.5 38.875V35.6875C30.5 35.5466 30.444 35.4115 30.3444 35.3118C30.2448 35.2122 30.1096 35.1562 29.9688 35.1562H27.8438C27.7029 35.1562 27.5677 35.2122 27.4681 35.3118C27.3685 35.4115 27.3125 35.5466 27.3125 35.6875V38.875C27.3125 39.0159 27.3685 39.151 27.4681 39.2507C27.5677 39.3503 27.7029 39.4062 27.8438 39.4062ZM28.375 36.2188H29.4375V38.3438H28.375V36.2188Z" fill="#616161"/>
<path d="M23.5938 39.4062H25.7188C25.8596 39.4062 25.9948 39.3503 26.0944 39.2507C26.194 39.151 26.25 39.0159 26.25 38.875V35.6875C26.25 35.5466 26.194 35.4115 26.0944 35.3118C25.9948 35.2122 25.8596 35.1562 25.7188 35.1562H23.5938C23.4529 35.1562 23.3177 35.2122 23.2181 35.3118C23.1185 35.4115 23.0625 35.5466 23.0625 35.6875V38.875C23.0625 39.0159 23.1185 39.151 23.2181 39.2507C23.3177 39.3503 23.4529 39.4062 23.5938 39.4062ZM24.125 36.2188H25.1875V38.3438H24.125V36.2188Z" fill="#616161"/>
<path d="M32.0938 39.4062H34.2188C34.3596 39.4062 34.4948 39.3503 34.5944 39.2507C34.694 39.151 34.75 39.0159 34.75 38.875V35.6875C34.75 35.5466 34.694 35.4115 34.5944 35.3118C34.4948 35.2122 34.3596 35.1562 34.2188 35.1562H32.0938C31.9529 35.1562 31.8177 35.2122 31.7181 35.3118C31.6185 35.4115 31.5625 35.5466 31.5625 35.6875V38.875C31.5625 39.0159 31.6185 39.151 31.7181 39.2507C31.8177 39.3503 31.9529 39.4062 32.0938 39.4062ZM32.625 36.2188H33.6875V38.3438H32.625V36.2188Z" fill="#616161"/>
<path d="M36.3438 39.4062H38.4688C38.6096 39.4062 38.7448 39.3503 38.8444 39.2507C38.944 39.151 39 39.0159 39 38.875V35.6875C39 35.5466 38.944 35.4115 38.8444 35.3118C38.7448 35.2122 38.6096 35.1562 38.4688 35.1562H36.3438C36.2029 35.1562 36.0677 35.2122 35.9681 35.3118C35.8685 35.4115 35.8125 35.5466 35.8125 35.6875V38.875C35.8125 39.0159 35.8685 39.151 35.9681 39.2507C36.0677 39.3503 36.2029 39.4062 36.3438 39.4062ZM36.875 36.2188H37.9375V38.3438H36.875V36.2188Z" fill="#616161"/>
<path d="M45.9063 36.2188H41.125V17.625C41.125 17.4841 41.0691 17.349 40.9694 17.2493C40.8698 17.1497 40.7347 17.0938 40.5938 17.0938H21.4688C21.3279 17.0938 21.1928 17.1497 21.0931 17.2493C20.9935 17.349 20.9375 17.4841 20.9375 17.625V36.6884C20.4908 36.401 19.975 36.2394 19.4442 36.2205C18.9134 36.2016 18.3873 36.3261 17.9213 36.5809C17.4553 36.8358 17.0666 37.2115 16.7961 37.6686C16.5256 38.1257 16.3833 38.6472 16.3842 39.1783C16.3847 39.4734 16.4304 39.7667 16.5197 40.048C15.8644 40.2829 15.3132 40.7416 14.9632 41.3433C14.6133 41.945 14.4871 42.651 14.607 43.3367C14.7269 44.0224 15.0851 44.6437 15.6185 45.0909C16.1518 45.5382 16.826 45.7827 17.5221 45.7812C17.9705 45.7785 18.4122 45.672 18.8125 45.4699V47.375C18.8125 47.5159 18.8685 47.651 18.9681 47.7507C19.0678 47.8503 19.2029 47.9062 19.3438 47.9062C19.4847 47.9062 19.6198 47.8503 19.7194 47.7507C19.8191 47.651 19.875 47.5159 19.875 47.375V45.4699C20.2074 45.634 20.568 45.733 20.9375 45.7616V47.375C20.9375 47.5159 20.9935 47.651 21.0931 47.7507C21.1928 47.8503 21.3279 47.9062 21.4688 47.9062H44.8438C44.9847 47.9062 45.1198 47.8503 45.2194 47.7507C45.3191 47.651 45.375 47.5159 45.375 47.375V39.4062H45.9063C46.0472 39.4062 46.1823 39.3503 46.2819 39.2507C46.3816 39.151 46.4375 39.0159 46.4375 38.875V36.75C46.4375 36.6091 46.3816 36.474 46.2819 36.3743C46.1823 36.2747 46.0472 36.2188 45.9063 36.2188ZM19.3438 42.5938C19.2029 42.5938 19.0678 42.6497 18.9681 42.7493C18.8685 42.849 18.8125 42.9841 18.8125 43.125V44.1875C18.4681 44.526 18.0051 44.7166 17.5221 44.7188C17.0365 44.7206 16.5688 44.5356 16.2159 44.2019C15.863 43.8683 15.652 43.4117 15.6267 42.9267C15.6013 42.4417 15.7636 41.9656 16.0798 41.597C16.3959 41.2284 16.8418 40.9956 17.325 40.9469C17.4136 40.9374 17.4984 40.9057 17.5716 40.8549C17.6448 40.804 17.704 40.7356 17.7438 40.6559C17.7836 40.5761 17.8026 40.4877 17.7993 40.3986C17.7959 40.3096 17.7702 40.2228 17.7245 40.1463C17.5459 39.8549 17.4507 39.5201 17.4493 39.1783C17.4493 38.6752 17.6492 38.1927 18.005 37.8369C18.3608 37.4811 18.8433 37.2812 19.3464 37.2812C19.8496 37.2812 20.3321 37.4811 20.6879 37.8369C21.0437 38.1927 21.2435 38.6752 21.2435 39.1783C21.2422 39.5201 21.147 39.8549 20.9683 40.1463C20.9227 40.2228 20.8969 40.3096 20.8936 40.3986C20.8902 40.4877 20.9093 40.5761 20.9491 40.6559C20.9889 40.7356 21.0481 40.804 21.1213 40.8549C21.1944 40.9057 21.2792 40.9374 21.3678 40.9469C21.8513 40.9956 22.2974 41.2286 22.6136 41.5975C22.9299 41.9664 23.092 42.4428 23.0663 42.928C23.0406 43.4133 22.8291 43.8699 22.4756 44.2034C22.1222 44.5368 21.654 44.7213 21.1681 44.7188C20.6842 44.7173 20.2201 44.5267 19.875 44.1875V43.125C19.875 42.9841 19.8191 42.849 19.7194 42.7493C19.6198 42.6497 19.4847 42.5938 19.3438 42.5938ZM33.6875 46.8438H28.375V41.5312H33.6875V46.8438ZM40.0625 46.8438H34.75V41C34.75 40.8591 34.6941 40.724 34.5944 40.6243C34.4948 40.5247 34.3597 40.4688 34.2188 40.4688H27.8438C27.7029 40.4688 27.5678 40.5247 27.4681 40.6243C27.3685 40.724 27.3125 40.8591 27.3125 41V46.8438H22V45.6596C22.5985 45.485 23.1263 45.1254 23.5078 44.6323C23.8893 44.1392 24.1048 43.538 24.1234 42.9148C24.1421 42.2917 23.9629 41.6786 23.6116 41.1636C23.2603 40.6486 22.7549 40.258 22.1679 40.048C22.2571 39.7667 22.3028 39.4734 22.3034 39.1783C22.3029 38.7286 22.1991 38.2849 22 37.8816V18.1562H40.0625V46.8438ZM44.3125 46.8438H41.125V39.4062H44.3125V46.8438ZM45.375 38.3438H41.125V37.2812H45.375V38.3438Z" fill="#616161"/>
<path d="M3.96 59.348L1.14 66.212C1.108 66.308 1.052 66.384 0.972 66.44C0.892 66.496 0.808 66.524 0.72 66.524C0.568 66.524 0.456 66.484 0.384 66.404C0.312 66.324 0.276 66.228 0.276 66.116C0.268 66.06 0.276 66 0.3 65.936L3.408 58.376C3.448 58.264 3.508 58.184 3.588 58.136C3.676 58.08 3.772 58.056 3.876 58.064C3.98 58.064 4.072 58.092 4.152 58.148C4.24 58.204 4.3 58.28 4.332 58.376L7.428 65.864C7.452 65.928 7.464 65.992 7.464 66.056C7.464 66.2 7.416 66.316 7.32 66.404C7.224 66.484 7.116 66.524 6.996 66.524C6.9 66.524 6.812 66.496 6.732 66.44C6.652 66.384 6.592 66.304 6.552 66.2L3.696 59.336L3.96 59.348ZM1.74 64.256L2.148 63.32H5.712L5.892 64.256H1.74ZM11.6707 60.2C12.2147 60.2 12.7027 60.336 13.1347 60.608C13.5667 60.88 13.9067 61.256 14.1547 61.736C14.4107 62.216 14.5387 62.768 14.5387 63.392C14.5387 64.008 14.4107 64.56 14.1547 65.048C13.9067 65.528 13.5667 65.908 13.1347 66.188C12.7107 66.46 12.2307 66.596 11.6947 66.596C11.3987 66.596 11.1187 66.552 10.8547 66.464C10.5987 66.368 10.3627 66.248 10.1467 66.104C9.93866 65.952 9.76266 65.784 9.61866 65.6C9.47466 65.408 9.37066 65.22 9.30666 65.036L9.57066 64.868V68.408C9.57066 68.544 9.52666 68.66 9.43866 68.756C9.35066 68.852 9.23466 68.9 9.09066 68.9C8.95466 68.9 8.83866 68.852 8.74266 68.756C8.65466 68.668 8.61066 68.552 8.61066 68.408V60.74C8.61066 60.604 8.65466 60.492 8.74266 60.404C8.83866 60.308 8.95466 60.26 9.09066 60.26C9.23466 60.26 9.35066 60.308 9.43866 60.404C9.52666 60.492 9.57066 60.604 9.57066 60.74V61.808L9.39066 61.712C9.44666 61.512 9.54266 61.32 9.67866 61.136C9.82266 60.952 9.99466 60.792 10.1947 60.656C10.4027 60.512 10.6307 60.4 10.8787 60.32C11.1347 60.24 11.3987 60.2 11.6707 60.2ZM11.5627 61.088C11.1627 61.088 10.8067 61.188 10.4947 61.388C10.1907 61.588 9.95066 61.86 9.77466 62.204C9.60666 62.548 9.52266 62.944 9.52266 63.392C9.52266 63.832 9.60666 64.228 9.77466 64.58C9.95066 64.932 10.1907 65.208 10.4947 65.408C10.8067 65.608 11.1627 65.708 11.5627 65.708C11.9627 65.708 12.3147 65.608 12.6187 65.408C12.9227 65.208 13.1627 64.932 13.3387 64.58C13.5147 64.228 13.6027 63.832 13.6027 63.392C13.6027 62.944 13.5147 62.548 13.3387 62.204C13.1627 61.86 12.9227 61.588 12.6187 61.388C12.3147 61.188 11.9627 61.088 11.5627 61.088ZM21.0938 60.236C21.2298 60.236 21.3418 60.284 21.4297 60.38C21.5258 60.468 21.5738 60.58 21.5738 60.716V66.008C21.5738 66.144 21.5258 66.26 21.4297 66.356C21.3418 66.452 21.2298 66.5 21.0938 66.5C20.9498 66.5 20.8338 66.452 20.7458 66.356C20.6578 66.26 20.6138 66.144 20.6138 66.008V64.868L20.8418 64.844C20.8418 65.02 20.7818 65.212 20.6618 65.42C20.5418 65.628 20.3778 65.824 20.1698 66.008C19.9618 66.184 19.7138 66.332 19.4258 66.452C19.1458 66.564 18.8418 66.62 18.5138 66.62C17.9698 66.62 17.4818 66.48 17.0498 66.2C16.6178 65.912 16.2738 65.524 16.0178 65.036C15.7698 64.548 15.6458 63.992 15.6458 63.368C15.6458 62.736 15.7698 62.18 16.0178 61.7C16.2738 61.212 16.6178 60.832 17.0498 60.56C17.4818 60.28 17.9618 60.14 18.4898 60.14C18.8338 60.14 19.1538 60.196 19.4498 60.308C19.7458 60.42 20.0018 60.572 20.2178 60.764C20.4418 60.956 20.6138 61.168 20.7338 61.4C20.8618 61.632 20.9258 61.864 20.9258 62.096L20.6138 62.024V60.716C20.6138 60.58 20.6578 60.468 20.7458 60.38C20.8338 60.284 20.9498 60.236 21.0938 60.236ZM18.6217 65.732C19.0218 65.732 19.3738 65.628 19.6778 65.42C19.9898 65.212 20.2298 64.932 20.3978 64.58C20.5738 64.22 20.6618 63.816 20.6618 63.368C20.6618 62.928 20.5738 62.532 20.3978 62.18C20.2298 61.82 19.9898 61.54 19.6778 61.34C19.3738 61.132 19.0218 61.028 18.6217 61.028C18.2298 61.028 17.8778 61.128 17.5658 61.328C17.2618 61.528 17.0218 61.804 16.8458 62.156C16.6698 62.508 16.5818 62.912 16.5818 63.368C16.5818 63.816 16.6658 64.22 16.8338 64.58C17.0098 64.932 17.2498 65.212 17.5538 65.42C17.8658 65.628 18.2218 65.732 18.6217 65.732ZM23.8328 66.5C23.6968 66.5 23.5808 66.452 23.4848 66.356C23.3968 66.26 23.3528 66.144 23.3528 66.008V60.776C23.3528 60.64 23.3968 60.528 23.4848 60.44C23.5808 60.344 23.6968 60.296 23.8328 60.296C23.9768 60.296 24.0928 60.344 24.1808 60.44C24.2688 60.528 24.3128 60.64 24.3128 60.776V62.36L24.1688 62.108C24.2168 61.86 24.3008 61.62 24.4208 61.388C24.5488 61.148 24.7088 60.936 24.9008 60.752C25.0928 60.56 25.3128 60.412 25.5608 60.308C25.8088 60.196 26.0808 60.14 26.3768 60.14C26.5528 60.14 26.7128 60.184 26.8568 60.272C27.0088 60.352 27.0848 60.468 27.0848 60.62C27.0848 60.788 27.0408 60.912 26.9528 60.992C26.8648 61.072 26.7648 61.112 26.6528 61.112C26.5488 61.112 26.4488 61.092 26.3528 61.052C26.2568 61.004 26.1368 60.98 25.9928 60.98C25.7928 60.98 25.5928 61.036 25.3928 61.148C25.2008 61.252 25.0208 61.404 24.8528 61.604C24.6928 61.804 24.5608 62.032 24.4568 62.288C24.3608 62.536 24.3128 62.804 24.3128 63.092V66.008C24.3128 66.144 24.2648 66.26 24.1688 66.356C24.0808 66.452 23.9688 66.5 23.8328 66.5ZM27.9293 60.332H30.7493C30.8773 60.332 30.9813 60.376 31.0613 60.464C31.1493 60.552 31.1933 60.656 31.1933 60.776C31.1933 60.904 31.1493 61.012 31.0613 61.1C30.9813 61.18 30.8773 61.22 30.7493 61.22H27.9293C27.8093 61.22 27.7053 61.176 27.6173 61.088C27.5293 61 27.4853 60.892 27.4853 60.764C27.4853 60.644 27.5293 60.544 27.6173 60.464C27.7053 60.376 27.8093 60.332 27.9293 60.332ZM29.1893 58.7C29.3253 58.7 29.4373 58.748 29.5253 58.844C29.6133 58.932 29.6573 59.044 29.6573 59.18V64.976C29.6573 65.168 29.6853 65.312 29.7413 65.408C29.7973 65.504 29.8693 65.572 29.9573 65.612C30.0533 65.644 30.1453 65.66 30.2333 65.66C30.3133 65.66 30.3813 65.648 30.4373 65.624C30.5013 65.592 30.5733 65.576 30.6533 65.576C30.7333 65.576 30.8053 65.616 30.8693 65.696C30.9413 65.768 30.9773 65.864 30.9773 65.984C30.9773 66.128 30.8933 66.252 30.7253 66.356C30.5573 66.452 30.3693 66.5 30.1613 66.5C30.0493 66.5 29.9093 66.492 29.7413 66.476C29.5813 66.46 29.4213 66.408 29.2613 66.32C29.1013 66.232 28.9653 66.088 28.8533 65.888C28.7493 65.68 28.6973 65.392 28.6973 65.024V59.18C28.6973 59.044 28.7453 58.932 28.8413 58.844C28.9373 58.748 29.0533 58.7 29.1893 58.7ZM35.4926 60.2C36.0366 60.2 36.4766 60.34 36.8126 60.62C37.1566 60.892 37.3846 61.28 37.4966 61.784H37.3166L37.4006 61.568C37.4966 61.344 37.6606 61.128 37.8926 60.92C38.1246 60.712 38.3926 60.54 38.6966 60.404C39.0006 60.268 39.3166 60.2 39.6446 60.2C40.1726 60.2 40.5886 60.316 40.8926 60.548C41.1966 60.772 41.4126 61.076 41.5406 61.46C41.6766 61.836 41.7446 62.26 41.7446 62.732V66.008C41.7446 66.144 41.6966 66.26 41.6006 66.356C41.5126 66.452 41.4006 66.5 41.2646 66.5C41.1206 66.5 41.0046 66.452 40.9166 66.356C40.8286 66.26 40.7846 66.144 40.7846 66.008V62.756C40.7846 62.444 40.7366 62.164 40.6406 61.916C40.5526 61.66 40.4046 61.46 40.1966 61.316C39.9966 61.164 39.7206 61.088 39.3686 61.088C39.0406 61.088 38.7406 61.164 38.4686 61.316C38.1966 61.46 37.9806 61.66 37.8206 61.916C37.6606 62.164 37.5806 62.444 37.5806 62.756V66.008C37.5806 66.144 37.5366 66.26 37.4486 66.356C37.3606 66.452 37.2446 66.5 37.1006 66.5C36.9646 66.5 36.8486 66.452 36.7526 66.356C36.6646 66.26 36.6206 66.144 36.6206 66.008V62.72C36.6206 62.416 36.5766 62.144 36.4886 61.904C36.4086 61.656 36.2686 61.46 36.0686 61.316C35.8686 61.164 35.5926 61.088 35.2406 61.088C34.9206 61.088 34.6286 61.164 34.3646 61.316C34.1006 61.46 33.8886 61.656 33.7286 61.904C33.5686 62.144 33.4886 62.416 33.4886 62.72V66.008C33.4886 66.144 33.4406 66.26 33.3446 66.356C33.2566 66.452 33.1446 66.5 33.0086 66.5C32.8726 66.5 32.7566 66.452 32.6606 66.356C32.5726 66.26 32.5286 66.144 32.5286 66.008V60.776C32.5286 60.64 32.5726 60.528 32.6606 60.44C32.7566 60.344 32.8726 60.296 33.0086 60.296C33.1526 60.296 33.2686 60.344 33.3566 60.44C33.4446 60.528 33.4886 60.64 33.4886 60.776V61.688L33.2246 61.976C33.2566 61.768 33.3366 61.56 33.4646 61.352C33.6006 61.144 33.7726 60.952 33.9806 60.776C34.1886 60.6 34.4206 60.46 34.6766 60.356C34.9326 60.252 35.2046 60.2 35.4926 60.2ZM46.3888 66.62C45.7488 66.62 45.1888 66.484 44.7088 66.212C44.2288 65.94 43.8528 65.568 43.5808 65.096C43.3168 64.616 43.1848 64.064 43.1848 63.44C43.1848 62.744 43.3208 62.152 43.5928 61.664C43.8728 61.168 44.2328 60.792 44.6728 60.536C45.1208 60.272 45.5928 60.14 46.0888 60.14C46.4568 60.14 46.8128 60.208 47.1568 60.344C47.5008 60.48 47.8048 60.68 48.0688 60.944C48.3328 61.2 48.5448 61.512 48.7048 61.88C48.8648 62.24 48.9488 62.644 48.9568 63.092C48.9568 63.22 48.9088 63.328 48.8128 63.416C48.7168 63.504 48.6048 63.548 48.4768 63.548H43.7368L43.5208 62.72H48.1408L47.9488 62.888V62.624C47.9168 62.296 47.8048 62.016 47.6128 61.784C47.4288 61.544 47.2008 61.36 46.9288 61.232C46.6648 61.104 46.3848 61.04 46.0888 61.04C45.8488 61.04 45.6088 61.084 45.3688 61.172C45.1368 61.252 44.9248 61.388 44.7328 61.58C44.5488 61.764 44.3968 62.004 44.2768 62.3C44.1648 62.596 44.1088 62.952 44.1088 63.368C44.1088 63.832 44.2008 64.24 44.3848 64.592C44.5768 64.944 44.8408 65.224 45.1768 65.432C45.5128 65.632 45.9048 65.732 46.3528 65.732C46.6328 65.732 46.8768 65.696 47.0848 65.624C47.2928 65.552 47.4728 65.464 47.6248 65.36C47.7768 65.248 47.9048 65.136 48.0088 65.024C48.1128 64.952 48.2128 64.916 48.3088 64.916C48.4288 64.916 48.5248 64.956 48.5968 65.036C48.6768 65.116 48.7168 65.212 48.7168 65.324C48.7168 65.46 48.6528 65.58 48.5248 65.684C48.3008 65.932 47.9968 66.152 47.6128 66.344C47.2288 66.528 46.8208 66.62 46.3888 66.62ZM53.4837 60.14C54.0277 60.14 54.4557 60.252 54.7677 60.476C55.0797 60.7 55.2997 61 55.4277 61.376C55.5637 61.752 55.6317 62.172 55.6317 62.636V66.008C55.6317 66.144 55.5837 66.26 55.4877 66.356C55.3997 66.452 55.2877 66.5 55.1517 66.5C55.0157 66.5 54.8997 66.452 54.8037 66.356C54.7157 66.26 54.6717 66.144 54.6717 66.008V62.66C54.6717 62.356 54.6237 62.084 54.5277 61.844C54.4397 61.596 54.2877 61.4 54.0717 61.256C53.8637 61.104 53.5757 61.028 53.2077 61.028C52.8717 61.028 52.5637 61.104 52.2837 61.256C52.0037 61.4 51.7797 61.596 51.6117 61.844C51.4437 62.084 51.3597 62.356 51.3597 62.66V66.008C51.3597 66.144 51.3117 66.26 51.2157 66.356C51.1277 66.452 51.0157 66.5 50.8797 66.5C50.7437 66.5 50.6277 66.452 50.5317 66.356C50.4437 66.26 50.3997 66.144 50.3997 66.008V60.776C50.3997 60.64 50.4437 60.528 50.5317 60.44C50.6277 60.344 50.7437 60.296 50.8797 60.296C51.0237 60.296 51.1397 60.344 51.2277 60.44C51.3157 60.528 51.3597 60.64 51.3597 60.776V61.628L51.1197 61.892C51.1597 61.684 51.2517 61.476 51.3957 61.268C51.5397 61.052 51.7197 60.86 51.9357 60.692C52.1517 60.524 52.3917 60.392 52.6557 60.296C52.9197 60.192 53.1957 60.14 53.4837 60.14ZM57.1675 60.332H59.9875C60.1155 60.332 60.2195 60.376 60.2995 60.464C60.3875 60.552 60.4315 60.656 60.4315 60.776C60.4315 60.904 60.3875 61.012 60.2995 61.1C60.2195 61.18 60.1155 61.22 59.9875 61.22H57.1675C57.0475 61.22 56.9435 61.176 56.8555 61.088C56.7675 61 56.7235 60.892 56.7235 60.764C56.7235 60.644 56.7675 60.544 56.8555 60.464C56.9435 60.376 57.0475 60.332 57.1675 60.332ZM58.4275 58.7C58.5635 58.7 58.6755 58.748 58.7635 58.844C58.8515 58.932 58.8955 59.044 58.8955 59.18V64.976C58.8955 65.168 58.9235 65.312 58.9795 65.408C59.0355 65.504 59.1075 65.572 59.1955 65.612C59.2915 65.644 59.3835 65.66 59.4715 65.66C59.5515 65.66 59.6195 65.648 59.6755 65.624C59.7395 65.592 59.8115 65.576 59.8915 65.576C59.9715 65.576 60.0435 65.616 60.1075 65.696C60.1795 65.768 60.2155 65.864 60.2155 65.984C60.2155 66.128 60.1315 66.252 59.9635 66.356C59.7955 66.452 59.6075 66.5 59.3995 66.5C59.2875 66.5 59.1475 66.492 58.9795 66.476C58.8195 66.46 58.6595 66.408 58.4995 66.32C58.3395 66.232 58.2035 66.088 58.0915 65.888C57.9875 65.68 57.9355 65.392 57.9355 65.024V59.18C57.9355 59.044 57.9835 58.932 58.0795 58.844C58.1755 58.748 58.2915 58.7 58.4275 58.7Z" fill="#616161"/>
</svg>
