<svg width="41" height="84" viewBox="0 0 41 84" fill="none" xmlns="http://www.w3.org/2000/svg">
<g clip-path="url(#clip0_8_443)">
<path d="M31.125 45.25H29.5312L28.5006 27.1875H29C29.3461 27.1863 29.6824 27.0725 29.9581 26.8632C30.2338 26.6539 30.4339 26.3606 30.5281 26.0276C30.6223 25.6945 30.6055 25.3399 30.4803 25.0172C30.3551 24.6945 30.1283 24.4214 29.8341 24.2391L31.5659 21.6359C31.624 21.5495 31.6554 21.4479 31.6562 21.3438V16.0312C31.6562 15.8904 31.6003 15.7552 31.5007 15.6556C31.401 15.556 31.2659 15.5 31.125 15.5H28.4688C28.3279 15.5 28.1927 15.556 28.0931 15.6556C27.9935 15.7552 27.9375 15.8904 27.9375 16.0312V17.625H25.8125V16.0312C25.8125 15.8904 25.7565 15.7552 25.6569 15.6556C25.5573 15.556 25.4221 15.5 25.2812 15.5H22.0938C21.9529 15.5 21.8177 15.556 21.7181 15.6556C21.6185 15.7552 21.5625 15.8904 21.5625 16.0312V17.625H19.4375V16.0312C19.4375 15.8904 19.3815 15.7552 19.2819 15.6556C19.1823 15.556 19.0471 15.5 18.9062 15.5H15.7188C15.5779 15.5 15.4427 15.556 15.3431 15.6556C15.2435 15.7552 15.1875 15.8904 15.1875 16.0312V17.625H13.0625V16.0312C13.0625 15.8904 13.0065 15.7552 12.9069 15.6556C12.8073 15.556 12.6721 15.5 12.5312 15.5H9.875C9.7341 15.5 9.59898 15.556 9.49935 15.6556C9.39972 15.7552 9.34375 15.8904 9.34375 16.0312V21.3438C9.34299 21.4474 9.37253 21.5489 9.42875 21.6359L11.1606 24.2391C10.866 24.4216 10.639 24.6952 10.5139 25.0184C10.3888 25.3416 10.3724 25.6968 10.4673 26.0301C10.5622 26.3635 10.7632 26.6568 11.0398 26.8656C11.3163 27.0745 11.6534 27.1875 12 27.1875H12.4994L11.4953 45.25H9.875C9.17052 45.25 8.49489 45.5299 7.99675 46.028C7.4986 46.5261 7.21875 47.2018 7.21875 47.9062V48.9688C7.21875 49.1096 7.27472 49.2448 7.37435 49.3444C7.47398 49.444 7.6091 49.5 7.75 49.5H33.25C33.3909 49.5 33.526 49.444 33.6257 49.3444C33.7253 49.2448 33.7812 49.1096 33.7812 48.9688V47.9062C33.7812 47.2018 33.5014 46.5261 33.0033 46.028C32.5051 45.5299 31.8295 45.25 31.125 45.25ZM12 16.5625V18.1562C12 18.2971 12.056 18.4323 12.1556 18.5319C12.2552 18.6315 12.3904 18.6875 12.5312 18.6875H15.7188C15.8596 18.6875 15.9948 18.6315 16.0944 18.5319C16.194 18.4323 16.25 18.2971 16.25 18.1562V16.5625H18.375V18.1562C18.375 18.2971 18.431 18.4323 18.5306 18.5319C18.6302 18.6315 18.7654 18.6875 18.9062 18.6875H22.0938C22.2346 18.6875 22.3698 18.6315 22.4694 18.5319C22.569 18.4323 22.625 18.2971 22.625 18.1562V16.5625H24.75V18.1562C24.75 18.2971 24.806 18.4323 24.9056 18.5319C25.0052 18.6315 25.1404 18.6875 25.2812 18.6875H28.4688C28.6096 18.6875 28.7448 18.6315 28.8444 18.5319C28.944 18.4323 29 18.2971 29 18.1562V16.5625H30.5938V20.8125H10.4062V16.5625H12ZM30.1316 21.875L28.7131 24H12.2869L10.8684 21.875H30.1316ZM11.4688 25.5938C11.4688 25.4529 11.5247 25.3177 11.6243 25.2181C11.724 25.1185 11.8591 25.0625 12 25.0625H29C29.1409 25.0625 29.276 25.1185 29.3757 25.2181C29.4753 25.3177 29.5312 25.4529 29.5312 25.5938C29.5312 25.7346 29.4753 25.8698 29.3757 25.9694C29.276 26.069 29.1409 26.125 29 26.125H12C11.8591 26.125 11.724 26.069 11.6243 25.9694C11.5247 25.8698 11.4688 25.7346 11.4688 25.5938ZM13.3281 31.4375H17.3125C17.4534 31.4375 17.5885 31.3815 17.6882 31.2819C17.7878 31.1823 17.8438 31.0471 17.8438 30.9062C17.8438 30.7654 17.7878 30.6302 17.6882 30.5306C17.5885 30.431 17.4534 30.375 17.3125 30.375H13.3866L13.5938 27.1875H27.4594L27.9322 35.6875H23.6875C23.5466 35.6875 23.4115 35.7435 23.3118 35.8431C23.2122 35.9427 23.1562 36.0779 23.1562 36.2188C23.1562 36.3596 23.2122 36.4948 23.3118 36.5944C23.4115 36.694 23.5466 36.75 23.6875 36.75H27.9375L28.2669 42.5938H25.2812C25.1404 42.5938 25.0052 42.6497 24.9056 42.7493C24.806 42.849 24.75 42.9841 24.75 43.125C24.75 43.2659 24.806 43.401 24.9056 43.5007C25.0052 43.6003 25.1404 43.6562 25.2812 43.6562H28.3519L28.4369 45.25H23.6875V43.125C23.6875 42.2796 23.3517 41.4689 22.7539 40.8711C22.1561 40.2733 21.3454 39.9375 20.5 39.9375C19.6546 39.9375 18.8439 40.2733 18.2461 40.8711C17.6483 41.4689 17.3125 42.2796 17.3125 43.125V45.25H12.5631L13.3281 31.4375ZM22.625 45.25H18.375V43.125C18.375 42.5614 18.5989 42.0209 18.9974 41.6224C19.3959 41.2239 19.9364 41 20.5 41C21.0636 41 21.6041 41.2239 22.0026 41.6224C22.4011 42.0209 22.625 42.5614 22.625 43.125V45.25ZM32.7188 48.4375H8.28125V47.9062C8.28125 47.4836 8.44916 47.0782 8.74805 46.7793C9.04693 46.4804 9.45231 46.3125 9.875 46.3125H31.125C31.5477 46.3125 31.9531 46.4804 32.252 46.7793C32.5508 47.0782 32.7188 47.4836 32.7188 47.9062V48.4375Z" fill="#616161"/>
<path d="M14.6562 37.8125H17.8438C17.9846 37.8125 18.1198 37.7565 18.2194 37.6569C18.319 37.5573 18.375 37.4221 18.375 37.2812V35.6875C18.375 35.1239 18.1511 34.5834 17.7526 34.1849C17.3541 33.7864 16.8136 33.5625 16.25 33.5625C15.6864 33.5625 15.1459 33.7864 14.7474 34.1849C14.3489 34.5834 14.125 35.1239 14.125 35.6875V37.2812C14.125 37.4221 14.181 37.5573 14.2806 37.6569C14.3802 37.7565 14.5154 37.8125 14.6562 37.8125ZM15.1875 35.6875C15.1875 35.4057 15.2994 35.1355 15.4987 34.9362C15.698 34.7369 15.9682 34.625 16.25 34.625C16.5318 34.625 16.802 34.7369 17.0013 34.9362C17.2006 35.1355 17.3125 35.4057 17.3125 35.6875V36.75H15.1875V35.6875Z" fill="#616161"/>
<path d="M23.1562 32.5H26.3438C26.4846 32.5 26.6198 32.444 26.7194 32.3444C26.819 32.2448 26.875 32.1096 26.875 31.9688V30.375C26.875 29.8114 26.6511 29.2709 26.2526 28.8724C25.8541 28.4739 25.3136 28.25 24.75 28.25C24.1864 28.25 23.6459 28.4739 23.2474 28.8724C22.8489 29.2709 22.625 29.8114 22.625 30.375V31.9688C22.625 32.1096 22.681 32.2448 22.7806 32.3444C22.8802 32.444 23.0154 32.5 23.1562 32.5ZM23.6875 30.375C23.6875 30.0932 23.7994 29.823 23.9987 29.6237C24.198 29.4244 24.4682 29.3125 24.75 29.3125C25.0318 29.3125 25.302 29.4244 25.5013 29.6237C25.7006 29.823 25.8125 30.0932 25.8125 30.375V31.4375H23.6875V30.375Z" fill="#616161"/>
<path d="M22.0938 35.6875H21.0312C20.8904 35.6875 20.7552 35.7435 20.6556 35.8431C20.556 35.9427 20.5 36.0779 20.5 36.2188C20.5 36.3596 20.556 36.4948 20.6556 36.5944C20.7552 36.694 20.8904 36.75 21.0312 36.75H22.0938C22.2346 36.75 22.3698 36.694 22.4694 36.5944C22.569 36.4948 22.625 36.3596 22.625 36.2188C22.625 36.0779 22.569 35.9427 22.4694 35.8431C22.3698 35.7435 22.2346 35.6875 22.0938 35.6875Z" fill="#616161"/>
<path d="M17.3125 39.4062H21.5625C21.7034 39.4062 21.8385 39.3503 21.9382 39.2507C22.0378 39.151 22.0938 39.0159 22.0938 38.875C22.0938 38.7341 22.0378 38.599 21.9382 38.4993C21.8385 38.3997 21.7034 38.3438 21.5625 38.3438H17.3125C17.1716 38.3438 17.0365 38.3997 16.9368 38.4993C16.8372 38.599 16.7812 38.7341 16.7812 38.875C16.7812 39.0159 16.8372 39.151 16.9368 39.2507C17.0365 39.3503 17.1716 39.4062 17.3125 39.4062Z" fill="#616161"/>
<path d="M22.625 38.875C22.625 39.0159 22.681 39.151 22.7806 39.2507C22.8802 39.3503 23.0154 39.4062 23.1562 39.4062H24.2188C24.3596 39.4062 24.4948 39.3503 24.5944 39.2507C24.694 39.151 24.75 39.0159 24.75 38.875C24.75 38.7341 24.694 38.599 24.5944 38.4993C24.4948 38.3997 24.3596 38.3438 24.2188 38.3438H23.1562C23.0154 38.3438 22.8802 38.3997 22.7806 38.4993C22.681 38.599 22.625 38.7341 22.625 38.875Z" fill="#616161"/>
<path d="M23.6875 33.5625H19.4375C19.2966 33.5625 19.1615 33.6185 19.0618 33.7181C18.9622 33.8177 18.9062 33.9529 18.9062 34.0938C18.9062 34.2346 18.9622 34.3698 19.0618 34.4694C19.1615 34.569 19.2966 34.625 19.4375 34.625H23.6875C23.8284 34.625 23.9635 34.569 24.0632 34.4694C24.1628 34.3698 24.2188 34.2346 24.2188 34.0938C24.2188 33.9529 24.1628 33.8177 24.0632 33.7181C23.9635 33.6185 23.8284 33.5625 23.6875 33.5625Z" fill="#616161"/>
<path d="M26.3438 33.5625H25.2812C25.1404 33.5625 25.0052 33.6185 24.9056 33.7181C24.806 33.8177 24.75 33.9529 24.75 34.0938C24.75 34.2346 24.806 34.3698 24.9056 34.4694C25.0052 34.569 25.1404 34.625 25.2812 34.625H26.3438C26.4846 34.625 26.6198 34.569 26.7194 34.4694C26.819 34.3698 26.875 34.2346 26.875 34.0938C26.875 33.9529 26.819 33.8177 26.7194 33.7181C26.6198 33.6185 26.4846 33.5625 26.3438 33.5625Z" fill="#616161"/>
<path d="M18.9062 31.4375H19.9688C20.1096 31.4375 20.2448 31.3815 20.3444 31.2819C20.444 31.1823 20.5 31.0471 20.5 30.9062C20.5 30.7654 20.444 30.6302 20.3444 30.5306C20.2448 30.431 20.1096 30.375 19.9688 30.375H18.9062C18.7654 30.375 18.6302 30.431 18.5306 30.5306C18.431 30.6302 18.375 30.7654 18.375 30.9062C18.375 31.0471 18.431 31.1823 18.5306 31.2819C18.6302 31.3815 18.7654 31.4375 18.9062 31.4375Z" fill="#616161"/>
<path d="M15.7188 42.5938H14.6562C14.5154 42.5938 14.3802 42.6497 14.2806 42.7493C14.181 42.849 14.125 42.9841 14.125 43.125C14.125 43.2659 14.181 43.401 14.2806 43.5007C14.3802 43.6003 14.5154 43.6562 14.6562 43.6562H15.7188C15.8596 43.6562 15.9948 43.6003 16.0944 43.5007C16.194 43.401 16.25 43.2659 16.25 43.125C16.25 42.9841 16.194 42.849 16.0944 42.7493C15.9948 42.6497 15.8596 42.5938 15.7188 42.5938Z" fill="#616161"/>
<path d="M17.3125 28.25H16.25C16.1091 28.25 15.974 28.306 15.8743 28.4056C15.7747 28.5052 15.7188 28.6404 15.7188 28.7812C15.7188 28.9221 15.7747 29.0573 15.8743 29.1569C15.974 29.2565 16.1091 29.3125 16.25 29.3125H17.3125C17.4534 29.3125 17.5885 29.2565 17.6882 29.1569C17.7878 29.0573 17.8438 28.9221 17.8438 28.7812C17.8438 28.6404 17.7878 28.5052 17.6882 28.4056C17.5885 28.306 17.4534 28.25 17.3125 28.25Z" fill="#616161"/>
</g>
<path d="M7.104 58.652C7.24 58.724 7.316 58.832 7.332 58.976C7.356 59.12 7.32 59.252 7.224 59.372C7.152 59.476 7.06 59.532 6.948 59.54C6.836 59.548 6.724 59.524 6.612 59.468C6.348 59.308 6.064 59.184 5.76 59.096C5.456 59 5.136 58.952 4.8 58.952C4.328 58.952 3.896 59.036 3.504 59.204C3.112 59.364 2.772 59.592 2.484 59.888C2.196 60.184 1.972 60.536 1.812 60.944C1.652 61.352 1.572 61.804 1.572 62.3C1.572 62.828 1.656 63.3 1.824 63.716C1.992 64.132 2.22 64.488 2.508 64.784C2.804 65.072 3.144 65.292 3.528 65.444C3.92 65.596 4.344 65.672 4.8 65.672C5.128 65.672 5.444 65.628 5.748 65.54C6.052 65.452 6.34 65.324 6.612 65.156C6.724 65.1 6.836 65.08 6.948 65.096C7.06 65.112 7.156 65.168 7.236 65.264C7.332 65.392 7.368 65.528 7.344 65.672C7.32 65.808 7.244 65.908 7.116 65.972C6.916 66.092 6.688 66.204 6.432 66.308C6.176 66.404 5.908 66.48 5.628 66.536C5.356 66.592 5.08 66.62 4.8 66.62C4.224 66.62 3.68 66.52 3.168 66.32C2.656 66.12 2.204 65.832 1.812 65.456C1.42 65.08 1.108 64.628 0.876 64.1C0.652 63.564 0.54 62.964 0.54 62.3C0.54 61.676 0.648 61.104 0.864 60.584C1.08 60.064 1.38 59.612 1.764 59.228C2.156 58.844 2.608 58.544 3.12 58.328C3.64 58.112 4.2 58.004 4.8 58.004C5.216 58.004 5.62 58.06 6.012 58.172C6.412 58.284 6.776 58.444 7.104 58.652ZM13.7344 60.236C13.8704 60.236 13.9824 60.284 14.0704 60.38C14.1664 60.468 14.2144 60.58 14.2144 60.716V66.008C14.2144 66.144 14.1664 66.26 14.0704 66.356C13.9824 66.452 13.8704 66.5 13.7344 66.5C13.5904 66.5 13.4744 66.452 13.3864 66.356C13.2984 66.26 13.2544 66.144 13.2544 66.008V64.868L13.4824 64.844C13.4824 65.02 13.4224 65.212 13.3024 65.42C13.1824 65.628 13.0184 65.824 12.8104 66.008C12.6024 66.184 12.3544 66.332 12.0664 66.452C11.7864 66.564 11.4824 66.62 11.1544 66.62C10.6104 66.62 10.1224 66.48 9.69038 66.2C9.25838 65.912 8.91438 65.524 8.65838 65.036C8.41038 64.548 8.28638 63.992 8.28638 63.368C8.28638 62.736 8.41038 62.18 8.65838 61.7C8.91438 61.212 9.25838 60.832 9.69038 60.56C10.1224 60.28 10.6024 60.14 11.1304 60.14C11.4744 60.14 11.7944 60.196 12.0904 60.308C12.3864 60.42 12.6424 60.572 12.8584 60.764C13.0824 60.956 13.2544 61.168 13.3744 61.4C13.5024 61.632 13.5664 61.864 13.5664 62.096L13.2544 62.024V60.716C13.2544 60.58 13.2984 60.468 13.3864 60.38C13.4744 60.284 13.5904 60.236 13.7344 60.236ZM11.2624 65.732C11.6624 65.732 12.0144 65.628 12.3184 65.42C12.6304 65.212 12.8704 64.932 13.0384 64.58C13.2144 64.22 13.3024 63.816 13.3024 63.368C13.3024 62.928 13.2144 62.532 13.0384 62.18C12.8704 61.82 12.6304 61.54 12.3184 61.34C12.0144 61.132 11.6624 61.028 11.2624 61.028C10.8704 61.028 10.5184 61.128 10.2064 61.328C9.90238 61.528 9.66238 61.804 9.48638 62.156C9.31038 62.508 9.22238 62.912 9.22238 63.368C9.22238 63.816 9.30638 64.22 9.47438 64.58C9.65038 64.932 9.89038 65.212 10.1944 65.42C10.5064 65.628 10.8624 65.732 11.2624 65.732ZM15.6455 65.516C15.5735 65.412 15.5415 65.304 15.5495 65.192C15.5575 65.072 15.6255 64.968 15.7535 64.88C15.8335 64.824 15.9255 64.8 16.0295 64.808C16.1415 64.816 16.2415 64.868 16.3295 64.964C16.5535 65.228 16.8095 65.44 17.0975 65.6C17.3855 65.752 17.7375 65.828 18.1535 65.828C18.3455 65.82 18.5375 65.788 18.7295 65.732C18.9215 65.676 19.0815 65.58 19.2095 65.444C19.3455 65.3 19.4135 65.112 19.4135 64.88C19.4135 64.656 19.3455 64.48 19.2095 64.352C19.0735 64.216 18.8975 64.108 18.6815 64.028C18.4655 63.94 18.2295 63.864 17.9735 63.8C17.7095 63.728 17.4495 63.648 17.1935 63.56C16.9375 63.464 16.7055 63.348 16.4975 63.212C16.2975 63.068 16.1335 62.892 16.0055 62.684C15.8855 62.468 15.8255 62.208 15.8255 61.904C15.8255 61.544 15.9215 61.232 16.1135 60.968C16.3135 60.704 16.5775 60.5 16.9055 60.356C17.2415 60.212 17.6055 60.14 17.9975 60.14C18.2215 60.14 18.4535 60.168 18.6935 60.224C18.9415 60.272 19.1815 60.36 19.4135 60.488C19.6455 60.608 19.8495 60.776 20.0255 60.992C20.0975 61.072 20.1375 61.172 20.1455 61.292C20.1535 61.412 20.1015 61.52 19.9895 61.616C19.9015 61.68 19.8015 61.708 19.6895 61.7C19.5855 61.692 19.4975 61.652 19.4255 61.58C19.2575 61.38 19.0455 61.228 18.7895 61.124C18.5415 61.012 18.2655 60.956 17.9615 60.956C17.7695 60.956 17.5815 60.984 17.3975 61.04C17.2135 61.096 17.0575 61.192 16.9295 61.328C16.8095 61.456 16.7495 61.636 16.7495 61.868C16.7575 62.084 16.8295 62.26 16.9655 62.396C17.1015 62.532 17.2855 62.644 17.5175 62.732C17.7495 62.812 18.0055 62.892 18.2855 62.972C18.5415 63.036 18.7855 63.112 19.0175 63.2C19.2575 63.28 19.4735 63.388 19.6655 63.524C19.8575 63.66 20.0095 63.836 20.1215 64.052C20.2335 64.26 20.2895 64.524 20.2895 64.844C20.2895 65.212 20.1855 65.532 19.9775 65.804C19.7695 66.068 19.4935 66.272 19.1495 66.416C18.8135 66.552 18.4495 66.62 18.0575 66.62C17.6175 66.62 17.1815 66.536 16.7495 66.368C16.3255 66.2 15.9575 65.916 15.6455 65.516ZM21.4371 60.332H24.2571C24.3851 60.332 24.4891 60.376 24.5691 60.464C24.6571 60.552 24.7011 60.656 24.7011 60.776C24.7011 60.904 24.6571 61.012 24.5691 61.1C24.4891 61.18 24.3851 61.22 24.2571 61.22H21.4371C21.3171 61.22 21.2131 61.176 21.1251 61.088C21.0371 61 20.9931 60.892 20.9931 60.764C20.9931 60.644 21.0371 60.544 21.1251 60.464C21.2131 60.376 21.3171 60.332 21.4371 60.332ZM22.6971 58.7C22.8331 58.7 22.9451 58.748 23.0331 58.844C23.1211 58.932 23.1651 59.044 23.1651 59.18V64.976C23.1651 65.168 23.1931 65.312 23.2491 65.408C23.3051 65.504 23.3771 65.572 23.4651 65.612C23.5611 65.644 23.6531 65.66 23.7411 65.66C23.8211 65.66 23.8891 65.648 23.9451 65.624C24.0091 65.592 24.0811 65.576 24.1611 65.576C24.2411 65.576 24.3131 65.616 24.3771 65.696C24.4491 65.768 24.4851 65.864 24.4851 65.984C24.4851 66.128 24.4011 66.252 24.2331 66.356C24.0651 66.452 23.8771 66.5 23.6691 66.5C23.5571 66.5 23.4171 66.492 23.2491 66.476C23.0891 66.46 22.9291 66.408 22.7691 66.32C22.6091 66.232 22.4731 66.088 22.3611 65.888C22.2571 65.68 22.2051 65.392 22.2051 65.024V59.18C22.2051 59.044 22.2531 58.932 22.3491 58.844C22.4451 58.748 22.5611 58.7 22.6971 58.7ZM27.0924 66.008C27.0924 66.144 27.0444 66.26 26.9484 66.356C26.8524 66.452 26.7364 66.5 26.6004 66.5C26.4644 66.5 26.3524 66.452 26.2644 66.356C26.1764 66.26 26.1324 66.144 26.1324 66.008V58.1C26.1324 57.964 26.1764 57.852 26.2644 57.764C26.3604 57.668 26.4764 57.62 26.6124 57.62C26.7564 57.62 26.8724 57.668 26.9604 57.764C27.0484 57.852 27.0924 57.964 27.0924 58.1V66.008ZM31.7052 66.62C31.0652 66.62 30.5052 66.484 30.0252 66.212C29.5452 65.94 29.1692 65.568 28.8972 65.096C28.6332 64.616 28.5012 64.064 28.5012 63.44C28.5012 62.744 28.6372 62.152 28.9092 61.664C29.1892 61.168 29.5492 60.792 29.9892 60.536C30.4372 60.272 30.9092 60.14 31.4052 60.14C31.7732 60.14 32.1292 60.208 32.4732 60.344C32.8172 60.48 33.1212 60.68 33.3852 60.944C33.6492 61.2 33.8612 61.512 34.0212 61.88C34.1812 62.24 34.2652 62.644 34.2732 63.092C34.2732 63.22 34.2252 63.328 34.1292 63.416C34.0332 63.504 33.9212 63.548 33.7932 63.548H29.0532L28.8372 62.72H33.4572L33.2652 62.888V62.624C33.2332 62.296 33.1212 62.016 32.9292 61.784C32.7452 61.544 32.5172 61.36 32.2452 61.232C31.9812 61.104 31.7012 61.04 31.4052 61.04C31.1652 61.04 30.9252 61.084 30.6852 61.172C30.4532 61.252 30.2412 61.388 30.0492 61.58C29.8652 61.764 29.7132 62.004 29.5932 62.3C29.4812 62.596 29.4252 62.952 29.4252 63.368C29.4252 63.832 29.5172 64.24 29.7012 64.592C29.8932 64.944 30.1572 65.224 30.4932 65.432C30.8292 65.632 31.2212 65.732 31.6692 65.732C31.9492 65.732 32.1932 65.696 32.4012 65.624C32.6092 65.552 32.7892 65.464 32.9412 65.36C33.0932 65.248 33.2212 65.136 33.3252 65.024C33.4292 64.952 33.5292 64.916 33.6252 64.916C33.7452 64.916 33.8412 64.956 33.9132 65.036C33.9932 65.116 34.0332 65.212 34.0332 65.324C34.0332 65.46 33.9692 65.58 33.8412 65.684C33.6172 65.932 33.3132 66.152 32.9292 66.344C32.5452 66.528 32.1372 66.62 31.7052 66.62ZM35.3681 65.516C35.2961 65.412 35.2641 65.304 35.2721 65.192C35.2801 65.072 35.3481 64.968 35.4761 64.88C35.5561 64.824 35.6481 64.8 35.7521 64.808C35.8641 64.816 35.9641 64.868 36.0521 64.964C36.2761 65.228 36.5321 65.44 36.8201 65.6C37.1081 65.752 37.4601 65.828 37.8761 65.828C38.0681 65.82 38.2601 65.788 38.4521 65.732C38.6441 65.676 38.8041 65.58 38.9321 65.444C39.0681 65.3 39.1361 65.112 39.1361 64.88C39.1361 64.656 39.0681 64.48 38.9321 64.352C38.7961 64.216 38.6201 64.108 38.4041 64.028C38.1881 63.94 37.9521 63.864 37.6961 63.8C37.4321 63.728 37.1721 63.648 36.9161 63.56C36.6601 63.464 36.4281 63.348 36.2201 63.212C36.0201 63.068 35.8561 62.892 35.7281 62.684C35.6081 62.468 35.5481 62.208 35.5481 61.904C35.5481 61.544 35.6441 61.232 35.8361 60.968C36.0361 60.704 36.3001 60.5 36.6281 60.356C36.9641 60.212 37.3281 60.14 37.7201 60.14C37.9441 60.14 38.1761 60.168 38.4161 60.224C38.6641 60.272 38.9041 60.36 39.1361 60.488C39.3681 60.608 39.5721 60.776 39.7481 60.992C39.8201 61.072 39.8601 61.172 39.8681 61.292C39.8761 61.412 39.8241 61.52 39.7121 61.616C39.6241 61.68 39.5241 61.708 39.4121 61.7C39.3081 61.692 39.2201 61.652 39.1481 61.58C38.9801 61.38 38.7681 61.228 38.5121 61.124C38.2641 61.012 37.9881 60.956 37.6841 60.956C37.4921 60.956 37.3041 60.984 37.1201 61.04C36.9361 61.096 36.7801 61.192 36.6521 61.328C36.5321 61.456 36.4721 61.636 36.4721 61.868C36.4801 62.084 36.5521 62.26 36.6881 62.396C36.8241 62.532 37.0081 62.644 37.2401 62.732C37.4721 62.812 37.7281 62.892 38.0081 62.972C38.2641 63.036 38.5081 63.112 38.7401 63.2C38.9801 63.28 39.1961 63.388 39.3881 63.524C39.5801 63.66 39.7321 63.836 39.8441 64.052C39.9561 64.26 40.0121 64.524 40.0121 64.844C40.0121 65.212 39.9081 65.532 39.7001 65.804C39.4921 66.068 39.2161 66.272 38.8721 66.416C38.5361 66.552 38.1721 66.62 37.7801 66.62C37.3401 66.62 36.9041 66.536 36.4721 66.368C36.0481 66.2 35.6801 65.916 35.3681 65.516Z" fill="#616161"/>
<defs>
<clipPath id="clip0_8_443">
<rect width="34" height="34" fill="white" transform="translate(3.5 15.5)"/>
</clipPath>
</defs>
</svg>
