<svg width="51" height="84" viewBox="0 0 51 84" fill="none" xmlns="http://www.w3.org/2000/svg">
<path d="M40.7735 41.1063C40.5344 41.0531 40.2688 41.2125 40.2157 41.4781L40.1094 42.0625C38.5688 40.3891 34.1594 35.3156 31.7157 29.3922C31.636 29.2328 31.5032 29.1266 31.2907 29.1H22.5782C22.4985 28.9938 22.4188 28.8875 22.3391 28.7812V27.5063C22.7641 27.9313 23.2688 28.3031 23.8 28.5688C24.0391 28.675 24.3047 28.5953 24.4375 28.3563C24.5438 28.1172 24.4641 27.825 24.225 27.7188C23.4547 27.3203 22.8172 26.7359 22.3391 26.0453V24.9828C22.6579 25.275 23.0032 25.5141 23.375 25.7C23.6141 25.8063 23.8797 25.7 23.986 25.4875C24.0922 25.2484 24.0125 24.9828 23.7735 24.8766C23.1891 24.5844 22.6844 24.1328 22.3391 23.575V22.4328C22.525 22.5922 22.7375 22.6984 22.95 22.8047C23.1891 22.9109 23.4547 22.8313 23.5875 22.5922C23.6938 22.3531 23.6141 22.0875 23.375 21.9547C22.6844 21.5828 22.4188 21.1047 22.286 20.9453C22.1 20.6797 21.7016 20.6797 21.5157 20.9453C21.436 21.025 21.1438 21.5828 20.4266 21.9547C20.1875 22.0609 20.1079 22.3531 20.2141 22.5922C20.3204 22.8047 20.586 22.9109 20.825 22.8047C21.0375 22.6984 21.25 22.5656 21.436 22.4328V23.575C21.0641 24.1328 20.586 24.5578 20.0016 24.8766C19.7625 24.9828 19.6563 25.275 19.7891 25.4875C19.9219 25.7 20.1875 25.8328 20.4 25.7C20.7719 25.5141 21.1172 25.275 21.436 24.9828V26.0453C20.9579 26.7625 20.3204 27.3469 19.55 27.7188C19.311 27.825 19.2313 28.1172 19.3375 28.3297C19.4438 28.5422 19.736 28.6484 19.9485 28.5422C20.4797 28.2766 20.9844 27.9047 21.4094 27.4797V28.7547C21.3297 28.8609 21.25 28.9672 21.1704 29.0734H19.7094C19.4969 29.0734 19.3375 29.2063 19.2844 29.3656C18.8063 30.4812 18.3016 31.5703 17.7172 32.6328C17.186 32.2078 16.7344 31.7031 16.3625 31.1453V29.8703C16.7875 30.2953 17.2922 30.6672 17.8235 30.9328C18.0625 31.0391 18.3282 30.9594 18.461 30.7203C18.5672 30.4812 18.4875 30.1891 18.2485 30.0828C17.4782 29.6844 16.8407 29.1 16.3625 28.4094V27.3469C16.6813 27.6391 17.0266 27.8781 17.3985 28.0641C17.6375 28.1703 17.9032 28.0906 18.036 27.8516C18.1422 27.6125 18.0625 27.3203 17.8235 27.2141C17.2391 26.9219 16.7344 26.4703 16.3891 25.9391V24.7969C16.575 24.9563 16.7875 25.0625 17 25.1688C17.2391 25.275 17.5047 25.1687 17.611 24.9562C17.7172 24.7172 17.6375 24.4516 17.3985 24.3453C16.7079 23.9734 16.4422 23.4953 16.3094 23.3359C16.1235 23.0703 15.725 23.0703 15.5391 23.3359C15.4594 23.4156 15.1672 23.9734 14.45 24.3453C14.211 24.4781 14.1313 24.7438 14.2641 24.9828C14.3704 25.1953 14.636 25.275 14.875 25.1953C15.0875 25.0891 15.3 24.9562 15.486 24.8234V25.9656C15.1141 26.5234 14.636 26.9484 14.0516 27.2406C13.8125 27.3469 13.7329 27.6391 13.8391 27.8516C13.9454 28.0641 14.2375 28.1703 14.45 28.0641C14.8219 27.8781 15.1672 27.6391 15.486 27.3469V28.4094C15.0079 29.1266 14.3704 29.7109 13.6 30.0828C13.361 30.1891 13.2813 30.4812 13.3875 30.6938C13.4938 30.9062 13.786 31.0125 13.9985 30.9062C14.5297 30.6406 15.0344 30.2688 15.4594 29.8438V31.1719C14.875 32.0484 14.0782 32.7656 13.1485 33.2438C12.9094 33.35 12.8032 33.6156 12.936 33.8547C13.0422 34.0938 13.3079 34.2 13.5469 34.0672H13.5735C14.2907 33.7219 14.9282 33.2172 15.486 32.6328V36.325C14.0516 38.3703 12.5375 40.2828 10.8907 42.0625L10.7579 41.4516C10.7047 41.2125 10.4657 41.0266 10.2 41.0797C9.93442 41.1328 9.77505 41.3719 9.82817 41.6375L10.4125 44.4266C10.4657 44.6656 10.7047 44.8516 10.9704 44.7984C11.2094 44.7453 11.3954 44.5062 11.3422 44.2406L11.1297 43.1781C12.6704 41.5312 14.1047 39.8047 15.4063 37.9984V38.7687L13.175 44.1609C13.0422 44.4797 13.2813 44.7984 13.6 44.7984H37.3735C37.6922 44.7984 37.9313 44.4531 37.7985 44.1609L34.7969 36.8828C36.311 39.1141 38.011 41.2125 39.8438 43.1516L39.6313 44.2141C39.5782 44.4531 39.7375 44.7188 40.0032 44.7719C40.2422 44.825 40.5079 44.6656 40.561 44.4L41.1454 41.6109C41.1985 41.3984 41.0391 41.1594 40.7735 41.1063ZM22.8438 43.8688L22.6844 43.1516C24.5172 41.1859 26.2172 39.0875 27.7313 36.8828L24.836 43.8688H22.8438ZM31.7422 38.875L33.5485 43.8953H31.7422V38.875ZM32.486 38.2109L35.6204 41.5578L34.3454 43.3375L32.486 38.2109ZM31.7422 36.0328V31.9156L34.7969 39.3266L31.7422 36.0328ZM16.3625 32.6859C16.6282 32.9781 16.9469 33.2437 17.2657 33.4828C16.9735 33.9875 16.6813 34.4922 16.3625 34.9703V32.6859ZM20.0282 30.0562H30.5735C28.1032 35.6609 23.9594 40.4422 22.4719 42.0625L22.3391 41.4516C22.286 41.2125 22.0469 41.0266 21.7813 41.0797C21.5422 41.1328 21.3563 41.3719 21.4094 41.6375L21.8875 43.8688H14.3172L20.0282 30.0562ZM30.8125 31.9156V36.2188V43.8688H25.8719L30.8125 31.9156ZM35.1157 43.8688L36.0985 42.4875L36.6829 43.8688H35.1157Z" fill="#616161"/>
<path d="M32.3 21.0515C32.5125 20.8922 32.539 20.6 32.4062 20.414C32.3265 20.3078 32.1937 20.2281 32.0609 20.2281C30.1484 20.0953 28.5015 21.5562 28.3687 23.4687C28.2359 25.3812 29.6969 27.0281 31.6094 27.1609C32.8578 27.2406 34.0797 26.6297 34.7437 25.5672C34.8765 25.3547 34.8234 25.0625 34.6109 24.9297C34.5047 24.85 34.3453 24.85 34.239 24.8765C33.0969 25.2219 31.875 24.6109 31.5297 23.4687C31.2375 22.539 31.5562 21.5828 32.3 21.0515ZM33.15 25.8594C31.9547 26.5765 30.3875 26.2047 29.6703 25.0094C28.8734 23.6812 29.4312 21.9281 30.8656 21.3437C30.0687 22.8578 30.6265 24.7172 32.1406 25.5406C32.4328 25.6734 32.7781 25.8062 33.15 25.8594Z" fill="#616161"/>
<path d="M7.104 58.652C7.24 58.724 7.316 58.832 7.332 58.976C7.356 59.12 7.32 59.252 7.224 59.372C7.152 59.476 7.06 59.532 6.948 59.54C6.836 59.548 6.724 59.524 6.612 59.468C6.348 59.308 6.064 59.184 5.76 59.096C5.456 59 5.136 58.952 4.8 58.952C4.328 58.952 3.896 59.036 3.504 59.204C3.112 59.364 2.772 59.592 2.484 59.888C2.196 60.184 1.972 60.536 1.812 60.944C1.652 61.352 1.572 61.804 1.572 62.3C1.572 62.828 1.656 63.3 1.824 63.716C1.992 64.132 2.22 64.488 2.508 64.784C2.804 65.072 3.144 65.292 3.528 65.444C3.92 65.596 4.344 65.672 4.8 65.672C5.128 65.672 5.444 65.628 5.748 65.54C6.052 65.452 6.34 65.324 6.612 65.156C6.724 65.1 6.836 65.08 6.948 65.096C7.06 65.112 7.156 65.168 7.236 65.264C7.332 65.392 7.368 65.528 7.344 65.672C7.32 65.808 7.244 65.908 7.116 65.972C6.916 66.092 6.688 66.204 6.432 66.308C6.176 66.404 5.908 66.48 5.628 66.536C5.356 66.592 5.08 66.62 4.8 66.62C4.224 66.62 3.68 66.52 3.168 66.32C2.656 66.12 2.204 65.832 1.812 65.456C1.42 65.08 1.108 64.628 0.876 64.1C0.652 63.564 0.54 62.964 0.54 62.3C0.54 61.676 0.648 61.104 0.864 60.584C1.08 60.064 1.38 59.612 1.764 59.228C2.156 58.844 2.608 58.544 3.12 58.328C3.64 58.112 4.2 58.004 4.8 58.004C5.216 58.004 5.62 58.06 6.012 58.172C6.412 58.284 6.776 58.444 7.104 58.652ZM13.7344 60.236C13.8704 60.236 13.9824 60.284 14.0704 60.38C14.1664 60.468 14.2144 60.58 14.2144 60.716V66.008C14.2144 66.144 14.1664 66.26 14.0704 66.356C13.9824 66.452 13.8704 66.5 13.7344 66.5C13.5904 66.5 13.4744 66.452 13.3864 66.356C13.2984 66.26 13.2544 66.144 13.2544 66.008V64.868L13.4824 64.844C13.4824 65.02 13.4224 65.212 13.3024 65.42C13.1824 65.628 13.0184 65.824 12.8104 66.008C12.6024 66.184 12.3544 66.332 12.0664 66.452C11.7864 66.564 11.4824 66.62 11.1544 66.62C10.6104 66.62 10.1224 66.48 9.69038 66.2C9.25838 65.912 8.91438 65.524 8.65838 65.036C8.41038 64.548 8.28638 63.992 8.28638 63.368C8.28638 62.736 8.41038 62.18 8.65838 61.7C8.91438 61.212 9.25838 60.832 9.69038 60.56C10.1224 60.28 10.6024 60.14 11.1304 60.14C11.4744 60.14 11.7944 60.196 12.0904 60.308C12.3864 60.42 12.6424 60.572 12.8584 60.764C13.0824 60.956 13.2544 61.168 13.3744 61.4C13.5024 61.632 13.5664 61.864 13.5664 62.096L13.2544 62.024V60.716C13.2544 60.58 13.2984 60.468 13.3864 60.38C13.4744 60.284 13.5904 60.236 13.7344 60.236ZM11.2624 65.732C11.6624 65.732 12.0144 65.628 12.3184 65.42C12.6304 65.212 12.8704 64.932 13.0384 64.58C13.2144 64.22 13.3024 63.816 13.3024 63.368C13.3024 62.928 13.2144 62.532 13.0384 62.18C12.8704 61.82 12.6304 61.54 12.3184 61.34C12.0144 61.132 11.6624 61.028 11.2624 61.028C10.8704 61.028 10.5184 61.128 10.2064 61.328C9.90238 61.528 9.66238 61.804 9.48638 62.156C9.31038 62.508 9.22238 62.912 9.22238 63.368C9.22238 63.816 9.30638 64.22 9.47438 64.58C9.65038 64.932 9.89038 65.212 10.1944 65.42C10.5064 65.628 10.8624 65.732 11.2624 65.732ZM18.9575 60.2C19.5015 60.2 19.9415 60.34 20.2775 60.62C20.6215 60.892 20.8495 61.28 20.9615 61.784H20.7815L20.8655 61.568C20.9615 61.344 21.1255 61.128 21.3575 60.92C21.5895 60.712 21.8575 60.54 22.1615 60.404C22.4655 60.268 22.7815 60.2 23.1095 60.2C23.6375 60.2 24.0535 60.316 24.3575 60.548C24.6615 60.772 24.8775 61.076 25.0055 61.46C25.1415 61.836 25.2095 62.26 25.2095 62.732V66.008C25.2095 66.144 25.1615 66.26 25.0655 66.356C24.9775 66.452 24.8655 66.5 24.7295 66.5C24.5855 66.5 24.4695 66.452 24.3815 66.356C24.2935 66.26 24.2495 66.144 24.2495 66.008V62.756C24.2495 62.444 24.2015 62.164 24.1055 61.916C24.0175 61.66 23.8695 61.46 23.6615 61.316C23.4615 61.164 23.1855 61.088 22.8335 61.088C22.5055 61.088 22.2055 61.164 21.9335 61.316C21.6615 61.46 21.4455 61.66 21.2855 61.916C21.1255 62.164 21.0455 62.444 21.0455 62.756V66.008C21.0455 66.144 21.0015 66.26 20.9135 66.356C20.8255 66.452 20.7095 66.5 20.5655 66.5C20.4295 66.5 20.3135 66.452 20.2175 66.356C20.1295 66.26 20.0855 66.144 20.0855 66.008V62.72C20.0855 62.416 20.0415 62.144 19.9535 61.904C19.8735 61.656 19.7335 61.46 19.5335 61.316C19.3335 61.164 19.0575 61.088 18.7055 61.088C18.3855 61.088 18.0935 61.164 17.8295 61.316C17.5655 61.46 17.3535 61.656 17.1935 61.904C17.0335 62.144 16.9535 62.416 16.9535 62.72V66.008C16.9535 66.144 16.9055 66.26 16.8095 66.356C16.7215 66.452 16.6095 66.5 16.4735 66.5C16.3375 66.5 16.2215 66.452 16.1255 66.356C16.0375 66.26 15.9935 66.144 15.9935 66.008V60.776C15.9935 60.64 16.0375 60.528 16.1255 60.44C16.2215 60.344 16.3375 60.296 16.4735 60.296C16.6175 60.296 16.7335 60.344 16.8215 60.44C16.9095 60.528 16.9535 60.64 16.9535 60.776V61.688L16.6895 61.976C16.7215 61.768 16.8015 61.56 16.9295 61.352C17.0655 61.144 17.2375 60.952 17.4455 60.776C17.6535 60.6 17.8855 60.46 18.1415 60.356C18.3975 60.252 18.6695 60.2 18.9575 60.2ZM30.0457 60.2C30.5897 60.2 31.0777 60.336 31.5097 60.608C31.9417 60.88 32.2817 61.256 32.5297 61.736C32.7857 62.216 32.9137 62.768 32.9137 63.392C32.9137 64.008 32.7857 64.56 32.5297 65.048C32.2817 65.528 31.9417 65.908 31.5097 66.188C31.0857 66.46 30.6057 66.596 30.0697 66.596C29.7737 66.596 29.4937 66.552 29.2297 66.464C28.9737 66.368 28.7377 66.248 28.5217 66.104C28.3137 65.952 28.1377 65.784 27.9937 65.6C27.8497 65.408 27.7457 65.22 27.6817 65.036L27.9457 64.868V68.408C27.9457 68.544 27.9017 68.66 27.8137 68.756C27.7257 68.852 27.6097 68.9 27.4657 68.9C27.3297 68.9 27.2137 68.852 27.1177 68.756C27.0297 68.668 26.9857 68.552 26.9857 68.408V60.74C26.9857 60.604 27.0297 60.492 27.1177 60.404C27.2137 60.308 27.3297 60.26 27.4657 60.26C27.6097 60.26 27.7257 60.308 27.8137 60.404C27.9017 60.492 27.9457 60.604 27.9457 60.74V61.808L27.7657 61.712C27.8217 61.512 27.9177 61.32 28.0537 61.136C28.1977 60.952 28.3697 60.792 28.5697 60.656C28.7777 60.512 29.0057 60.4 29.2537 60.32C29.5097 60.24 29.7737 60.2 30.0457 60.2ZM29.9377 61.088C29.5377 61.088 29.1817 61.188 28.8697 61.388C28.5657 61.588 28.3257 61.86 28.1497 62.204C27.9817 62.548 27.8977 62.944 27.8977 63.392C27.8977 63.832 27.9817 64.228 28.1497 64.58C28.3257 64.932 28.5657 65.208 28.8697 65.408C29.1817 65.608 29.5377 65.708 29.9377 65.708C30.3377 65.708 30.6897 65.608 30.9937 65.408C31.2977 65.208 31.5377 64.932 31.7137 64.58C31.8897 64.228 31.9777 63.832 31.9777 63.392C31.9777 62.944 31.8897 62.548 31.7137 62.204C31.5377 61.86 31.2977 61.588 30.9937 61.388C30.6897 61.188 30.3377 61.088 29.9377 61.088ZM35.2808 66.008C35.2808 66.144 35.2328 66.26 35.1368 66.356C35.0488 66.452 34.9368 66.5 34.8008 66.5C34.6568 66.5 34.5408 66.452 34.4528 66.356C34.3648 66.26 34.3208 66.144 34.3208 66.008V60.68C34.3208 60.544 34.3648 60.432 34.4528 60.344C34.5488 60.248 34.6648 60.2 34.8008 60.2C34.9368 60.2 35.0488 60.248 35.1368 60.344C35.2328 60.432 35.2808 60.544 35.2808 60.68V66.008ZM34.8008 59.396C34.6008 59.396 34.4528 59.356 34.3568 59.276C34.2608 59.196 34.2128 59.072 34.2128 58.904V58.736C34.2128 58.568 34.2648 58.444 34.3688 58.364C34.4728 58.284 34.6208 58.244 34.8128 58.244C35.0048 58.244 35.1488 58.284 35.2448 58.364C35.3408 58.444 35.3888 58.568 35.3888 58.736V58.904C35.3888 59.072 35.3368 59.196 35.2327 59.276C35.1368 59.356 34.9928 59.396 34.8008 59.396ZM40.0892 60.14C40.6332 60.14 41.0612 60.252 41.3732 60.476C41.6852 60.7 41.9052 61 42.0332 61.376C42.1692 61.752 42.2372 62.172 42.2372 62.636V66.008C42.2372 66.144 42.1892 66.26 42.0932 66.356C42.0052 66.452 41.8932 66.5 41.7572 66.5C41.6212 66.5 41.5052 66.452 41.4092 66.356C41.3212 66.26 41.2772 66.144 41.2772 66.008V62.66C41.2772 62.356 41.2292 62.084 41.1332 61.844C41.0452 61.596 40.8932 61.4 40.6772 61.256C40.4692 61.104 40.1812 61.028 39.8132 61.028C39.4772 61.028 39.1692 61.104 38.8892 61.256C38.6092 61.4 38.3852 61.596 38.2172 61.844C38.0492 62.084 37.9652 62.356 37.9652 62.66V66.008C37.9652 66.144 37.9172 66.26 37.8212 66.356C37.7332 66.452 37.6212 66.5 37.4852 66.5C37.3492 66.5 37.2332 66.452 37.1372 66.356C37.0492 66.26 37.0052 66.144 37.0052 66.008V60.776C37.0052 60.64 37.0492 60.528 37.1372 60.44C37.2332 60.344 37.3492 60.296 37.4852 60.296C37.6292 60.296 37.7452 60.344 37.8332 60.44C37.9212 60.528 37.9652 60.64 37.9652 60.776V61.628L37.7252 61.892C37.7652 61.684 37.8572 61.476 38.0012 61.268C38.1452 61.052 38.3252 60.86 38.5412 60.692C38.7572 60.524 38.9972 60.392 39.2612 60.296C39.5252 60.192 39.8012 60.14 40.0892 60.14ZM46.617 60.14C46.961 60.14 47.281 60.2 47.577 60.32C47.873 60.432 48.129 60.58 48.345 60.764C48.569 60.948 48.741 61.14 48.861 61.34C48.989 61.54 49.053 61.728 49.053 61.904L48.825 61.76V60.716C48.825 60.58 48.869 60.468 48.957 60.38C49.045 60.284 49.161 60.236 49.305 60.236C49.441 60.236 49.553 60.284 49.641 60.38C49.737 60.468 49.785 60.58 49.785 60.716V65.972C49.785 66.628 49.645 67.172 49.365 67.604C49.093 68.036 48.725 68.36 48.261 68.576C47.797 68.792 47.277 68.9 46.701 68.9C46.461 68.9 46.197 68.868 45.909 68.804C45.621 68.74 45.365 68.66 45.141 68.564C44.917 68.476 44.773 68.384 44.709 68.288C44.589 68.208 44.513 68.116 44.481 68.012C44.457 67.916 44.477 67.824 44.541 67.736C44.613 67.624 44.705 67.568 44.817 67.568C44.937 67.568 45.085 67.604 45.261 67.676C45.333 67.7 45.445 67.74 45.597 67.796C45.757 67.852 45.933 67.9 46.125 67.94C46.325 67.988 46.521 68.012 46.713 68.012C47.393 68.012 47.913 67.832 48.273 67.472C48.641 67.12 48.825 66.652 48.825 66.068V64.952L48.957 65.012C48.909 65.236 48.809 65.444 48.657 65.636C48.513 65.828 48.333 66 48.117 66.152C47.909 66.296 47.677 66.412 47.421 66.5C47.165 66.58 46.905 66.62 46.641 66.62C46.081 66.62 45.577 66.48 45.129 66.2C44.681 65.92 44.325 65.536 44.061 65.048C43.805 64.56 43.677 64.004 43.677 63.38C43.677 62.748 43.805 62.188 44.061 61.7C44.325 61.212 44.677 60.832 45.117 60.56C45.565 60.28 46.065 60.14 46.617 60.14ZM46.737 61.028C46.329 61.028 45.961 61.132 45.633 61.34C45.313 61.54 45.061 61.816 44.877 62.168C44.701 62.52 44.613 62.924 44.613 63.38C44.613 63.82 44.701 64.22 44.877 64.58C45.061 64.932 45.313 65.212 45.633 65.42C45.961 65.628 46.329 65.732 46.737 65.732C47.153 65.732 47.521 65.632 47.841 65.432C48.161 65.224 48.413 64.944 48.597 64.592C48.781 64.24 48.873 63.836 48.873 63.38C48.873 62.916 48.781 62.508 48.597 62.156C48.413 61.804 48.161 61.528 47.841 61.328C47.521 61.128 47.153 61.028 46.737 61.028Z" fill="#616161"/>
</svg>
