<svg width="40" height="84" viewBox="0 0 40 84" fill="none" xmlns="http://www.w3.org/2000/svg">
<path d="M18.6028 44.7188H17.6784C17.1674 44.7173 16.6777 44.5137 16.3164 44.1524C15.955 43.791 15.7514 43.3013 15.75 42.7903V37.0847C15.7514 36.5737 15.955 36.084 16.3164 35.7226C16.6777 35.3613 17.1674 35.1577 17.6784 35.1562H18.6028C18.7586 35.1573 18.9138 35.177 19.065 35.2147C19.484 35.3162 19.8566 35.5559 20.1226 35.8952C20.3887 36.2345 20.5326 36.6535 20.5312 37.0847V42.7903C20.5298 43.3013 20.3262 43.791 19.9649 44.1524C19.6035 44.5137 19.1138 44.7173 18.6028 44.7188ZM17.6784 36.2188C17.5647 36.2188 17.4521 36.2411 17.3471 36.2847C17.242 36.3282 17.1465 36.392 17.0661 36.4724C16.9857 36.5528 16.9219 36.6482 16.8784 36.7533C16.8349 36.8584 16.8125 36.971 16.8125 37.0847V42.7903C16.8125 43.02 16.9037 43.2402 17.0661 43.4026C17.2285 43.565 17.4488 43.6562 17.6784 43.6562H18.6028C18.8325 43.6562 19.0527 43.565 19.2151 43.4026C19.3775 43.2402 19.4688 43.02 19.4688 42.7903V37.0847C19.4684 36.8913 19.4034 36.7036 19.284 36.5515C19.1646 36.3994 18.9978 36.2916 18.81 36.2453C18.7411 36.2378 18.6717 36.2378 18.6028 36.2453L17.6784 36.2188Z" fill="#616161"/>
<path d="M33.4778 44.7188H32.5534C32.0424 44.7173 31.5527 44.5137 31.1914 44.1524C30.83 43.791 30.6264 43.3013 30.625 42.7903V37.0847C30.6236 36.6535 30.7676 36.2345 31.0336 35.8952C31.2996 35.5559 31.6722 35.3162 32.0913 35.2147C32.2425 35.177 32.3976 35.1573 32.5534 35.1562H33.4778C33.9888 35.1577 34.4785 35.3613 34.8399 35.7226C35.2012 36.084 35.4049 36.5737 35.4063 37.0847V42.7903C35.4049 43.3013 35.2012 43.791 34.8399 44.1524C34.4785 44.5137 33.9888 44.7173 33.4778 44.7188ZM32.5534 36.2188C32.4846 36.2113 32.4151 36.2113 32.3463 36.2188C32.154 36.266 31.9838 36.3778 31.8639 36.5353C31.744 36.6929 31.6818 36.8868 31.6875 37.0847V42.7903C31.6875 43.02 31.7787 43.2402 31.9411 43.4026C32.1035 43.565 32.3238 43.6562 32.5534 43.6562H33.4778C33.7075 43.6562 33.9277 43.565 34.0901 43.4026C34.2525 43.2402 34.3438 43.02 34.3438 42.7903V37.0847C34.3438 36.971 34.3214 36.8584 34.2778 36.7533C34.2343 36.6482 34.1705 36.5528 34.0901 36.4724C34.0097 36.392 33.9143 36.3282 33.8092 36.2847C33.7041 36.2411 33.5915 36.2188 33.4778 36.2188H32.5534Z" fill="#616161"/>
<path d="M14.6875 42.0625H4.59375V35.6875H14.6875V42.0625ZM5.65625 41H13.625V36.75H5.65625V41Z" fill="#616161"/>
<path d="M13.625 41H14.6875V44.7188H13.625V41Z" fill="#616161"/>
<path d="M4.59375 41H5.65625V44.7188H4.59375V41Z" fill="#616161"/>
<path d="M30.0938 44.7188H21.0625C20.6398 44.7188 20.2344 44.5508 19.9355 44.252C19.6367 43.9531 19.4688 43.5477 19.4688 43.125V39.9375H31.6875V43.125C31.6875 43.5477 31.5196 43.9531 31.2207 44.252C30.9218 44.5508 30.5164 44.7188 30.0938 44.7188ZM20.5312 41V43.125C20.5312 43.2659 20.5872 43.401 20.6868 43.5007C20.7865 43.6003 20.9216 43.6562 21.0625 43.6562H30.0938C30.2346 43.6562 30.3698 43.6003 30.4694 43.5007C30.569 43.401 30.625 43.2659 30.625 43.125V41H20.5312Z" fill="#616161"/>
<path d="M31.6875 41H19.4688V39.4062C19.4688 38.7018 19.7486 38.0261 20.2467 37.528C20.7449 37.0299 21.4205 36.75 22.125 36.75H29.0312C29.7357 36.75 30.4114 37.0299 30.9095 37.528C31.4076 38.0261 31.6875 38.7018 31.6875 39.4062V41ZM20.5312 39.9375H30.625V39.4062C30.625 38.9836 30.4571 38.5782 30.1582 38.2793C29.8593 37.9804 29.4539 37.8125 29.0312 37.8125H22.125C21.7023 37.8125 21.2969 37.9804 20.998 38.2793C20.6992 38.5782 20.5312 38.9836 20.5312 39.4062V39.9375Z" fill="#616161"/>
<path d="M31.6875 39.4062H30.625C30.625 38.9836 30.4571 38.5782 30.1582 38.2793C29.8593 37.9804 29.4539 37.8125 29.0312 37.8125H22.125C21.7023 37.8125 21.2969 37.9804 20.998 38.2793C20.6992 38.5782 20.5312 38.9836 20.5312 39.4062H19.4688V37.0847C19.4684 36.8913 19.4034 36.7036 19.284 36.5515C19.1646 36.3994 18.9978 36.2916 18.81 36.2453L18.4062 36.1497V31.9688C18.4062 30.9825 18.798 30.0366 19.4954 29.3392C20.1928 28.6418 21.1387 28.25 22.125 28.25H29.0312C30.0175 28.25 30.9634 28.6418 31.6608 29.3392C32.3582 30.0366 32.75 30.9825 32.75 31.9688V36.1497L32.3463 36.2453C32.1585 36.2916 31.9916 36.3994 31.8722 36.5515C31.7528 36.7036 31.6878 36.8913 31.6875 37.0847V39.4062ZM22.125 36.75H29.0312C29.606 36.75 30.1652 36.9364 30.625 37.2812V37.0847C30.6235 36.7271 30.7223 36.3763 30.9101 36.0721C31.0979 35.7679 31.3672 35.5223 31.6875 35.3634V31.9688C31.6875 31.2643 31.4076 30.5886 30.9095 30.0905C30.4114 29.5924 29.7357 29.3125 29.0312 29.3125H22.125C21.4205 29.3125 20.7449 29.5924 20.2467 30.0905C19.7486 30.5886 19.4688 31.2643 19.4688 31.9688V35.3634C19.789 35.5223 20.0584 35.7679 20.2462 36.0721C20.434 36.3763 20.5327 36.7271 20.5312 37.0847V37.2812C20.991 36.9364 21.5503 36.75 22.125 36.75Z" fill="#616161"/>
<path d="M8.3125 38.3438H10.9688V39.4062H8.3125V38.3438Z" fill="#616161"/>
<path d="M11.3672 36.75H7.91408L6.54346 31.9688H12.7378L11.3672 36.75ZM8.71096 35.6875H10.5703L11.3247 33.0312H7.95658L8.71096 35.6875Z" fill="#616161"/>
<path d="M9.64062 33.0313C9.50498 33.0303 9.36975 33.0161 9.23687 32.9888C8.24113 32.8192 7.33677 32.3048 6.68215 31.5356C6.02753 30.7663 5.66436 29.7913 5.65625 28.7813V28.2501H6.1875C7.17602 28.2449 8.13495 28.5871 8.89688 29.2169L9.09344 29.371V29.6207C9.09015 30.2674 9.28074 30.9002 9.64062 31.4376C10.0067 30.904 10.2047 30.2731 10.2091 29.626V29.3763L10.4056 29.2222C11.1612 28.5952 12.1119 28.2514 13.0938 28.2501H13.625V28.7813C13.6288 29.8092 13.2627 30.8041 12.5936 31.5844C11.9245 32.3647 10.9971 32.8783 9.98063 33.0313C9.86757 33.0426 9.75368 33.0426 9.64062 33.0313ZM11.2609 29.8704C11.2219 30.5064 11.0403 31.1255 10.7297 31.6819C11.1987 31.4671 11.6085 31.1418 11.9241 30.7337C12.2396 30.3256 12.4514 29.8471 12.5412 29.3391C12.0796 29.4195 11.642 29.6029 11.2609 29.8757V29.8704ZM6.75063 29.3391C6.84673 29.8447 7.0609 30.3204 7.37571 30.7276C7.69052 31.1347 8.09705 31.4617 8.56219 31.6819C8.25303 31.1249 8.07157 30.5061 8.03094 29.8704C7.64895 29.6014 7.21141 29.4216 6.75063 29.3444V29.3391Z" fill="#616161"/>
<path d="M9.64049 32.9835L9.26331 32.6116C9.17299 32.516 9.08268 32.4204 8.99768 32.3194C8.31595 31.4962 7.96544 30.4485 8.01455 29.3807C8.06367 28.313 8.50888 27.3019 9.26331 26.5447L9.64049 26.1729L10.0177 26.5447C10.4173 26.942 10.734 27.4148 10.9492 27.9355C11.1645 28.4563 11.274 29.0147 11.2714 29.5782V29.6047C11.2684 30.5904 10.9229 31.5445 10.2939 32.3035C10.1983 32.4204 10.108 32.516 10.0177 32.6116L9.64049 32.9835ZM9.64049 27.7454C9.27045 28.2849 9.0724 28.9239 9.0724 29.5782C9.0724 30.2324 9.27045 30.8714 9.64049 31.411C10.0066 30.8774 10.2046 30.2465 10.2089 29.5994C10.2166 28.9374 10.0179 28.2893 9.64049 27.7454Z" fill="#616161"/>
<path d="M15.75 26.125H16.8125V38.875H15.75V26.125Z" fill="#616161"/>
<path d="M20.5843 27.1875H11.978L12.6102 20.2812H19.9521L20.5843 27.1875ZM13.1468 26.125H19.4155L18.9852 21.3438H13.5771L13.1468 26.125Z" fill="#616161"/>
<path d="M1.608 66.5C1.456 66.5 1.324 66.452 1.212 66.356C1.108 66.26 1.056 66.144 1.056 66.008V58.58C1.056 58.444 1.1 58.332 1.188 58.244C1.284 58.148 1.4 58.1 1.536 58.1H4.848C5.296 58.1 5.7 58.204 6.06 58.412C6.42 58.612 6.704 58.892 6.912 59.252C7.128 59.604 7.236 60.012 7.236 60.476C7.236 60.812 7.172 61.128 7.044 61.424C6.916 61.712 6.74 61.964 6.516 62.18C6.292 62.388 6.036 62.548 5.748 62.66L5.484 62.468C5.756 62.532 6 62.648 6.216 62.816C6.432 62.976 6.608 63.184 6.744 63.44C6.88 63.688 6.952 63.98 6.96 64.316C6.976 64.612 6.996 64.848 7.02 65.024C7.044 65.2 7.08 65.34 7.128 65.444C7.176 65.54 7.244 65.616 7.332 65.672C7.444 65.744 7.516 65.84 7.548 65.96C7.588 66.08 7.568 66.196 7.488 66.308C7.44 66.38 7.372 66.432 7.284 66.464C7.196 66.488 7.108 66.496 7.02 66.488C6.932 66.48 6.856 66.456 6.792 66.416C6.664 66.344 6.54 66.24 6.42 66.104C6.3 65.96 6.2 65.756 6.12 65.492C6.04 65.228 6 64.868 6 64.412C6 64.156 5.96 63.944 5.88 63.776C5.8 63.608 5.692 63.472 5.556 63.368C5.42 63.264 5.268 63.192 5.1 63.152C4.932 63.112 4.76 63.092 4.584 63.092H1.908L2.052 62.876V66.008C2.052 66.144 2.012 66.26 1.932 66.356C1.852 66.452 1.744 66.5 1.608 66.5ZM1.908 62.228H4.848C5.08 62.212 5.296 62.132 5.496 61.988C5.704 61.844 5.872 61.644 6 61.388C6.136 61.124 6.204 60.828 6.204 60.5C6.204 60.076 6.068 59.724 5.796 59.444C5.532 59.164 5.196 59.024 4.788 59.024H1.956L2.052 58.796V62.444L1.908 62.228ZM14.8308 63.38C14.8308 64.004 14.6908 64.56 14.4108 65.048C14.1388 65.536 13.7668 65.92 13.2948 66.2C12.8308 66.48 12.3068 66.62 11.7228 66.62C11.1388 66.62 10.6108 66.48 10.1388 66.2C9.66678 65.92 9.29078 65.536 9.01078 65.048C8.73878 64.56 8.60278 64.004 8.60278 63.38C8.60278 62.756 8.73878 62.2 9.01078 61.712C9.29078 61.224 9.66678 60.84 10.1388 60.56C10.6108 60.28 11.1388 60.14 11.7228 60.14C12.3068 60.14 12.8308 60.28 13.2948 60.56C13.7668 60.84 14.1388 61.224 14.4108 61.712C14.6908 62.2 14.8308 62.756 14.8308 63.38ZM13.8708 63.38C13.8708 62.916 13.7748 62.508 13.5828 62.156C13.3988 61.804 13.1428 61.528 12.8148 61.328C12.4948 61.128 12.1308 61.028 11.7228 61.028C11.3148 61.028 10.9468 61.128 10.6188 61.328C10.2988 61.528 10.0428 61.804 9.85078 62.156C9.65878 62.508 9.56278 62.916 9.56278 63.38C9.56278 63.836 9.65878 64.24 9.85078 64.592C10.0428 64.944 10.2988 65.224 10.6188 65.432C10.9468 65.632 11.3148 65.732 11.7228 65.732C12.1308 65.732 12.4948 65.632 12.8148 65.432C13.1428 65.224 13.3988 64.944 13.5828 64.592C13.7748 64.24 13.8708 63.836 13.8708 63.38ZM22.1667 63.38C22.1667 64.004 22.0267 64.56 21.7467 65.048C21.4747 65.536 21.1027 65.92 20.6307 66.2C20.1667 66.48 19.6427 66.62 19.0587 66.62C18.4747 66.62 17.9467 66.48 17.4747 66.2C17.0027 65.92 16.6267 65.536 16.3467 65.048C16.0747 64.56 15.9387 64.004 15.9387 63.38C15.9387 62.756 16.0747 62.2 16.3467 61.712C16.6267 61.224 17.0027 60.84 17.4747 60.56C17.9467 60.28 18.4747 60.14 19.0587 60.14C19.6427 60.14 20.1667 60.28 20.6307 60.56C21.1027 60.84 21.4747 61.224 21.7467 61.712C22.0267 62.2 22.1667 62.756 22.1667 63.38ZM21.2067 63.38C21.2067 62.916 21.1107 62.508 20.9187 62.156C20.7347 61.804 20.4787 61.528 20.1507 61.328C19.8307 61.128 19.4667 61.028 19.0587 61.028C18.6507 61.028 18.2827 61.128 17.9547 61.328C17.6347 61.528 17.3787 61.804 17.1867 62.156C16.9947 62.508 16.8987 62.916 16.8987 63.38C16.8987 63.836 16.9947 64.24 17.1867 64.592C17.3787 64.944 17.6347 65.224 17.9547 65.432C18.2827 65.632 18.6507 65.732 19.0587 65.732C19.4667 65.732 19.8307 65.632 20.1507 65.432C20.4787 65.224 20.7347 64.944 20.9187 64.592C21.1107 64.24 21.2067 63.836 21.2067 63.38ZM26.5747 60.2C27.1187 60.2 27.5587 60.34 27.8947 60.62C28.2387 60.892 28.4667 61.28 28.5787 61.784H28.3987L28.4827 61.568C28.5787 61.344 28.7427 61.128 28.9747 60.92C29.2067 60.712 29.4747 60.54 29.7787 60.404C30.0827 60.268 30.3987 60.2 30.7267 60.2C31.2547 60.2 31.6707 60.316 31.9747 60.548C32.2787 60.772 32.4947 61.076 32.6227 61.46C32.7587 61.836 32.8267 62.26 32.8267 62.732V66.008C32.8267 66.144 32.7787 66.26 32.6827 66.356C32.5947 66.452 32.4827 66.5 32.3467 66.5C32.2027 66.5 32.0867 66.452 31.9987 66.356C31.9107 66.26 31.8667 66.144 31.8667 66.008V62.756C31.8667 62.444 31.8187 62.164 31.7227 61.916C31.6347 61.66 31.4867 61.46 31.2787 61.316C31.0787 61.164 30.8027 61.088 30.4507 61.088C30.1227 61.088 29.8227 61.164 29.5507 61.316C29.2787 61.46 29.0627 61.66 28.9027 61.916C28.7427 62.164 28.6627 62.444 28.6627 62.756V66.008C28.6627 66.144 28.6187 66.26 28.5307 66.356C28.4427 66.452 28.3267 66.5 28.1827 66.5C28.0467 66.5 27.9307 66.452 27.8347 66.356C27.7467 66.26 27.7027 66.144 27.7027 66.008V62.72C27.7027 62.416 27.6587 62.144 27.5707 61.904C27.4907 61.656 27.3507 61.46 27.1507 61.316C26.9507 61.164 26.6747 61.088 26.3227 61.088C26.0027 61.088 25.7107 61.164 25.4467 61.316C25.1827 61.46 24.9707 61.656 24.8107 61.904C24.6507 62.144 24.5707 62.416 24.5707 62.72V66.008C24.5707 66.144 24.5227 66.26 24.4267 66.356C24.3387 66.452 24.2267 66.5 24.0907 66.5C23.9547 66.5 23.8387 66.452 23.7427 66.356C23.6547 66.26 23.6107 66.144 23.6107 66.008V60.776C23.6107 60.64 23.6547 60.528 23.7427 60.44C23.8387 60.344 23.9547 60.296 24.0907 60.296C24.2347 60.296 24.3507 60.344 24.4387 60.44C24.5267 60.528 24.5707 60.64 24.5707 60.776V61.688L24.3067 61.976C24.3387 61.768 24.4187 61.56 24.5467 61.352C24.6827 61.144 24.8547 60.952 25.0627 60.776C25.2707 60.6 25.5027 60.46 25.7587 60.356C26.0147 60.252 26.2867 60.2 26.5747 60.2ZM34.2548 65.516C34.1828 65.412 34.1508 65.304 34.1588 65.192C34.1668 65.072 34.2348 64.968 34.3628 64.88C34.4428 64.824 34.5348 64.8 34.6388 64.808C34.7508 64.816 34.8508 64.868 34.9388 64.964C35.1628 65.228 35.4188 65.44 35.7068 65.6C35.9948 65.752 36.3468 65.828 36.7628 65.828C36.9548 65.82 37.1468 65.788 37.3388 65.732C37.5308 65.676 37.6908 65.58 37.8188 65.444C37.9548 65.3 38.0228 65.112 38.0228 64.88C38.0228 64.656 37.9548 64.48 37.8188 64.352C37.6828 64.216 37.5068 64.108 37.2908 64.028C37.0748 63.94 36.8388 63.864 36.5828 63.8C36.3188 63.728 36.0588 63.648 35.8028 63.56C35.5468 63.464 35.3148 63.348 35.1068 63.212C34.9068 63.068 34.7428 62.892 34.6148 62.684C34.4948 62.468 34.4348 62.208 34.4348 61.904C34.4348 61.544 34.5308 61.232 34.7228 60.968C34.9228 60.704 35.1868 60.5 35.5148 60.356C35.8508 60.212 36.2148 60.14 36.6068 60.14C36.8308 60.14 37.0628 60.168 37.3028 60.224C37.5508 60.272 37.7908 60.36 38.0228 60.488C38.2548 60.608 38.4588 60.776 38.6348 60.992C38.7068 61.072 38.7468 61.172 38.7548 61.292C38.7628 61.412 38.7108 61.52 38.5988 61.616C38.5108 61.68 38.4108 61.708 38.2988 61.7C38.1948 61.692 38.1068 61.652 38.0348 61.58C37.8668 61.38 37.6548 61.228 37.3988 61.124C37.1508 61.012 36.8748 60.956 36.5708 60.956C36.3788 60.956 36.1908 60.984 36.0068 61.04C35.8228 61.096 35.6668 61.192 35.5388 61.328C35.4188 61.456 35.3588 61.636 35.3588 61.868C35.3668 62.084 35.4388 62.26 35.5748 62.396C35.7108 62.532 35.8948 62.644 36.1268 62.732C36.3588 62.812 36.6148 62.892 36.8948 62.972C37.1508 63.036 37.3948 63.112 37.6268 63.2C37.8668 63.28 38.0828 63.388 38.2748 63.524C38.4668 63.66 38.6188 63.836 38.7308 64.052C38.8428 64.26 38.8988 64.524 38.8988 64.844C38.8988 65.212 38.7948 65.532 38.5868 65.804C38.3788 66.068 38.1028 66.272 37.7588 66.416C37.4228 66.552 37.0588 66.62 36.6668 66.62C36.2268 66.62 35.7908 66.536 35.3588 66.368C34.9348 66.2 34.5668 65.916 34.2548 65.516Z" fill="#616161"/>
</svg>
