<svg width="46" height="84" viewBox="0 0 46 84" fill="none" xmlns="http://www.w3.org/2000/svg">
<g clip-path="url(#clip0_8_322)">
<path d="M28.9694 24.1979C28.5734 24.1979 28.1469 24.271 27.8072 24.39C27.0886 22.7315 25.8383 21.5991 24.0856 21.0224C21.6736 20.2287 19.8508 20.5706 18.6861 21.0512C20.4372 19.1876 22.6523 19.2405 23.9942 19.5091C24.3318 19.5766 24.6671 19.4463 24.87 19.169C25.0735 18.8909 25.096 18.5303 24.929 18.2282C24.423 17.313 23.514 16.1342 22.0574 15.7164C20.909 15.3872 19.6407 15.6012 18.2876 16.3529C16.6446 17.2657 15.8096 18.7351 15.8729 20.6022C15.8754 20.6762 15.8795 20.7491 15.8846 20.8214C15.3381 20.3982 14.6097 20.0013 13.6466 19.7516C13.3801 19.6824 13.1085 19.8424 13.0394 20.1087C12.9703 20.375 13.1302 20.6468 13.3965 20.7159C14.6077 21.0299 15.3652 21.6068 15.8211 22.1086C14.1193 21.8932 12.3769 22.4891 10.6255 23.8897C9.02215 25.1718 7.76676 26.8705 7.07329 27.923C6.81515 25.8032 7.18008 24.0877 8.15986 22.8203C8.92406 21.8319 9.80402 21.4921 9.81046 21.4896C9.97583 21.4293 10.0971 21.286 10.1293 21.1129C10.1615 20.9397 10.0999 20.7624 9.96732 20.6466L9.90384 20.5911C10.4052 20.5241 10.8921 20.4883 11.3534 20.4848C11.6286 20.4826 11.8498 20.2579 11.8476 19.9828C11.8455 19.7077 11.6214 19.4842 11.3457 19.4886C10.7922 19.4928 10.2071 19.5394 9.60684 19.6268C9.24476 19.6795 8.95561 19.9302 8.8522 20.2812C8.79456 20.4771 8.80239 20.6781 8.86861 20.8593C8.46681 21.105 7.92084 21.5167 7.41305 22.1583C6.56438 23.2304 5.65334 25.1834 6.13257 28.3989C6.18662 28.7619 6.45393 29.0459 6.81335 29.1222C6.87565 29.1354 6.93788 29.1419 6.99931 29.1419C7.29404 29.1419 7.56972 28.9937 7.73356 28.7362C8.34143 27.7801 9.60638 25.9803 11.2476 24.6678C12.602 23.5847 13.9317 23.0504 15.2182 23.0684C14.5466 23.4277 13.7195 23.9538 12.8823 24.6945C11.1231 26.2514 8.99034 29.0891 8.82059 33.7668C8.80883 34.0912 8.97646 34.3933 9.25798 34.5553C9.39353 34.6333 9.54388 34.6721 9.69397 34.6721C9.85562 34.6721 10.0169 34.6271 10.1592 34.5374C10.8349 34.1115 12.0742 33.1639 13.2675 31.3839C13.4097 31.5518 13.6092 31.6593 13.8334 31.6851C14.1104 31.7166 14.3787 31.6183 14.5694 31.4149C14.774 31.1965 15.0615 30.8667 15.3764 30.4377C15.0628 35.1317 15.0597 42.4346 17.0947 49.0809C17.1603 49.2953 17.3576 49.4333 17.5708 49.4333C17.6191 49.4333 17.6682 49.4263 17.7167 49.4113C17.9798 49.3309 18.1277 49.0523 18.0472 48.7893C17.799 47.9788 17.5821 47.1579 17.3926 46.333H17.9305C18.2056 46.333 18.4285 46.11 18.4285 45.8349C18.4285 45.5597 18.2056 45.3368 17.9305 45.3368H17.1777C16.821 43.5763 16.5838 41.8085 16.4347 40.0934H17.4404C17.7155 40.0934 17.9385 39.8704 17.9385 39.5953C17.9385 39.3201 17.7155 39.0972 17.4404 39.0972H16.3573C16.3111 38.4214 16.2777 37.756 16.2555 37.1046H16.9119C17.187 37.1046 17.41 36.8817 17.41 36.6065C17.41 36.3314 17.187 36.1084 16.9119 36.1084H16.2296C16.176 33.1039 16.3465 30.3766 16.5277 28.496C16.6544 28.2234 16.7747 27.9361 16.8841 27.634C17.0606 28.1233 17.2655 28.5754 17.4828 28.9875C17.5385 30.4538 17.6342 31.8534 17.7623 33.1866H17.2481C16.9729 33.1866 16.75 33.4096 16.75 33.6847C16.75 33.9599 16.9729 34.1828 17.2481 34.1828H17.8655C18.1774 36.9978 18.632 39.5016 19.1524 41.6951H17.9304C17.6552 41.6951 17.4323 41.9181 17.4323 42.1932C17.4323 42.4684 17.6552 42.6913 17.9304 42.6913H19.3984C20.0743 45.3231 20.8344 47.4674 21.5256 49.1267C21.6052 49.318 21.7904 49.4334 21.9856 49.4334C22.0494 49.4334 22.1143 49.421 22.1769 49.3949C22.4309 49.2892 22.5509 48.9976 22.4451 48.7436C20.9311 45.109 19.0798 39.0967 18.563 30.6599C18.8019 30.9674 19.0237 31.2202 19.2061 31.4149C19.3968 31.6183 19.665 31.7169 19.942 31.6851C20.1663 31.6594 20.3657 31.552 20.5079 31.3841C20.942 32.0323 21.416 32.6202 21.9228 33.1411C21.6757 34.234 21.6871 35.2908 21.7377 35.9698C21.7636 36.3164 22.008 36.6037 22.346 36.685C22.4086 36.7 22.4715 36.7073 22.5337 36.7073C22.8073 36.7073 23.066 36.5661 23.2131 36.3239C23.9137 35.1704 25.6394 32.8242 28.5232 31.8707C28.3434 32.0081 28.1607 32.1571 27.9775 32.3192C26.5623 33.5714 24.8469 35.8532 24.7105 39.6123C24.6998 39.9081 24.8527 40.1837 25.1095 40.3316C25.2331 40.4027 25.3703 40.4382 25.5073 40.4382C25.6548 40.4382 25.802 40.3971 25.9318 40.3152C26.4637 39.9798 27.4284 39.2443 28.3673 37.877C28.486 37.977 28.6331 38.042 28.7903 38.0599C29.039 38.0886 29.2903 37.9964 29.4618 37.8134C29.5553 37.7135 29.6624 37.5935 29.7771 37.4563C29.7172 38.3543 29.6373 39.2411 29.5376 40.107C29.5061 40.3802 29.7022 40.6272 29.9755 40.6588C29.9948 40.661 30.014 40.6621 30.0331 40.6621C30.2827 40.6621 30.4981 40.4749 30.5273 40.2209C30.6907 38.801 30.8023 37.327 30.8595 35.8381C30.9928 35.5836 31.1201 35.3106 31.2358 35.0196C31.2922 35.1613 31.3512 35.2987 31.4124 35.4316C31.5381 36.718 31.6676 38.5792 31.6601 40.7366H31.5069C31.2318 40.7366 31.0088 40.9595 31.0088 41.2346C31.0088 41.5098 31.2318 41.7327 31.5069 41.7327H31.6468C31.6389 42.0721 31.6275 42.4172 31.6118 42.7672H31.1707C30.8956 42.7672 30.6726 42.9902 30.6726 43.2653C30.6726 43.5405 30.8956 43.7634 31.1707 43.7634H31.5564C31.4475 45.4027 31.2428 47.1245 30.895 48.836C30.8402 49.1055 31.0143 49.3685 31.2839 49.4232C31.3174 49.4301 31.3507 49.4333 31.3836 49.4333C31.6155 49.4333 31.8232 49.2704 31.8712 49.0343C32.7522 44.6982 32.7387 40.3089 32.5576 37.2936C32.7299 37.5113 32.8844 37.6859 33.0038 37.8134C33.1752 37.9964 33.4264 38.0887 33.6753 38.0599C33.8325 38.042 33.9796 37.977 34.0983 37.877C35.0372 39.2443 36.0019 39.9798 36.5338 40.3151C36.6636 40.397 36.8108 40.4382 36.9583 40.4382C37.0953 40.4381 37.2325 40.4027 37.3561 40.3316C37.6129 40.1837 37.7658 39.9081 37.7551 39.6123C37.6187 35.8531 35.9032 33.5714 34.4881 32.3192C33.9638 31.8553 33.4439 31.496 32.9839 31.2229C33.8533 31.3148 34.748 31.7254 35.6585 32.4535C36.9532 33.489 37.9525 34.9112 38.433 35.6669C38.5824 35.9017 38.8336 36.0368 39.1024 36.0368C39.1584 36.0368 39.2152 36.0309 39.2719 36.0188C39.5999 35.9491 39.8439 35.6899 39.8933 35.3584C40.2801 32.7633 39.5412 31.1826 38.8533 30.3136C38.4306 29.7796 37.9736 29.4403 37.6427 29.2412C37.6538 29.123 37.6419 29.0012 37.6054 28.8812C37.4981 28.5284 37.2043 28.2802 36.8387 28.2335C35.0307 28.0026 33.7364 28.2776 32.8244 28.7103C32.9928 27.5622 32.6327 26.496 31.7613 25.5914C30.8875 24.6841 29.9481 24.2152 28.9694 24.1979ZM28.4764 27.3893C29.2223 27.7919 29.9381 28.4659 30.3717 29.5866C30.2869 29.536 30.1975 29.486 30.1038 29.4374C29.6885 29.2222 29.1435 29.0144 28.4725 28.9085C28.5048 28.3879 28.5056 27.8801 28.4764 27.3893ZM28.9519 25.1939C29.6563 25.2064 30.3603 25.5726 31.0441 26.2825C32.2281 27.5116 31.9043 28.8457 31.4659 29.7055C30.6425 26.9248 28.4478 26.1288 27.1369 25.9042C27.6035 25.5285 28.231 25.1833 28.9519 25.1939ZM23.7744 21.9687C25.2595 22.4574 26.314 23.4222 26.9137 24.8362C26.6077 25.0363 26.3433 25.2596 26.1265 25.4692C25.9002 25.6881 25.8236 26.0086 25.9269 26.3055C26.0299 26.6016 26.2879 26.805 26.6002 26.8361C26.8534 26.8613 27.1407 26.9071 27.4436 26.9865C27.5059 27.573 27.5181 28.1931 27.4787 28.8366C27.4018 28.8373 27.3236 28.8394 27.2443 28.843C25.8896 26.6452 23.0047 23.1481 18.1096 22.4886C19.0927 21.8208 20.9728 21.047 23.7744 21.9687ZM18.7715 17.2238C19.5623 16.7844 20.3025 16.5638 20.9821 16.5638C21.2592 16.5638 21.5264 16.6005 21.7827 16.674C22.8004 16.966 23.4952 17.7775 23.9261 18.4844C22.3247 18.2219 19.0976 18.2066 17.0063 21.629C16.7196 20.4057 16.6544 18.3999 18.7715 17.2238ZM13.955 30.6111L13.7078 30.184C13.6192 30.0306 13.4557 29.936 13.2787 29.9353C13.278 29.9353 13.2774 29.9353 13.2768 29.9353C13.1004 29.9353 12.9372 30.0286 12.8476 30.1805C11.7455 32.0512 10.5476 33.0715 9.82653 33.5641C9.99947 30.2182 11.2381 27.4957 13.5101 25.4692C14.5825 24.5128 15.6516 23.939 16.3218 23.637C16.274 24.3234 16.3008 24.975 16.3827 25.5888C16.0097 28.0604 14.6405 29.8497 13.955 30.6111ZM20.9278 30.1806C20.838 30.028 20.6734 29.9339 20.4967 29.9353C20.3197 29.936 20.1562 30.0307 20.0676 30.1839L19.8203 30.6112C18.8675 29.556 17.0357 27.0437 17.3252 23.5791C18.1053 23.916 19.5719 24.6806 20.9262 26.1106C21.1154 26.3104 21.4307 26.3187 21.6304 26.1297C21.8302 25.9406 21.8387 25.6253 21.6495 25.4255C21.0844 24.8288 20.5032 24.3395 19.952 23.9408C23.0312 24.9885 25.0304 27.2803 26.1498 28.9791C25.9545 29.0184 25.7538 29.0663 25.5474 29.1244C25.0444 29.2656 24.6063 29.4593 24.2239 29.6923C23.9254 28.8273 23.5368 28.0078 23.063 27.2511C22.9169 27.0179 22.6095 26.9475 22.3764 27.0933C22.1433 27.2394 22.0727 27.5467 22.2187 27.7799C22.7112 28.5663 23.1036 29.428 23.3889 30.3421C22.88 30.8425 22.5189 31.4309 22.2658 32.0448C21.7814 31.4921 21.3328 30.8679 20.9278 30.1806ZM22.7031 35.2764C22.6749 33.4399 23.1369 30.8361 25.8168 30.0835C26.4589 29.9031 27.0347 29.8296 27.5468 29.8296C28.656 29.8296 29.4659 30.1744 30.0024 30.5244C26.1758 30.9805 23.8076 33.6527 22.7031 35.2764ZM28.9162 36.9313L28.79 36.7133C28.7013 36.56 28.538 36.4654 28.3608 36.4647C28.3602 36.4647 28.3595 36.4647 28.3589 36.4647C28.1826 36.4647 28.0194 36.5579 27.9298 36.7099C27.1448 38.0422 26.3 38.8252 25.7271 39.2485C25.9033 36.7135 26.8706 34.6443 28.6057 33.0936C29.4361 32.3515 30.2649 31.901 30.7938 31.6598C30.9528 34.1968 29.6698 36.065 28.9162 36.9313ZM36.7386 39.2485C36.1658 38.8251 35.3209 38.0421 34.536 36.7098C34.446 36.5573 34.284 36.4649 34.1049 36.4646C33.9278 36.4653 33.7644 36.56 33.6757 36.7132L33.5498 36.9309C32.9898 36.284 32.0167 34.9323 31.7372 33.104C31.7949 32.6645 31.8168 32.2008 31.7934 31.715C32.3134 31.9625 33.065 32.3898 33.828 33.065C35.5832 34.6183 36.5613 36.6971 36.7386 39.2485ZM38.9723 34.6744C37.8108 32.9691 35.4841 30.2004 32.6268 30.2004C32.537 30.2004 32.4468 30.2031 32.3559 30.2087C33.0174 29.5971 34.2816 28.9418 36.5808 29.2056C36.5144 29.3103 36.4885 29.4378 36.5119 29.5632C36.5441 29.7363 36.6654 29.8796 36.8308 29.94C36.8568 29.9494 39.3092 30.892 38.9723 34.6744Z" fill="#616161"/>
<path d="M30.2449 45.02H29.7431C29.9274 44.1638 30.0903 43.2893 30.231 42.3994C30.2739 42.1276 30.0885 41.8726 29.8168 41.8297C29.5448 41.7868 29.29 41.9722 29.247 42.2439C28.8826 44.5501 28.3662 46.75 27.7123 48.7825C27.628 49.0443 27.772 49.3249 28.0339 49.4092C28.0847 49.4255 28.136 49.4332 28.1866 49.4332C28.3971 49.4332 28.5927 49.2987 28.6607 49.0876C28.7793 48.7188 28.8933 48.3446 29.003 47.9656H30.0454C30.3205 47.9656 30.5435 47.7426 30.5435 47.4675C30.5435 47.1924 30.3205 46.9694 30.0454 46.9694H29.2778C29.3605 46.6547 29.4402 46.3368 29.5167 46.0161H30.245C30.5201 46.0161 30.7431 45.7932 30.7431 45.518C30.7431 45.2429 30.52 45.02 30.2449 45.02Z" fill="#616161"/>
</g>
<path d="M3.66 66.5C3.516 66.5 3.396 66.452 3.3 66.356C3.204 66.26 3.156 66.144 3.156 66.008V58.592H4.176V66.008C4.176 66.144 4.128 66.26 4.032 66.356C3.936 66.452 3.812 66.5 3.66 66.5ZM0.876 59.012C0.74 59.012 0.624 58.972 0.528 58.892C0.44 58.804 0.396 58.692 0.396 58.556C0.396 58.42 0.44 58.312 0.528 58.232C0.624 58.144 0.74 58.1 0.876 58.1H6.456C6.592 58.1 6.708 58.144 6.804 58.232C6.9 58.312 6.948 58.42 6.948 58.556C6.948 58.7 6.9 58.812 6.804 58.892C6.708 58.972 6.592 59.012 6.456 59.012H0.876ZM7.98909 66.5C7.85309 66.5 7.73709 66.452 7.64109 66.356C7.55309 66.26 7.50909 66.144 7.50909 66.008V60.776C7.50909 60.64 7.55309 60.528 7.64109 60.44C7.73709 60.344 7.85309 60.296 7.98909 60.296C8.13309 60.296 8.24909 60.344 8.33709 60.44C8.42509 60.528 8.46909 60.64 8.46909 60.776V62.36L8.32509 62.108C8.37309 61.86 8.45709 61.62 8.57709 61.388C8.70509 61.148 8.86509 60.936 9.05709 60.752C9.24909 60.56 9.46909 60.412 9.71709 60.308C9.96509 60.196 10.2371 60.14 10.5331 60.14C10.7091 60.14 10.8691 60.184 11.0131 60.272C11.1651 60.352 11.2411 60.468 11.2411 60.62C11.2411 60.788 11.1971 60.912 11.1091 60.992C11.0211 61.072 10.9211 61.112 10.8091 61.112C10.7051 61.112 10.6051 61.092 10.5091 61.052C10.4131 61.004 10.2931 60.98 10.1491 60.98C9.94909 60.98 9.74909 61.036 9.54909 61.148C9.35709 61.252 9.17709 61.404 9.00909 61.604C8.84909 61.804 8.71709 62.032 8.61309 62.288C8.51709 62.536 8.46909 62.804 8.46909 63.092V66.008C8.46909 66.144 8.42109 66.26 8.32509 66.356C8.23709 66.452 8.12509 66.5 7.98909 66.5ZM17.948 63.38C17.948 64.004 17.808 64.56 17.528 65.048C17.256 65.536 16.884 65.92 16.412 66.2C15.948 66.48 15.424 66.62 14.84 66.62C14.256 66.62 13.728 66.48 13.256 66.2C12.784 65.92 12.408 65.536 12.128 65.048C11.856 64.56 11.72 64.004 11.72 63.38C11.72 62.756 11.856 62.2 12.128 61.712C12.408 61.224 12.784 60.84 13.256 60.56C13.728 60.28 14.256 60.14 14.84 60.14C15.424 60.14 15.948 60.28 16.412 60.56C16.884 60.84 17.256 61.224 17.528 61.712C17.808 62.2 17.948 62.756 17.948 63.38ZM16.988 63.38C16.988 62.916 16.892 62.508 16.7 62.156C16.516 61.804 16.26 61.528 15.932 61.328C15.612 61.128 15.248 61.028 14.84 61.028C14.432 61.028 14.064 61.128 13.736 61.328C13.416 61.528 13.16 61.804 12.968 62.156C12.776 62.508 12.68 62.916 12.68 63.38C12.68 63.836 12.776 64.24 12.968 64.592C13.16 64.944 13.416 65.224 13.736 65.432C14.064 65.632 14.432 65.732 14.84 65.732C15.248 65.732 15.612 65.632 15.932 65.432C16.26 65.224 16.516 64.944 16.7 64.592C16.892 64.24 16.988 63.836 16.988 63.38ZM22.4519 60.2C22.9959 60.2 23.4839 60.336 23.9159 60.608C24.3479 60.88 24.6879 61.256 24.9359 61.736C25.1919 62.216 25.3199 62.768 25.3199 63.392C25.3199 64.008 25.1919 64.56 24.9359 65.048C24.6879 65.528 24.3479 65.908 23.9159 66.188C23.4919 66.46 23.0119 66.596 22.4759 66.596C22.1799 66.596 21.8999 66.552 21.6359 66.464C21.3799 66.368 21.1439 66.248 20.9279 66.104C20.7199 65.952 20.5439 65.784 20.3999 65.6C20.2559 65.408 20.1519 65.22 20.0879 65.036L20.3519 64.868V68.408C20.3519 68.544 20.3079 68.66 20.2199 68.756C20.1319 68.852 20.0159 68.9 19.8719 68.9C19.7359 68.9 19.6199 68.852 19.5239 68.756C19.4359 68.668 19.3919 68.552 19.3919 68.408V60.74C19.3919 60.604 19.4359 60.492 19.5239 60.404C19.6199 60.308 19.7359 60.26 19.8719 60.26C20.0159 60.26 20.1319 60.308 20.2199 60.404C20.3079 60.492 20.3519 60.604 20.3519 60.74V61.808L20.1719 61.712C20.2279 61.512 20.3239 61.32 20.4599 61.136C20.6039 60.952 20.7759 60.792 20.9759 60.656C21.1839 60.512 21.4119 60.4 21.6599 60.32C21.9159 60.24 22.1799 60.2 22.4519 60.2ZM22.3439 61.088C21.9439 61.088 21.5879 61.188 21.2759 61.388C20.9719 61.588 20.7319 61.86 20.5559 62.204C20.3879 62.548 20.3039 62.944 20.3039 63.392C20.3039 63.832 20.3879 64.228 20.5559 64.58C20.7319 64.932 20.9719 65.208 21.2759 65.408C21.5879 65.608 21.9439 65.708 22.3439 65.708C22.7439 65.708 23.0959 65.608 23.3999 65.408C23.7039 65.208 23.9439 64.932 24.1199 64.58C24.2959 64.228 24.3839 63.832 24.3839 63.392C24.3839 62.944 24.2959 62.548 24.1199 62.204C23.9439 61.86 23.7039 61.588 23.3999 61.388C23.0959 61.188 22.7439 61.088 22.3439 61.088ZM27.687 66.008C27.687 66.144 27.639 66.26 27.543 66.356C27.455 66.452 27.343 66.5 27.207 66.5C27.063 66.5 26.947 66.452 26.859 66.356C26.771 66.26 26.727 66.144 26.727 66.008V60.68C26.727 60.544 26.771 60.432 26.859 60.344C26.955 60.248 27.071 60.2 27.207 60.2C27.343 60.2 27.455 60.248 27.543 60.344C27.639 60.432 27.687 60.544 27.687 60.68V66.008ZM27.207 59.396C27.007 59.396 26.859 59.356 26.763 59.276C26.667 59.196 26.619 59.072 26.619 58.904V58.736C26.619 58.568 26.671 58.444 26.775 58.364C26.879 58.284 27.027 58.244 27.219 58.244C27.411 58.244 27.555 58.284 27.651 58.364C27.747 58.444 27.795 58.568 27.795 58.736V58.904C27.795 59.072 27.743 59.196 27.639 59.276C27.543 59.356 27.399 59.396 27.207 59.396ZM32.1714 60.14C32.5794 60.14 32.9474 60.184 33.2754 60.272C33.6034 60.36 33.8634 60.48 34.0554 60.632C34.2474 60.784 34.3434 60.956 34.3434 61.148C34.3434 61.252 34.3074 61.352 34.2354 61.448C34.1634 61.544 34.0674 61.592 33.9474 61.592C33.8354 61.592 33.7434 61.572 33.6714 61.532C33.6074 61.492 33.5434 61.44 33.4794 61.376C33.4234 61.312 33.3434 61.256 33.2394 61.208C33.1434 61.152 33.0034 61.108 32.8194 61.076C32.6354 61.044 32.4514 61.028 32.2674 61.028C31.8274 61.028 31.4394 61.132 31.1034 61.34C30.7754 61.548 30.5154 61.828 30.3234 62.18C30.1314 62.532 30.0354 62.932 30.0354 63.38C30.0354 63.828 30.1274 64.228 30.3114 64.58C30.4954 64.932 30.7514 65.212 31.0794 65.42C31.4074 65.628 31.7874 65.732 32.2194 65.732C32.4994 65.732 32.7234 65.708 32.8914 65.66C33.0594 65.612 33.1994 65.556 33.3114 65.492C33.4554 65.412 33.5634 65.332 33.6354 65.252C33.7154 65.172 33.8194 65.132 33.9474 65.132C34.0834 65.132 34.1874 65.176 34.2594 65.264C34.3394 65.352 34.3794 65.46 34.3794 65.588C34.3794 65.732 34.2794 65.884 34.0794 66.044C33.8794 66.204 33.6074 66.34 33.2634 66.452C32.9274 66.564 32.5434 66.62 32.1114 66.62C31.5034 66.62 30.9714 66.48 30.5154 66.2C30.0594 65.912 29.7034 65.524 29.4474 65.036C29.1994 64.54 29.0754 63.988 29.0754 63.38C29.0754 62.772 29.2034 62.224 29.4594 61.736C29.7234 61.248 30.0874 60.86 30.5514 60.572C31.0154 60.284 31.5554 60.14 32.1714 60.14ZM40.7461 60.236C40.8821 60.236 40.9941 60.284 41.0821 60.38C41.1781 60.468 41.2261 60.58 41.2261 60.716V66.008C41.2261 66.144 41.1781 66.26 41.0821 66.356C40.9941 66.452 40.8821 66.5 40.7461 66.5C40.6021 66.5 40.4861 66.452 40.3981 66.356C40.3101 66.26 40.2661 66.144 40.2661 66.008V64.868L40.4941 64.844C40.4941 65.02 40.4341 65.212 40.3141 65.42C40.1941 65.628 40.0301 65.824 39.8221 66.008C39.6141 66.184 39.3661 66.332 39.0781 66.452C38.7981 66.564 38.4941 66.62 38.1661 66.62C37.6221 66.62 37.1341 66.48 36.7021 66.2C36.2701 65.912 35.9261 65.524 35.6701 65.036C35.4221 64.548 35.2981 63.992 35.2981 63.368C35.2981 62.736 35.4221 62.18 35.6701 61.7C35.9261 61.212 36.2701 60.832 36.7021 60.56C37.1341 60.28 37.6141 60.14 38.1421 60.14C38.4861 60.14 38.8061 60.196 39.1021 60.308C39.3981 60.42 39.6541 60.572 39.8701 60.764C40.0941 60.956 40.2661 61.168 40.3861 61.4C40.5141 61.632 40.5781 61.864 40.5781 62.096L40.2661 62.024V60.716C40.2661 60.58 40.3101 60.468 40.3981 60.38C40.4861 60.284 40.6021 60.236 40.7461 60.236ZM38.2741 65.732C38.6741 65.732 39.0261 65.628 39.3301 65.42C39.6421 65.212 39.8821 64.932 40.0501 64.58C40.2261 64.22 40.3141 63.816 40.3141 63.368C40.3141 62.928 40.2261 62.532 40.0501 62.18C39.8821 61.82 39.6421 61.54 39.3301 61.34C39.0261 61.132 38.6741 61.028 38.2741 61.028C37.8821 61.028 37.5301 61.128 37.2181 61.328C36.9141 61.528 36.6741 61.804 36.4981 62.156C36.3221 62.508 36.2341 62.912 36.2341 63.368C36.2341 63.816 36.3181 64.22 36.4861 64.58C36.6621 64.932 36.9021 65.212 37.2061 65.42C37.5181 65.628 37.8741 65.732 38.2741 65.732ZM44.0612 66.008C44.0612 66.144 44.0132 66.26 43.9172 66.356C43.8212 66.452 43.7052 66.5 43.5692 66.5C43.4332 66.5 43.3212 66.452 43.2332 66.356C43.1452 66.26 43.1012 66.144 43.1012 66.008V58.1C43.1012 57.964 43.1452 57.852 43.2332 57.764C43.3292 57.668 43.4452 57.62 43.5812 57.62C43.7252 57.62 43.8412 57.668 43.9292 57.764C44.0172 57.852 44.0612 57.964 44.0612 58.1V66.008Z" fill="#616161"/>
<defs>
<clipPath id="clip0_8_322">
<rect width="34" height="34" fill="white" transform="translate(6 15.5)"/>
</clipPath>
</defs>
</svg>
