<svg width="34" height="84" viewBox="0 0 34 84" fill="none" xmlns="http://www.w3.org/2000/svg">
<path d="M31.3438 38.2601H28.0929C27.1798 36.2841 25.9922 34.4469 24.5654 32.8029C24.4716 32.7 24.3412 32.6381 24.2022 32.6304C24.0632 32.6228 23.9267 32.67 23.8222 32.7619C23.7177 32.8539 23.6534 32.9832 23.6433 33.1221C23.6332 33.2609 23.6779 33.3982 23.768 33.5043C25.0173 34.946 26.0728 36.5448 26.9077 38.2601H18.7705C16.4109 37.7985 15.626 36.7572 15.6242 36.7572C15.2755 36.0974 14.7202 35.5701 14.0434 35.2558C13.3665 34.9416 12.6054 34.8577 11.8764 35.0171C11.0315 33.9463 10.1252 33.427 9.18018 33.4752C7.96749 33.5349 7.09434 34.5294 6.71511 35.055C6.48 35.0255 6.24265 35.0181 6.00616 35.0329C6.76054 33.4076 8.41676 30.1945 10.2787 28.8351C12.1425 27.5972 13.7922 29.8724 14.8873 32.1258C15.6011 33.7453 16.767 35.1245 18.2451 36.0978C18.8957 36.515 21.4786 37.8851 21.6739 36.7588C21.6843 36.6898 21.6811 36.6194 21.6643 36.5517C21.6476 36.484 21.6176 36.4203 21.5762 36.3641C21.5348 36.308 21.4827 36.2606 21.423 36.2246C21.3632 36.1886 21.297 36.1647 21.228 36.1543C19.3856 35.7909 17.7606 34.7165 16.7045 33.1637C17.6937 31.4791 19.4863 29.8484 21.5279 31.3467C21.9351 31.586 22.5041 32.5263 23.051 31.9697C23.098 31.9181 23.1342 31.8577 23.1578 31.7921C23.1814 31.7264 23.1918 31.6568 23.1885 31.5871C23.1851 31.5175 23.1681 31.4491 23.1383 31.3861C23.1085 31.323 23.0666 31.2664 23.015 31.2195C21.5076 29.5686 19.0291 29.1088 17.3323 30.7101C16.8701 31.1523 16.4543 31.6405 16.0914 32.1672C16.0091 32.0106 15.9295 31.852 15.8558 31.689C14.4083 28.7061 12.3212 26.2831 9.65205 27.9769C7.10006 29.8407 5.03984 34.5365 4.65265 35.459C3.36952 36.1757 3.06 38.1143 3.14593 38.2601H2.65628C2.51687 38.2624 2.38393 38.3193 2.28614 38.4187C2.18835 38.5181 2.13354 38.6519 2.13354 38.7914C2.13355 38.9308 2.18836 39.0646 2.28616 39.164C2.38396 39.2634 2.5169 39.3204 2.65631 39.3226C4.84146 39.3236 30.065 39.3219 31.3438 39.3226C31.4832 39.3204 31.6161 39.2634 31.7139 39.164C31.8117 39.0646 31.8665 38.9308 31.8665 38.7914C31.8665 38.6519 31.8117 38.5181 31.7139 38.4187C31.6161 38.3193 31.4832 38.2624 31.3438 38.2601ZM4.17023 38.2601C4.29928 37.2602 4.95648 35.7058 6.8604 36.1559C6.96994 36.178 7.08365 36.1652 7.18553 36.1193C7.28742 36.0734 7.37237 35.9968 7.42845 35.9001C7.43598 35.8871 8.20043 34.5849 9.23595 34.5362C9.89145 34.4993 10.5576 34.9792 11.2429 35.9432C11.3126 36.0413 11.4136 36.1128 11.5293 36.1461C11.645 36.1794 11.7685 36.1724 11.8797 36.1263C11.9482 36.0972 13.5718 35.4487 14.7318 37.3335C15.0237 37.7063 15.3832 38.0206 15.7915 38.2601H4.17023Z" fill="#616161"/>
<path d="M27.9345 41.3755H6.06555C5.92608 41.3777 5.79305 41.4346 5.69519 41.534C5.59733 41.6334 5.54248 41.7673 5.54248 41.9068C5.54248 42.0462 5.59734 42.1801 5.69521 42.2795C5.79308 42.3789 5.92611 42.4358 6.06558 42.438H27.9345C28.074 42.4358 28.207 42.3789 28.3048 42.2795C28.4027 42.1801 28.4576 42.0462 28.4576 41.9067C28.4575 41.7672 28.4027 41.6333 28.3048 41.534C28.207 41.4346 28.0739 41.3776 27.9345 41.3755Z" fill="#616161"/>
<path d="M24.5255 44.491H9.47459C9.33506 44.493 9.20194 44.5499 9.104 44.6493C9.00607 44.7487 8.95117 44.8827 8.95117 45.0222C8.95118 45.1618 9.00608 45.2957 9.10402 45.3951C9.20196 45.4945 9.33508 45.5514 9.47461 45.5535H24.5255C24.665 45.5514 24.7981 45.4945 24.896 45.3951C24.994 45.2957 25.0489 45.1618 25.0489 45.0222C25.0489 44.8827 24.994 44.7487 24.896 44.6493C24.7981 44.5499 24.665 44.493 24.5255 44.491Z" fill="#616161"/>
<path d="M24.5254 26.7294C27.8046 26.6252 27.8034 21.871 24.5253 21.7671C21.2463 21.8714 21.2466 26.6258 24.5254 26.7294ZM24.5254 22.8296C24.8989 22.8338 25.2557 22.9851 25.5184 23.2507C25.781 23.5163 25.9283 23.8747 25.9283 24.2483C25.9283 24.6218 25.781 24.9803 25.5183 25.2459C25.2557 25.5115 24.8989 25.6628 24.5253 25.6669C24.1518 25.6627 23.795 25.5114 23.5324 25.2458C23.2697 24.9802 23.1224 24.6218 23.1224 24.2482C23.1224 23.8747 23.2697 23.5162 23.5324 23.2506C23.7951 22.985 24.1519 22.8337 24.5254 22.8296Z" fill="#616161"/>
<path d="M24.5253 21.0242C24.6628 21.0223 24.7939 20.9663 24.8904 20.8684C24.9869 20.7705 25.041 20.6386 25.041 20.5011C25.041 20.3637 24.9869 20.2317 24.8904 20.1338C24.7939 20.036 24.6628 19.98 24.5253 19.978C24.3879 19.98 24.2567 20.036 24.1602 20.1338C24.0637 20.2317 24.0096 20.3637 24.0096 20.5011C24.0096 20.6386 24.0637 20.7705 24.1602 20.8684C24.2567 20.9663 24.3879 21.0223 24.5253 21.0242Z" fill="#616161"/>
<path d="M22.2455 21.9684C22.3405 21.8697 22.393 21.7376 22.3916 21.6006C22.3903 21.4636 22.3353 21.3326 22.2384 21.2358C22.1416 21.1389 22.0105 21.0839 21.8735 21.0825C21.7366 21.0812 21.6045 21.1337 21.5058 21.2287C21.4108 21.3274 21.3583 21.4595 21.3596 21.5965C21.361 21.7334 21.416 21.8645 21.5129 21.9613C21.6097 22.0582 21.7407 22.1132 21.8777 22.1145C22.0147 22.1159 22.1468 22.0634 22.2455 21.9684Z" fill="#616161"/>
<path d="M20.7781 24.7713C20.9156 24.7693 21.0467 24.7134 21.1432 24.6155C21.2397 24.5176 21.2938 24.3856 21.2938 24.2482C21.2938 24.1107 21.2397 23.9788 21.1432 23.8809C21.0467 23.783 20.9156 23.7271 20.7781 23.7251C20.6407 23.7271 20.5096 23.783 20.4131 23.8809C20.3165 23.9788 20.2625 24.1107 20.2625 24.2482C20.2625 24.3856 20.3165 24.5176 20.4131 24.6155C20.5096 24.7134 20.6407 24.7693 20.7781 24.7713Z" fill="#616161"/>
<path d="M22.2455 27.268C22.3405 27.1693 22.393 27.0372 22.3916 26.9002C22.3903 26.7632 22.3353 26.6322 22.2384 26.5353C22.1416 26.4384 22.0105 26.3834 21.8735 26.3821C21.7366 26.3808 21.6045 26.4332 21.5058 26.5282C21.4108 26.627 21.3583 26.759 21.3596 26.896C21.361 27.033 21.416 27.164 21.5129 27.2609C21.6097 27.3578 21.7407 27.4128 21.8777 27.4141C22.0147 27.4154 22.1468 27.363 22.2455 27.268Z" fill="#616161"/>
<path d="M24.0023 27.9956C24.0044 28.133 24.0605 28.264 24.1583 28.3604C24.2562 28.4567 24.388 28.5108 24.5254 28.5108C24.6628 28.5108 24.7946 28.4567 24.8925 28.3604C24.9904 28.264 25.0464 28.133 25.0485 27.9956C25.0464 27.8583 24.9904 27.7273 24.8925 27.6309C24.7946 27.5345 24.6628 27.4805 24.5254 27.4805C24.388 27.4805 24.2562 27.5345 24.1583 27.6309C24.0605 27.7273 24.0044 27.8583 24.0023 27.9956Z" fill="#616161"/>
<path d="M26.8051 26.5282C26.7102 26.6269 26.6577 26.7589 26.6591 26.8959C26.6604 27.0329 26.7154 27.1639 26.8123 27.2608C26.9092 27.3576 27.0402 27.4126 27.1771 27.414C27.3141 27.4153 27.4462 27.3629 27.5449 27.2679C27.6399 27.1692 27.6923 27.0371 27.6909 26.9002C27.6896 26.7632 27.6346 26.6322 27.5377 26.5353C27.4409 26.4385 27.3099 26.3834 27.1729 26.3821C27.0359 26.3808 26.9039 26.4332 26.8051 26.5282Z" fill="#616161"/>
<path d="M28.2725 24.7713C28.41 24.7693 28.5411 24.7134 28.6376 24.6155C28.7341 24.5176 28.7882 24.3856 28.7882 24.2482C28.7882 24.1107 28.7341 23.9788 28.6376 23.8809C28.5411 23.783 28.41 23.7271 28.2725 23.7251C28.1351 23.7271 28.0039 23.783 27.9074 23.8809C27.8109 23.9788 27.7568 24.1107 27.7568 24.2482C27.7568 24.3856 27.8109 24.5176 27.9074 24.6155C28.0039 24.7134 28.1351 24.7693 28.2725 24.7713Z" fill="#616161"/>
<path d="M27.545 21.9684C27.6399 21.8697 27.6924 21.7376 27.6911 21.6006C27.6898 21.4636 27.6347 21.3326 27.5379 21.2358C27.441 21.1389 27.31 21.0839 27.173 21.0825C27.036 21.0812 26.9039 21.1337 26.8052 21.2287C26.7102 21.3274 26.6578 21.4595 26.6591 21.5965C26.6604 21.7334 26.7154 21.8645 26.8123 21.9613C26.9092 22.0582 27.0402 22.1132 27.1772 22.1145C27.3142 22.1159 27.4462 22.0634 27.545 21.9684Z" fill="#616161"/>
<path d="M2.052 66.008C2.052 66.144 2 66.26 1.896 66.356C1.8 66.452 1.684 66.5 1.548 66.5C1.396 66.5 1.276 66.452 1.188 66.356C1.1 66.26 1.056 66.144 1.056 66.008V58.592C1.056 58.448 1.104 58.332 1.2 58.244C1.296 58.148 1.416 58.1 1.56 58.1C1.696 58.1 1.812 58.148 1.908 58.244C2.004 58.332 2.052 58.448 2.052 58.592V66.008ZM3.64547 65.516C3.57347 65.412 3.54147 65.304 3.54947 65.192C3.55747 65.072 3.62547 64.968 3.75347 64.88C3.83347 64.824 3.92547 64.8 4.02947 64.808C4.14147 64.816 4.24147 64.868 4.32947 64.964C4.55347 65.228 4.80947 65.44 5.09747 65.6C5.38547 65.752 5.73747 65.828 6.15347 65.828C6.34547 65.82 6.53747 65.788 6.72947 65.732C6.92147 65.676 7.08147 65.58 7.20947 65.444C7.34547 65.3 7.41347 65.112 7.41347 64.88C7.41347 64.656 7.34547 64.48 7.20947 64.352C7.07347 64.216 6.89747 64.108 6.68147 64.028C6.46547 63.94 6.22947 63.864 5.97347 63.8C5.70947 63.728 5.44947 63.648 5.19347 63.56C4.93747 63.464 4.70547 63.348 4.49747 63.212C4.29747 63.068 4.13347 62.892 4.00547 62.684C3.88547 62.468 3.82547 62.208 3.82547 61.904C3.82547 61.544 3.92147 61.232 4.11347 60.968C4.31347 60.704 4.57747 60.5 4.90547 60.356C5.24147 60.212 5.60547 60.14 5.99747 60.14C6.22147 60.14 6.45347 60.168 6.69347 60.224C6.94147 60.272 7.18147 60.36 7.41347 60.488C7.64547 60.608 7.84947 60.776 8.02547 60.992C8.09747 61.072 8.13747 61.172 8.14547 61.292C8.15347 61.412 8.10147 61.52 7.98947 61.616C7.90147 61.68 7.80147 61.708 7.68947 61.7C7.58547 61.692 7.49747 61.652 7.42547 61.58C7.25747 61.38 7.04547 61.228 6.78947 61.124C6.54147 61.012 6.26547 60.956 5.96147 60.956C5.76947 60.956 5.58147 60.984 5.39747 61.04C5.21347 61.096 5.05747 61.192 4.92947 61.328C4.80947 61.456 4.74947 61.636 4.74947 61.868C4.75747 62.084 4.82947 62.26 4.96547 62.396C5.10147 62.532 5.28547 62.644 5.51747 62.732C5.74947 62.812 6.00547 62.892 6.28547 62.972C6.54147 63.036 6.78547 63.112 7.01747 63.2C7.25747 63.28 7.47347 63.388 7.66547 63.524C7.85747 63.66 8.00947 63.836 8.12147 64.052C8.23347 64.26 8.28947 64.524 8.28947 64.844C8.28947 65.212 8.18547 65.532 7.97747 65.804C7.76947 66.068 7.49347 66.272 7.14947 66.416C6.81347 66.552 6.44947 66.62 6.05747 66.62C5.61747 66.62 5.18147 66.536 4.74947 66.368C4.32547 66.2 3.95747 65.916 3.64547 65.516ZM10.7331 66.008C10.7331 66.144 10.6851 66.26 10.5891 66.356C10.4931 66.452 10.3771 66.5 10.2411 66.5C10.1051 66.5 9.99306 66.452 9.90506 66.356C9.81706 66.26 9.77306 66.144 9.77306 66.008V58.1C9.77306 57.964 9.81706 57.852 9.90506 57.764C10.0011 57.668 10.1171 57.62 10.2531 57.62C10.3971 57.62 10.5131 57.668 10.6011 57.764C10.6891 57.852 10.7331 57.964 10.7331 58.1V66.008ZM17.707 60.236C17.843 60.236 17.955 60.284 18.043 60.38C18.139 60.468 18.187 60.58 18.187 60.716V66.008C18.187 66.144 18.139 66.26 18.043 66.356C17.955 66.452 17.843 66.5 17.707 66.5C17.563 66.5 17.447 66.452 17.359 66.356C17.271 66.26 17.227 66.144 17.227 66.008V64.868L17.455 64.844C17.455 65.02 17.395 65.212 17.275 65.42C17.155 65.628 16.991 65.824 16.783 66.008C16.575 66.184 16.327 66.332 16.039 66.452C15.759 66.564 15.455 66.62 15.127 66.62C14.583 66.62 14.095 66.48 13.663 66.2C13.231 65.912 12.887 65.524 12.631 65.036C12.383 64.548 12.259 63.992 12.259 63.368C12.259 62.736 12.383 62.18 12.631 61.7C12.887 61.212 13.231 60.832 13.663 60.56C14.095 60.28 14.575 60.14 15.103 60.14C15.447 60.14 15.767 60.196 16.063 60.308C16.359 60.42 16.615 60.572 16.831 60.764C17.055 60.956 17.227 61.168 17.347 61.4C17.475 61.632 17.539 61.864 17.539 62.096L17.227 62.024V60.716C17.227 60.58 17.271 60.468 17.359 60.38C17.447 60.284 17.563 60.236 17.707 60.236ZM15.235 65.732C15.635 65.732 15.987 65.628 16.291 65.42C16.603 65.212 16.843 64.932 17.011 64.58C17.187 64.22 17.275 63.816 17.275 63.368C17.275 62.928 17.187 62.532 17.011 62.18C16.843 61.82 16.603 61.54 16.291 61.34C15.987 61.132 15.635 61.028 15.235 61.028C14.843 61.028 14.491 61.128 14.179 61.328C13.875 61.528 13.635 61.804 13.459 62.156C13.283 62.508 13.195 62.912 13.195 63.368C13.195 63.816 13.279 64.22 13.447 64.58C13.623 64.932 13.863 65.212 14.167 65.42C14.479 65.628 14.835 65.732 15.235 65.732ZM23.0501 60.14C23.5941 60.14 24.0221 60.252 24.3341 60.476C24.6461 60.7 24.8661 61 24.9941 61.376C25.1301 61.752 25.1981 62.172 25.1981 62.636V66.008C25.1981 66.144 25.1501 66.26 25.0541 66.356C24.9661 66.452 24.8541 66.5 24.7181 66.5C24.5821 66.5 24.4661 66.452 24.3701 66.356C24.2821 66.26 24.2381 66.144 24.2381 66.008V62.66C24.2381 62.356 24.1901 62.084 24.0941 61.844C24.0061 61.596 23.8541 61.4 23.6381 61.256C23.4301 61.104 23.1421 61.028 22.7741 61.028C22.4381 61.028 22.1301 61.104 21.8501 61.256C21.5701 61.4 21.3461 61.596 21.1781 61.844C21.0101 62.084 20.9261 62.356 20.9261 62.66V66.008C20.9261 66.144 20.8781 66.26 20.7821 66.356C20.6941 66.452 20.5821 66.5 20.4461 66.5C20.3101 66.5 20.1941 66.452 20.0981 66.356C20.0101 66.26 19.9661 66.144 19.9661 66.008V60.776C19.9661 60.64 20.0101 60.528 20.0981 60.44C20.1941 60.344 20.3101 60.296 20.4461 60.296C20.5901 60.296 20.7061 60.344 20.7941 60.44C20.8821 60.528 20.9261 60.64 20.9261 60.776V61.628L20.6861 61.892C20.7261 61.684 20.8181 61.476 20.9621 61.268C21.1061 61.052 21.2861 60.86 21.5021 60.692C21.7181 60.524 21.9581 60.392 22.2221 60.296C22.4861 60.192 22.7621 60.14 23.0501 60.14ZM32.0859 57.62C32.2219 57.62 32.3339 57.668 32.4219 57.764C32.5179 57.852 32.5659 57.964 32.5659 58.1V66.008C32.5659 66.144 32.5179 66.26 32.4219 66.356C32.3339 66.452 32.2219 66.5 32.0859 66.5C31.9419 66.5 31.8259 66.452 31.7379 66.356C31.6499 66.26 31.6059 66.144 31.6059 66.008V64.868L31.8339 64.784C31.8339 64.976 31.7739 65.18 31.6539 65.396C31.5339 65.604 31.3699 65.8 31.1619 65.984C30.9539 66.168 30.7059 66.32 30.4179 66.44C30.1379 66.56 29.8339 66.62 29.5059 66.62C28.9699 66.62 28.4819 66.48 28.0419 66.2C27.6099 65.92 27.2659 65.536 27.0099 65.048C26.7619 64.56 26.6379 64.004 26.6379 63.38C26.6379 62.748 26.7619 62.188 27.0099 61.7C27.2659 61.212 27.6099 60.832 28.0419 60.56C28.4739 60.28 28.9539 60.14 29.4819 60.14C29.8179 60.14 30.1339 60.196 30.4299 60.308C30.7259 60.42 30.9819 60.572 31.1979 60.764C31.4219 60.956 31.5979 61.168 31.7259 61.4C31.8539 61.632 31.9179 61.864 31.9179 62.096L31.6059 62.024V58.1C31.6059 57.964 31.6499 57.852 31.7379 57.764C31.8259 57.668 31.9419 57.62 32.0859 57.62ZM29.6139 65.732C30.0139 65.732 30.3659 65.632 30.6699 65.432C30.9819 65.224 31.2219 64.944 31.3899 64.592C31.5659 64.232 31.6539 63.828 31.6539 63.38C31.6539 62.924 31.5659 62.52 31.3899 62.168C31.2219 61.816 30.9819 61.54 30.6699 61.34C30.3659 61.132 30.0139 61.028 29.6139 61.028C29.2219 61.028 28.8699 61.132 28.5579 61.34C28.2539 61.54 28.0139 61.816 27.8379 62.168C27.6619 62.52 27.5739 62.924 27.5739 63.38C27.5739 63.82 27.6619 64.22 27.8379 64.58C28.0139 64.932 28.2539 65.212 28.5579 65.42C28.8699 65.628 29.2219 65.732 29.6139 65.732Z" fill="#616161"/>
</svg>
