<svg width="68" height="84" viewBox="0 0 68 84" fill="none" xmlns="http://www.w3.org/2000/svg">
<g clip-path="url(#clip0_8_463)">
<path d="M24.3228 46.7991L23.8969 45.8259C28.138 43.9694 32.5516 42.5351 37.0739 41.5437C37.2881 41.4968 37.5039 41.4556 37.7187 41.4107V36.75H37.1875C37.0824 36.75 36.9797 36.7188 36.8924 36.6605C36.805 36.6021 36.7369 36.5191 36.6967 36.4221C36.6565 36.325 36.646 36.2182 36.6665 36.1151C36.687 36.0121 36.7376 35.9174 36.8119 35.8431L41.0619 31.5931C41.1112 31.5438 41.1698 31.5047 41.2342 31.478C41.2987 31.4512 41.3678 31.4375 41.4375 31.4375C41.5073 31.4375 41.5764 31.4512 41.6408 31.478C41.7053 31.5047 41.7638 31.5438 41.8131 31.5931L46.0631 35.8431C46.1374 35.9174 46.188 36.0121 46.2085 36.1151C46.229 36.2182 46.2185 36.325 46.1783 36.4221C46.1381 36.5191 46.07 36.6021 45.9826 36.6605C45.8953 36.7188 45.7926 36.75 45.6875 36.75H45.1562V40.2659C46.9189 40.0907 48.6856 39.9813 50.4563 39.9375L50.4812 41C46.0474 41.105 41.6339 41.6345 37.3011 42.5813C32.8471 43.5581 28.5001 44.9708 24.3228 46.7991ZM40.9062 40.8207C41.2601 40.7636 41.6139 40.706 41.9687 40.6543V38.875H40.9062V40.8207ZM38.7812 41.1929C39.1345 41.1248 39.4892 41.0631 39.8437 41.0003V38.3437C39.8437 38.274 39.8575 38.2049 39.8842 38.1404C39.9108 38.076 39.95 38.0174 39.9993 37.968C40.0486 37.9187 40.1072 37.8796 40.1717 37.8529C40.2361 37.8262 40.3052 37.8125 40.375 37.8125H42.5C42.5698 37.8125 42.6389 37.8262 42.7033 37.8529C42.7678 37.8796 42.8264 37.9187 42.8757 37.968C42.925 38.0174 42.9642 38.076 42.9908 38.1404C43.0175 38.2049 43.0313 38.274 43.0312 38.3437V40.5119C43.3851 40.4659 43.7391 40.4212 44.0937 40.3805V36.75H38.7812V41.1929ZM44.405 35.6875L41.4375 32.72L38.47 35.6875H44.405Z" fill="#616161"/>
<path d="M28.2582 47.8736L27.8919 46.8764C30.8885 45.7775 33.9562 44.8833 37.0739 44.1999C41.4732 43.2384 45.9544 42.7006 50.4563 42.5938L50.4812 43.6563C46.0474 43.7613 41.6339 44.2908 37.3011 45.2375C34.2307 45.9108 31.2094 46.7915 28.2582 47.8736Z" fill="#616161"/>
<path d="M33.0835 49.0169L32.7915 47.9949C34.2018 47.5923 35.6428 47.2291 37.0739 46.9158C41.4732 45.9543 45.9544 45.4164 50.4563 45.3096L50.4812 46.3721C46.0474 46.4771 41.6339 47.0066 37.3011 47.9534C35.8915 48.2621 34.4724 48.62 33.0835 49.0169Z" fill="#616161"/>
<path d="M21.7812 23.3862V20.2813H21.25C21.1414 20.2813 21.0355 20.2481 20.9464 20.1861C20.8574 20.1241 20.7894 20.0363 20.7518 19.9345C20.7141 19.8327 20.7085 19.7218 20.7358 19.6168C20.763 19.5117 20.8218 19.4175 20.9042 19.3469L24.6229 16.1594C24.7191 16.0766 24.8418 16.031 24.9687 16.031C25.0956 16.031 25.2183 16.0766 25.3145 16.1594L29.0332 19.3469C29.1156 19.4175 29.1744 19.5117 29.2017 19.6168C29.2289 19.7218 29.2233 19.8327 29.1857 19.9345C29.148 20.0363 29.08 20.1241 28.991 20.1861C28.9019 20.2481 28.796 20.2813 28.6875 20.2813H28.1562V24.4075C29.9832 24.7597 31.7971 25.1605 33.5981 25.6099C35.301 26.0375 36.8507 26.4673 38.25 26.8835V25.0109C37.7705 24.9326 37.3389 24.6747 37.0428 24.2896C36.7468 23.9044 36.6085 23.421 36.6562 22.9375C36.6562 22.1085 37.2349 18.0509 38.7812 18.0509C40.3275 18.0509 40.9062 22.1085 40.9062 22.9375C40.9539 23.421 40.8156 23.9044 40.5196 24.2895C40.2235 24.6747 39.7919 24.9326 39.3125 25.0109V27.2056C40.7335 27.6452 41.9765 28.0638 43.0312 28.4409V26.6046C42.5518 26.5264 42.1201 26.2684 41.8241 25.8833C41.528 25.4981 41.3898 25.0147 41.4375 24.5313C41.4375 23.7022 42.0162 19.6447 43.5625 19.6447C45.1087 19.6447 45.6875 23.7022 45.6875 24.5313C45.7351 25.0147 45.5969 25.4981 45.3008 25.8833C45.0048 26.2684 44.5731 26.5264 44.0937 26.6046V28.8302C45.2975 29.2811 46.187 29.6503 46.7331 29.8879C47.8986 30.3947 49.0565 30.9348 50.1748 31.4935L49.7001 32.444C48.5984 31.8935 47.4576 31.3618 46.3092 30.8622C42.1044 29.1139 37.7675 27.7021 33.3393 26.6402C28.1347 25.3346 22.8333 24.451 17.4866 23.9979L17.5758 22.9396C18.9784 23.058 20.3802 23.2069 21.7812 23.3862ZM44.625 24.5313C44.625 23.3302 43.991 21.103 43.5625 20.7337C43.1339 21.103 42.5 23.3302 42.5 24.5313C42.5 25.2659 42.8276 25.5938 43.5625 25.5938C44.2973 25.5938 44.625 25.2659 44.625 24.5313ZM39.8437 22.9375C39.8437 21.7365 39.2097 19.5093 38.7812 19.1399C38.3527 19.5093 37.7187 21.7365 37.7187 22.9375C37.7187 23.6721 38.0463 24 38.7812 24C39.5161 24 39.8437 23.6721 39.8437 22.9375ZM24.4375 23.7634C24.7917 23.8181 25.1462 23.8711 25.5 23.9295V22.4063H24.4375V23.7634ZM22.8437 23.5304C23.0207 23.5549 23.198 23.5772 23.375 23.6025V21.875C23.3749 21.8052 23.3887 21.7362 23.4154 21.6717C23.442 21.6072 23.4812 21.5487 23.5305 21.4993C23.5798 21.45 23.6384 21.4109 23.7029 21.3842C23.7673 21.3575 23.8364 21.3437 23.9062 21.3438H26.0312C26.101 21.3437 26.1701 21.3575 26.2345 21.3842C26.299 21.4109 26.3576 21.45 26.4069 21.4993C26.4562 21.5487 26.4954 21.6072 26.5221 21.6717C26.5487 21.7362 26.5625 21.8052 26.5625 21.875V24.1147C26.7396 24.1459 26.9168 24.1766 27.0937 24.2087V20.2813H22.8437V23.5304ZM27.2514 19.2188L24.9687 17.2624L22.686 19.2188H27.2514Z" fill="#616161"/>
<path d="M33.5979 28.6527C34.65 28.9162 35.7281 29.2062 36.8025 29.5139L36.5099 30.5349C35.4469 30.2309 34.3802 29.944 33.3393 29.683C28.1347 28.3775 22.8332 27.4938 17.4866 27.0408L17.5758 25.9824C22.9796 26.4401 28.3377 27.3331 33.5979 28.6527Z" fill="#616161"/>
<path d="M33.598 31.4535L34.1318 31.5889L33.8683 32.6182L33.3394 32.4838C28.1348 31.1782 22.8334 30.2946 17.4867 29.8415L17.5759 28.7832C22.9797 29.2409 28.3378 30.1339 33.598 31.4535Z" fill="#616161"/>
<path d="M31.9958 34.1078L31.7541 35.1423C27.0591 34.046 22.2907 33.2914 17.4866 32.8845L17.5759 31.8262C22.4314 32.2371 27.2507 32.9996 31.9958 34.1078Z" fill="#616161"/>
</g>
<path d="M7.104 58.652C7.24 58.724 7.316 58.832 7.332 58.976C7.356 59.12 7.32 59.252 7.224 59.372C7.152 59.476 7.06 59.532 6.948 59.54C6.836 59.548 6.724 59.524 6.612 59.468C6.348 59.308 6.064 59.184 5.76 59.096C5.456 59 5.136 58.952 4.8 58.952C4.328 58.952 3.896 59.036 3.504 59.204C3.112 59.364 2.772 59.592 2.484 59.888C2.196 60.184 1.972 60.536 1.812 60.944C1.652 61.352 1.572 61.804 1.572 62.3C1.572 62.828 1.656 63.3 1.824 63.716C1.992 64.132 2.22 64.488 2.508 64.784C2.804 65.072 3.144 65.292 3.528 65.444C3.92 65.596 4.344 65.672 4.8 65.672C5.128 65.672 5.444 65.628 5.748 65.54C6.052 65.452 6.34 65.324 6.612 65.156C6.724 65.1 6.836 65.08 6.948 65.096C7.06 65.112 7.156 65.168 7.236 65.264C7.332 65.392 7.368 65.528 7.344 65.672C7.32 65.808 7.244 65.908 7.116 65.972C6.916 66.092 6.688 66.204 6.432 66.308C6.176 66.404 5.908 66.48 5.628 66.536C5.356 66.592 5.08 66.62 4.8 66.62C4.224 66.62 3.68 66.52 3.168 66.32C2.656 66.12 2.204 65.832 1.812 65.456C1.42 65.08 1.108 64.628 0.876 64.1C0.652 63.564 0.54 62.964 0.54 62.3C0.54 61.676 0.648 61.104 0.864 60.584C1.08 60.064 1.38 59.612 1.764 59.228C2.156 58.844 2.608 58.544 3.12 58.328C3.64 58.112 4.2 58.004 4.8 58.004C5.216 58.004 5.62 58.06 6.012 58.172C6.412 58.284 6.776 58.444 7.104 58.652ZM14.5144 63.38C14.5144 64.004 14.3744 64.56 14.0944 65.048C13.8224 65.536 13.4504 65.92 12.9784 66.2C12.5144 66.48 11.9904 66.62 11.4064 66.62C10.8224 66.62 10.2944 66.48 9.82238 66.2C9.35038 65.92 8.97438 65.536 8.69438 65.048C8.42238 64.56 8.28638 64.004 8.28638 63.38C8.28638 62.756 8.42238 62.2 8.69438 61.712C8.97438 61.224 9.35038 60.84 9.82238 60.56C10.2944 60.28 10.8224 60.14 11.4064 60.14C11.9904 60.14 12.5144 60.28 12.9784 60.56C13.4504 60.84 13.8224 61.224 14.0944 61.712C14.3744 62.2 14.5144 62.756 14.5144 63.38ZM13.5544 63.38C13.5544 62.916 13.4584 62.508 13.2664 62.156C13.0824 61.804 12.8264 61.528 12.4984 61.328C12.1784 61.128 11.8144 61.028 11.4064 61.028C10.9984 61.028 10.6304 61.128 10.3024 61.328C9.98238 61.528 9.72638 61.804 9.53438 62.156C9.34238 62.508 9.24638 62.916 9.24638 63.38C9.24638 63.836 9.34238 64.24 9.53438 64.592C9.72638 64.944 9.98238 65.224 10.3024 65.432C10.6304 65.632 10.9984 65.732 11.4064 65.732C11.8144 65.732 12.1784 65.632 12.4984 65.432C12.8264 65.224 13.0824 64.944 13.2664 64.592C13.4584 64.24 13.5544 63.836 13.5544 63.38ZM20.6023 60.296C20.7463 60.296 20.8623 60.344 20.9503 60.44C21.0383 60.528 21.0823 60.64 21.0823 60.776V64.052C21.0823 64.86 20.8543 65.488 20.3983 65.936C19.9503 66.376 19.3223 66.596 18.5143 66.596C17.7143 66.596 17.0863 66.376 16.6303 65.936C16.1823 65.488 15.9583 64.86 15.9583 64.052V60.776C15.9583 60.64 16.0023 60.528 16.0903 60.44C16.1863 60.344 16.3023 60.296 16.4383 60.296C16.5823 60.296 16.6983 60.344 16.7863 60.44C16.8743 60.528 16.9183 60.64 16.9183 60.776V64.052C16.9183 64.596 17.0583 65.008 17.3383 65.288C17.6183 65.568 18.0103 65.708 18.5143 65.708C19.0343 65.708 19.4303 65.568 19.7023 65.288C19.9823 65.008 20.1223 64.596 20.1223 64.052V60.776C20.1223 60.64 20.1663 60.528 20.2543 60.44C20.3503 60.344 20.4663 60.296 20.6023 60.296ZM25.9447 60.14C26.4887 60.14 26.9167 60.252 27.2287 60.476C27.5407 60.7 27.7607 61 27.8887 61.376C28.0247 61.752 28.0927 62.172 28.0927 62.636V66.008C28.0927 66.144 28.0447 66.26 27.9487 66.356C27.8607 66.452 27.7487 66.5 27.6127 66.5C27.4767 66.5 27.3607 66.452 27.2647 66.356C27.1767 66.26 27.1327 66.144 27.1327 66.008V62.66C27.1327 62.356 27.0847 62.084 26.9887 61.844C26.9007 61.596 26.7487 61.4 26.5327 61.256C26.3247 61.104 26.0367 61.028 25.6687 61.028C25.3327 61.028 25.0247 61.104 24.7447 61.256C24.4647 61.4 24.2407 61.596 24.0727 61.844C23.9047 62.084 23.8207 62.356 23.8207 62.66V66.008C23.8207 66.144 23.7727 66.26 23.6767 66.356C23.5887 66.452 23.4767 66.5 23.3407 66.5C23.2047 66.5 23.0887 66.452 22.9927 66.356C22.9047 66.26 22.8607 66.144 22.8607 66.008V60.776C22.8607 60.64 22.9047 60.528 22.9927 60.44C23.0887 60.344 23.2047 60.296 23.3407 60.296C23.4847 60.296 23.6007 60.344 23.6887 60.44C23.7767 60.528 23.8207 60.64 23.8207 60.776V61.628L23.5807 61.892C23.6207 61.684 23.7127 61.476 23.8567 61.268C24.0007 61.052 24.1807 60.86 24.3967 60.692C24.6127 60.524 24.8527 60.392 25.1167 60.296C25.3807 60.192 25.6567 60.14 25.9447 60.14ZM29.6285 60.332H32.4485C32.5765 60.332 32.6805 60.376 32.7605 60.464C32.8485 60.552 32.8925 60.656 32.8925 60.776C32.8925 60.904 32.8485 61.012 32.7605 61.1C32.6805 61.18 32.5765 61.22 32.4485 61.22H29.6285C29.5085 61.22 29.4045 61.176 29.3165 61.088C29.2285 61 29.1845 60.892 29.1845 60.764C29.1845 60.644 29.2285 60.544 29.3165 60.464C29.4045 60.376 29.5085 60.332 29.6285 60.332ZM30.8885 58.7C31.0245 58.7 31.1365 58.748 31.2245 58.844C31.3125 58.932 31.3565 59.044 31.3565 59.18V64.976C31.3565 65.168 31.3845 65.312 31.4405 65.408C31.4965 65.504 31.5685 65.572 31.6565 65.612C31.7525 65.644 31.8445 65.66 31.9325 65.66C32.0125 65.66 32.0805 65.648 32.1365 65.624C32.2005 65.592 32.2725 65.576 32.3525 65.576C32.4325 65.576 32.5045 65.616 32.5685 65.696C32.6405 65.768 32.6765 65.864 32.6765 65.984C32.6765 66.128 32.5925 66.252 32.4245 66.356C32.2565 66.452 32.0685 66.5 31.8605 66.5C31.7485 66.5 31.6085 66.492 31.4405 66.476C31.2805 66.46 31.1205 66.408 30.9605 66.32C30.8005 66.232 30.6645 66.088 30.5525 65.888C30.4485 65.68 30.3965 65.392 30.3965 65.024V59.18C30.3965 59.044 30.4445 58.932 30.5405 58.844C30.6365 58.748 30.7525 58.7 30.8885 58.7ZM34.7078 66.5C34.5718 66.5 34.4558 66.452 34.3598 66.356C34.2718 66.26 34.2278 66.144 34.2278 66.008V60.776C34.2278 60.64 34.2718 60.528 34.3598 60.44C34.4558 60.344 34.5718 60.296 34.7078 60.296C34.8518 60.296 34.9678 60.344 35.0558 60.44C35.1438 60.528 35.1878 60.64 35.1878 60.776V62.36L35.0438 62.108C35.0918 61.86 35.1758 61.62 35.2958 61.388C35.4238 61.148 35.5838 60.936 35.7758 60.752C35.9678 60.56 36.1878 60.412 36.4358 60.308C36.6838 60.196 36.9558 60.14 37.2518 60.14C37.4278 60.14 37.5878 60.184 37.7318 60.272C37.8838 60.352 37.9598 60.468 37.9598 60.62C37.9598 60.788 37.9158 60.912 37.8278 60.992C37.7398 61.072 37.6398 61.112 37.5278 61.112C37.4238 61.112 37.3238 61.092 37.2278 61.052C37.1318 61.004 37.0118 60.98 36.8678 60.98C36.6678 60.98 36.4678 61.036 36.2678 61.148C36.0758 61.252 35.8958 61.404 35.7278 61.604C35.5678 61.804 35.4358 62.032 35.3318 62.288C35.2358 62.536 35.1878 62.804 35.1878 63.092V66.008C35.1878 66.144 35.1398 66.26 35.0438 66.356C34.9558 66.452 34.8438 66.5 34.7078 66.5ZM43.6883 60.2C43.8243 60.2 43.9363 60.248 44.0243 60.344C44.1203 60.432 44.1683 60.544 44.1683 60.68V65.912C44.1683 66.584 44.0363 67.14 43.7723 67.58C43.5083 68.028 43.1523 68.36 42.7043 68.576C42.2643 68.792 41.7643 68.9 41.2043 68.9C40.8923 68.9 40.5923 68.868 40.3043 68.804C40.0163 68.74 39.7803 68.656 39.5963 68.552C39.4443 68.48 39.3363 68.388 39.2723 68.276C39.2163 68.172 39.2083 68.06 39.2483 67.94C39.3043 67.796 39.3843 67.696 39.4883 67.64C39.6003 67.584 39.7163 67.584 39.8363 67.64C39.9643 67.696 40.1483 67.772 40.3883 67.868C40.6363 67.972 40.9123 68.024 41.2163 68.024C41.6323 68.024 41.9883 67.944 42.2843 67.784C42.5803 67.624 42.8083 67.388 42.9683 67.076C43.1283 66.772 43.2083 66.392 43.2083 65.936V65.084L43.3523 65.384C43.2243 65.632 43.0523 65.848 42.8363 66.032C42.6203 66.216 42.3723 66.36 42.0923 66.464C41.8123 66.568 41.5043 66.62 41.1683 66.62C40.7123 66.62 40.3243 66.524 40.0043 66.332C39.6923 66.132 39.4523 65.86 39.2843 65.516C39.1243 65.164 39.0443 64.76 39.0443 64.304V60.68C39.0443 60.544 39.0883 60.432 39.1763 60.344C39.2723 60.248 39.3883 60.2 39.5243 60.2C39.6683 60.2 39.7843 60.248 39.8723 60.344C39.9603 60.432 40.0043 60.544 40.0043 60.68V64.088C40.0043 64.632 40.1243 65.044 40.3643 65.324C40.6043 65.596 40.9763 65.732 41.4803 65.732C41.8003 65.732 42.0883 65.66 42.3443 65.516C42.6083 65.372 42.8163 65.176 42.9683 64.928C43.1283 64.672 43.2083 64.392 43.2083 64.088V60.68C43.2083 60.544 43.2523 60.432 43.3403 60.344C43.4283 60.248 43.5443 60.2 43.6883 60.2ZM45.4814 65.516C45.4094 65.412 45.3774 65.304 45.3854 65.192C45.3934 65.072 45.4614 64.968 45.5894 64.88C45.6694 64.824 45.7614 64.8 45.8654 64.808C45.9774 64.816 46.0774 64.868 46.1654 64.964C46.3894 65.228 46.6454 65.44 46.9334 65.6C47.2214 65.752 47.5734 65.828 47.9894 65.828C48.1814 65.82 48.3734 65.788 48.5654 65.732C48.7574 65.676 48.9174 65.58 49.0454 65.444C49.1814 65.3 49.2494 65.112 49.2494 64.88C49.2494 64.656 49.1814 64.48 49.0454 64.352C48.9094 64.216 48.7334 64.108 48.5174 64.028C48.3014 63.94 48.0654 63.864 47.8094 63.8C47.5454 63.728 47.2854 63.648 47.0294 63.56C46.7734 63.464 46.5414 63.348 46.3334 63.212C46.1334 63.068 45.9694 62.892 45.8414 62.684C45.7214 62.468 45.6614 62.208 45.6614 61.904C45.6614 61.544 45.7574 61.232 45.9494 60.968C46.1494 60.704 46.4134 60.5 46.7414 60.356C47.0774 60.212 47.4414 60.14 47.8334 60.14C48.0574 60.14 48.2894 60.168 48.5294 60.224C48.7774 60.272 49.0174 60.36 49.2494 60.488C49.4814 60.608 49.6854 60.776 49.8614 60.992C49.9334 61.072 49.9734 61.172 49.9814 61.292C49.9894 61.412 49.9374 61.52 49.8254 61.616C49.7374 61.68 49.6374 61.708 49.5254 61.7C49.4214 61.692 49.3334 61.652 49.2614 61.58C49.0934 61.38 48.8814 61.228 48.6254 61.124C48.3774 61.012 48.1014 60.956 47.7974 60.956C47.6054 60.956 47.4174 60.984 47.2334 61.04C47.0494 61.096 46.8934 61.192 46.7654 61.328C46.6454 61.456 46.5854 61.636 46.5854 61.868C46.5934 62.084 46.6654 62.26 46.8014 62.396C46.9374 62.532 47.1214 62.644 47.3534 62.732C47.5854 62.812 47.8414 62.892 48.1214 62.972C48.3774 63.036 48.6214 63.112 48.8534 63.2C49.0934 63.28 49.3094 63.388 49.5014 63.524C49.6934 63.66 49.8454 63.836 49.9574 64.052C50.0694 64.26 50.1254 64.524 50.1254 64.844C50.1254 65.212 50.0214 65.532 49.8134 65.804C49.6054 66.068 49.3294 66.272 48.9854 66.416C48.6494 66.552 48.2854 66.62 47.8934 66.62C47.4534 66.62 47.0174 66.536 46.5854 66.368C46.1614 66.2 45.7934 65.916 45.4814 65.516ZM52.437 66.008C52.437 66.144 52.389 66.26 52.293 66.356C52.205 66.452 52.093 66.5 51.957 66.5C51.813 66.5 51.697 66.452 51.609 66.356C51.521 66.26 51.477 66.144 51.477 66.008V60.68C51.477 60.544 51.521 60.432 51.609 60.344C51.705 60.248 51.821 60.2 51.957 60.2C52.093 60.2 52.205 60.248 52.293 60.344C52.389 60.432 52.437 60.544 52.437 60.68V66.008ZM51.957 59.396C51.757 59.396 51.609 59.356 51.513 59.276C51.417 59.196 51.369 59.072 51.369 58.904V58.736C51.369 58.568 51.421 58.444 51.525 58.364C51.629 58.284 51.777 58.244 51.969 58.244C52.161 58.244 52.305 58.284 52.401 58.364C52.497 58.444 52.545 58.568 52.545 58.736V58.904C52.545 59.072 52.493 59.196 52.389 59.276C52.293 59.356 52.149 59.396 51.957 59.396ZM59.2734 57.62C59.4094 57.62 59.5214 57.668 59.6094 57.764C59.7054 57.852 59.7534 57.964 59.7534 58.1V66.008C59.7534 66.144 59.7054 66.26 59.6094 66.356C59.5214 66.452 59.4094 66.5 59.2734 66.5C59.1294 66.5 59.0134 66.452 58.9254 66.356C58.8374 66.26 58.7934 66.144 58.7934 66.008V64.868L59.0214 64.784C59.0214 64.976 58.9614 65.18 58.8414 65.396C58.7214 65.604 58.5574 65.8 58.3494 65.984C58.1414 66.168 57.8934 66.32 57.6054 66.44C57.3254 66.56 57.0214 66.62 56.6934 66.62C56.1574 66.62 55.6694 66.48 55.2294 66.2C54.7974 65.92 54.4534 65.536 54.1974 65.048C53.9494 64.56 53.8254 64.004 53.8254 63.38C53.8254 62.748 53.9494 62.188 54.1974 61.7C54.4534 61.212 54.7974 60.832 55.2294 60.56C55.6614 60.28 56.1414 60.14 56.6694 60.14C57.0054 60.14 57.3214 60.196 57.6174 60.308C57.9134 60.42 58.1694 60.572 58.3854 60.764C58.6094 60.956 58.7854 61.168 58.9134 61.4C59.0414 61.632 59.1054 61.864 59.1054 62.096L58.7934 62.024V58.1C58.7934 57.964 58.8374 57.852 58.9254 57.764C59.0134 57.668 59.1294 57.62 59.2734 57.62ZM56.8014 65.732C57.2014 65.732 57.5534 65.632 57.8574 65.432C58.1694 65.224 58.4094 64.944 58.5774 64.592C58.7534 64.232 58.8414 63.828 58.8414 63.38C58.8414 62.924 58.7534 62.52 58.5774 62.168C58.4094 61.816 58.1694 61.54 57.8574 61.34C57.5534 61.132 57.2014 61.028 56.8014 61.028C56.4094 61.028 56.0574 61.132 55.7454 61.34C55.4414 61.54 55.2014 61.816 55.0254 62.168C54.8494 62.52 54.7614 62.924 54.7614 63.38C54.7614 63.82 54.8494 64.22 55.0254 64.58C55.2014 64.932 55.4414 65.212 55.7454 65.42C56.0574 65.628 56.4094 65.732 56.8014 65.732ZM64.4005 66.62C63.7605 66.62 63.2005 66.484 62.7205 66.212C62.2405 65.94 61.8645 65.568 61.5925 65.096C61.3285 64.616 61.1965 64.064 61.1965 63.44C61.1965 62.744 61.3325 62.152 61.6045 61.664C61.8845 61.168 62.2445 60.792 62.6845 60.536C63.1325 60.272 63.6045 60.14 64.1005 60.14C64.4685 60.14 64.8245 60.208 65.1685 60.344C65.5125 60.48 65.8165 60.68 66.0805 60.944C66.3445 61.2 66.5565 61.512 66.7165 61.88C66.8765 62.24 66.9605 62.644 66.9685 63.092C66.9685 63.22 66.9205 63.328 66.8245 63.416C66.7285 63.504 66.6165 63.548 66.4885 63.548H61.7485L61.5325 62.72H66.1525L65.9605 62.888V62.624C65.9285 62.296 65.8165 62.016 65.6245 61.784C65.4405 61.544 65.2125 61.36 64.9405 61.232C64.6765 61.104 64.3965 61.04 64.1005 61.04C63.8605 61.04 63.6205 61.084 63.3805 61.172C63.1485 61.252 62.9365 61.388 62.7445 61.58C62.5605 61.764 62.4085 62.004 62.2885 62.3C62.1765 62.596 62.1205 62.952 62.1205 63.368C62.1205 63.832 62.2125 64.24 62.3965 64.592C62.5885 64.944 62.8525 65.224 63.1885 65.432C63.5245 65.632 63.9165 65.732 64.3645 65.732C64.6445 65.732 64.8885 65.696 65.0965 65.624C65.3045 65.552 65.4845 65.464 65.6365 65.36C65.7885 65.248 65.9165 65.136 66.0205 65.024C66.1245 64.952 66.2245 64.916 66.3205 64.916C66.4405 64.916 66.5365 64.956 66.6085 65.036C66.6885 65.116 66.7285 65.212 66.7285 65.324C66.7285 65.46 66.6645 65.58 66.5365 65.684C66.3125 65.932 66.0085 66.152 65.6245 66.344C65.2405 66.528 64.8325 66.62 64.4005 66.62Z" fill="#616161"/>
<defs>
<clipPath id="clip0_8_463">
<rect width="34" height="34" fill="white" transform="matrix(-1 0 0 1 51 15.5)"/>
</clipPath>
</defs>
</svg>
