<svg width="67" height="84" viewBox="0 0 67 84" fill="none" xmlns="http://www.w3.org/2000/svg">
<g clip-path="url(#clip0_8_412)">
<path d="M43.986 15.5C40.3931 15.5 37.4701 18.4222 37.4701 22.0142V24.9083C37.4701 24.9083 32.8328 22.4571 32.7509 22.4119C32.1171 22.0622 31.9417 22.0621 31.3078 22.4119C31.2259 22.4571 22.2672 27.1904 22.2672 27.1904C21.5077 27.5899 21.4009 27.7047 21.08 28.2384C21.0277 28.3255 16.7172 35.16 16.7172 35.16C16.5064 35.4935 16.4465 35.8879 16.5486 36.2704C16.656 36.6726 16.9364 37.0187 17.3174 37.2197C17.5595 37.3479 17.8209 37.4089 18.0788 37.4089C18.4906 37.4089 18.8926 37.2524 19.1907 36.9648V41.2842C19.1907 41.5592 19.4137 41.7822 19.6888 41.7822C19.9638 41.7822 20.1868 41.5592 20.1868 41.2842V35.4709C20.1868 35.4709 23.4496 30.3008 23.484 30.2459C23.639 29.9983 23.705 29.8951 23.7826 29.8264C23.8711 29.7479 24.026 29.6627 24.358 29.4872L31.8621 25.5261C31.9152 25.4979 31.961 25.4728 32.001 25.4509C32.0104 25.4458 32.02 25.4406 32.0295 25.4354C32.039 25.4406 32.0485 25.4458 32.0579 25.4509C32.0979 25.4729 32.1437 25.4979 32.1979 25.5267C32.1979 25.5267 40.0467 29.6714 40.1429 29.7309C40.2006 29.7667 40.2431 29.797 40.2763 29.8264C40.3538 29.8951 40.4199 29.9983 40.5749 30.246C40.6093 30.3009 43.872 35.4709 43.872 35.4709V46.1434H38.2327V39.2146H39.0711C39.5793 39.2146 39.9927 38.8012 39.9927 38.293V36.8699C39.9927 36.3618 39.5793 35.9483 39.0711 35.9483H33.4185C33.1434 35.9483 32.9204 36.1713 32.9204 36.4464C32.9204 36.7214 33.1434 36.9444 33.4185 36.9444H38.9966V38.2185H25.0639V36.9444H31.1202C31.3952 36.9444 31.6182 36.7214 31.6182 36.4464C31.6182 36.1713 31.3952 35.9483 31.1202 35.9483H24.9894C24.4813 35.9483 24.0678 36.3618 24.0678 36.8699V38.293C24.0678 38.8012 24.4813 39.2146 24.9894 39.2146H25.8278V46.1434H20.1868V43.5825C20.1868 43.3075 19.9638 43.0845 19.6887 43.0845C19.4137 43.0845 19.1907 43.3075 19.1907 43.5825V48.665C19.1907 49.1255 19.5653 49.5 20.0257 49.5H49.6367C50.1126 49.5 50.4999 49.1127 50.4999 48.6368V22.0142C50.5 18.4222 47.5778 15.5 43.986 15.5ZM25.8278 48.5039H20.1868V47.1395H25.8278L25.8278 48.5039ZM36.4384 39.2146L32.0303 43.1887L27.6221 39.2146H36.4384ZM26.8239 39.8361L31.2865 43.8593L26.8239 47.8824V39.8361ZM27.6221 48.5039L32.0303 44.5298L36.4384 48.5039H27.6221ZM37.2366 47.8824L32.7741 43.8593L37.2366 39.8361V47.8824ZM43.8719 48.5039H38.2327V47.1395H43.8719V48.5039ZM47.421 35.3008C47.3979 35.253 47.3723 35.2061 47.3435 35.1602L43.8941 29.6973H49.5039V35.3008H47.421ZM38.4662 22.0142C38.4662 18.9715 40.9424 16.4961 43.986 16.4961C47.0285 16.4961 49.5039 18.9715 49.5039 22.0142V22.0997H38.4662V22.0142ZM38.4662 23.0957H49.5039V28.7012H43.2651C43.2651 28.7012 43.0311 28.3256 42.9787 28.2386C42.6579 27.705 42.5511 27.5901 41.7922 27.1909L38.4662 25.4344V23.0957H38.4662ZM44.7911 35.0606C44.7911 35.0606 41.4526 29.771 41.419 29.7174C41.1004 29.2084 40.9865 29.0649 40.5371 28.8081C40.5025 28.7884 32.5731 24.5975 32.5363 24.5773C32.1976 24.3917 32.0152 24.3569 31.735 24.4729C31.7326 24.4739 31.73 24.4752 31.7275 24.4763C31.6866 24.4935 23.8926 28.6065 23.8926 28.6065C23.1138 29.0183 23.0319 29.091 22.6396 29.7174C22.6061 29.771 19.2675 35.0607 19.2675 35.0607C19.2668 35.0618 19.2664 35.0629 19.2658 35.0639L18.5822 36.147C18.4245 36.3972 18.0586 36.4854 17.7827 36.3392C17.6459 36.2671 17.5469 36.1484 17.5109 36.0138C17.4899 35.9351 17.4813 35.8156 17.5593 35.6921C17.5593 35.6921 21.8782 28.8441 21.9337 28.7519C22.1626 28.3711 22.1626 28.3711 22.7317 28.0717C22.7317 28.0717 31.9749 23.1816 32.0293 23.1568C32.0838 23.1816 41.327 28.0717 41.327 28.0717C41.3272 28.0718 41.3275 28.072 41.3277 28.0721C41.8961 28.3711 41.8961 28.3711 42.1251 28.752C42.1805 28.8441 42.2457 28.9525 42.3281 29.0831L46.5006 35.6912C46.5782 35.8147 46.5693 35.9348 46.5482 36.0138C46.5121 36.1488 46.4133 36.2675 46.2778 36.3391C45.9972 36.4873 45.6373 36.4005 45.4763 36.1468L44.7929 35.0639C44.7922 35.0628 44.7918 35.0616 44.7911 35.0606ZM49.5039 48.5039H44.868V42.8985H49.5039V48.5039ZM44.868 41.9024V36.9625C45.3536 37.4301 46.114 37.5518 46.7432 37.2198C47.115 37.0229 47.3904 36.6875 47.5027 36.297H49.5039V41.9025H44.868V41.9024Z" fill="#616161"/>
<path d="M35.4431 31.2962C35.4431 29.4138 33.9117 27.8823 32.0293 27.8823C30.148 27.8823 28.6174 29.4138 28.6174 31.2962C28.6174 33.1786 30.148 34.7101 32.0293 34.7101C33.9117 34.71 35.4431 33.1786 35.4431 31.2962ZM29.6135 31.2962C29.6135 29.963 30.6973 28.8784 32.0293 28.8784C33.3624 28.8784 34.447 29.963 34.447 31.2962C34.447 32.6294 33.3624 33.714 32.0293 33.714C30.6973 33.7139 29.6135 32.6293 29.6135 31.2962Z" fill="#616161"/>
</g>
<path d="M1.548 66.5C1.404 66.5 1.284 66.452 1.188 66.356C1.1 66.26 1.056 66.144 1.056 66.008V58.58C1.056 58.444 1.1 58.332 1.188 58.244C1.284 58.148 1.4 58.1 1.536 58.1H5.748C5.884 58.1 6 58.144 6.096 58.232C6.192 58.32 6.24 58.432 6.24 58.568C6.24 58.696 6.192 58.804 6.096 58.892C6 58.98 5.884 59.024 5.748 59.024H1.968L2.04 58.928V61.868L1.98 61.736H5.208C5.344 61.736 5.46 61.784 5.556 61.88C5.652 61.968 5.7 62.08 5.7 62.216C5.7 62.336 5.652 62.444 5.556 62.54C5.46 62.628 5.344 62.672 5.208 62.672H1.956L2.04 62.564V66.008C2.04 66.144 1.992 66.26 1.896 66.356C1.8 66.452 1.684 66.5 1.548 66.5ZM12.5508 60.236C12.6868 60.236 12.7988 60.284 12.8868 60.38C12.9828 60.468 13.0308 60.58 13.0308 60.716V66.008C13.0308 66.144 12.9828 66.26 12.8868 66.356C12.7988 66.452 12.6868 66.5 12.5508 66.5C12.4068 66.5 12.2908 66.452 12.2028 66.356C12.1148 66.26 12.0708 66.144 12.0708 66.008V64.868L12.2988 64.844C12.2988 65.02 12.2388 65.212 12.1188 65.42C11.9988 65.628 11.8348 65.824 11.6268 66.008C11.4188 66.184 11.1708 66.332 10.8828 66.452C10.6028 66.564 10.2988 66.62 9.97078 66.62C9.42678 66.62 8.93878 66.48 8.50678 66.2C8.07478 65.912 7.73078 65.524 7.47478 65.036C7.22678 64.548 7.10278 63.992 7.10278 63.368C7.10278 62.736 7.22678 62.18 7.47478 61.7C7.73078 61.212 8.07478 60.832 8.50678 60.56C8.93878 60.28 9.41878 60.14 9.94678 60.14C10.2908 60.14 10.6108 60.196 10.9068 60.308C11.2028 60.42 11.4588 60.572 11.6748 60.764C11.8988 60.956 12.0708 61.168 12.1908 61.4C12.3188 61.632 12.3828 61.864 12.3828 62.096L12.0708 62.024V60.716C12.0708 60.58 12.1148 60.468 12.2028 60.38C12.2908 60.284 12.4068 60.236 12.5508 60.236ZM10.0788 65.732C10.4788 65.732 10.8308 65.628 11.1348 65.42C11.4468 65.212 11.6868 64.932 11.8548 64.58C12.0308 64.22 12.1188 63.816 12.1188 63.368C12.1188 62.928 12.0308 62.532 11.8548 62.18C11.6868 61.82 11.4468 61.54 11.1348 61.34C10.8308 61.132 10.4788 61.028 10.0788 61.028C9.68678 61.028 9.33478 61.128 9.02278 61.328C8.71878 61.528 8.47878 61.804 8.30278 62.156C8.12678 62.508 8.03878 62.912 8.03878 63.368C8.03878 63.816 8.12278 64.22 8.29078 64.58C8.46678 64.932 8.70678 65.212 9.01078 65.42C9.32278 65.628 9.67878 65.732 10.0788 65.732ZM15.2899 66.5C15.1539 66.5 15.0379 66.452 14.9419 66.356C14.8539 66.26 14.8099 66.144 14.8099 66.008V60.776C14.8099 60.64 14.8539 60.528 14.9419 60.44C15.0379 60.344 15.1539 60.296 15.2899 60.296C15.4339 60.296 15.5499 60.344 15.6379 60.44C15.7259 60.528 15.7699 60.64 15.7699 60.776V62.36L15.6259 62.108C15.6739 61.86 15.7579 61.62 15.8779 61.388C16.0059 61.148 16.1659 60.936 16.3579 60.752C16.5499 60.56 16.7699 60.412 17.0179 60.308C17.2659 60.196 17.5379 60.14 17.8339 60.14C18.0099 60.14 18.1699 60.184 18.3139 60.272C18.4659 60.352 18.5419 60.468 18.5419 60.62C18.5419 60.788 18.4979 60.912 18.4099 60.992C18.3219 61.072 18.2219 61.112 18.1099 61.112C18.0059 61.112 17.9059 61.092 17.8099 61.052C17.7139 61.004 17.5939 60.98 17.4499 60.98C17.2499 60.98 17.0499 61.036 16.8499 61.148C16.6579 61.252 16.4779 61.404 16.3099 61.604C16.1499 61.804 16.0179 62.032 15.9139 62.288C15.8179 62.536 15.7699 62.804 15.7699 63.092V66.008C15.7699 66.144 15.7219 66.26 15.6259 66.356C15.5379 66.452 15.4259 66.5 15.2899 66.5ZM22.5903 60.2C23.1343 60.2 23.5743 60.34 23.9103 60.62C24.2543 60.892 24.4823 61.28 24.5943 61.784H24.4143L24.4983 61.568C24.5943 61.344 24.7583 61.128 24.9903 60.92C25.2223 60.712 25.4903 60.54 25.7943 60.404C26.0983 60.268 26.4143 60.2 26.7423 60.2C27.2703 60.2 27.6863 60.316 27.9903 60.548C28.2943 60.772 28.5103 61.076 28.6383 61.46C28.7743 61.836 28.8423 62.26 28.8423 62.732V66.008C28.8423 66.144 28.7943 66.26 28.6983 66.356C28.6103 66.452 28.4983 66.5 28.3623 66.5C28.2183 66.5 28.1023 66.452 28.0143 66.356C27.9263 66.26 27.8823 66.144 27.8823 66.008V62.756C27.8823 62.444 27.8343 62.164 27.7383 61.916C27.6503 61.66 27.5023 61.46 27.2943 61.316C27.0943 61.164 26.8183 61.088 26.4663 61.088C26.1383 61.088 25.8383 61.164 25.5663 61.316C25.2943 61.46 25.0783 61.66 24.9183 61.916C24.7583 62.164 24.6783 62.444 24.6783 62.756V66.008C24.6783 66.144 24.6343 66.26 24.5463 66.356C24.4583 66.452 24.3423 66.5 24.1983 66.5C24.0623 66.5 23.9463 66.452 23.8503 66.356C23.7623 66.26 23.7183 66.144 23.7183 66.008V62.72C23.7183 62.416 23.6743 62.144 23.5863 61.904C23.5063 61.656 23.3663 61.46 23.1663 61.316C22.9663 61.164 22.6903 61.088 22.3383 61.088C22.0183 61.088 21.7263 61.164 21.4623 61.316C21.1983 61.46 20.9863 61.656 20.8263 61.904C20.6663 62.144 20.5863 62.416 20.5863 62.72V66.008C20.5863 66.144 20.5383 66.26 20.4423 66.356C20.3543 66.452 20.2423 66.5 20.1063 66.5C19.9703 66.5 19.8543 66.452 19.7583 66.356C19.6703 66.26 19.6263 66.144 19.6263 66.008V60.776C19.6263 60.64 19.6703 60.528 19.7583 60.44C19.8543 60.344 19.9703 60.296 20.1063 60.296C20.2503 60.296 20.3663 60.344 20.4543 60.44C20.5423 60.528 20.5863 60.64 20.5863 60.776V61.688L20.3223 61.976C20.3543 61.768 20.4343 61.56 20.5623 61.352C20.6983 61.144 20.8703 60.952 21.0783 60.776C21.2863 60.6 21.5183 60.46 21.7743 60.356C22.0303 60.252 22.3023 60.2 22.5903 60.2ZM36.9232 60.2C37.4512 60.2 37.8672 60.316 38.1712 60.548C38.4832 60.772 38.7032 61.076 38.8312 61.46C38.9672 61.836 39.0352 62.256 39.0352 62.72V66.008C39.0352 66.144 38.9872 66.26 38.8912 66.356C38.8032 66.452 38.6912 66.5 38.5552 66.5C38.4192 66.5 38.3032 66.452 38.2072 66.356C38.1192 66.26 38.0752 66.144 38.0752 66.008V62.72C38.0752 62.416 38.0312 62.144 37.9432 61.904C37.8552 61.656 37.7072 61.46 37.4992 61.316C37.2992 61.164 37.0232 61.088 36.6712 61.088C36.3432 61.088 36.0432 61.164 35.7712 61.316C35.4992 61.46 35.2832 61.656 35.1232 61.904C34.9632 62.144 34.8832 62.416 34.8832 62.72V66.008C34.8832 66.144 34.8352 66.26 34.7392 66.356C34.6512 66.452 34.5392 66.5 34.4032 66.5C34.2672 66.5 34.1512 66.452 34.0552 66.356C33.9672 66.26 33.9232 66.144 33.9232 66.008V58.1C33.9232 57.964 33.9672 57.852 34.0552 57.764C34.1512 57.668 34.2672 57.62 34.4032 57.62C34.5472 57.62 34.6632 57.668 34.7512 57.764C34.8392 57.852 34.8832 57.964 34.8832 58.1V61.688L34.6432 61.952C34.6832 61.744 34.7712 61.536 34.9072 61.328C35.0432 61.112 35.2152 60.92 35.4232 60.752C35.6312 60.584 35.8632 60.452 36.1192 60.356C36.3752 60.252 36.6432 60.2 36.9232 60.2ZM46.7058 63.38C46.7058 64.004 46.5658 64.56 46.2858 65.048C46.0138 65.536 45.6418 65.92 45.1698 66.2C44.7058 66.48 44.1818 66.62 43.5978 66.62C43.0138 66.62 42.4858 66.48 42.0138 66.2C41.5418 65.92 41.1658 65.536 40.8858 65.048C40.6138 64.56 40.4778 64.004 40.4778 63.38C40.4778 62.756 40.6138 62.2 40.8858 61.712C41.1658 61.224 41.5418 60.84 42.0138 60.56C42.4858 60.28 43.0138 60.14 43.5978 60.14C44.1818 60.14 44.7058 60.28 45.1698 60.56C45.6418 60.84 46.0138 61.224 46.2858 61.712C46.5658 62.2 46.7058 62.756 46.7058 63.38ZM45.7458 63.38C45.7458 62.916 45.6498 62.508 45.4578 62.156C45.2738 61.804 45.0178 61.528 44.6898 61.328C44.3698 61.128 44.0058 61.028 43.5978 61.028C43.1898 61.028 42.8218 61.128 42.4938 61.328C42.1738 61.528 41.9178 61.804 41.7258 62.156C41.5338 62.508 41.4378 62.916 41.4378 63.38C41.4378 63.836 41.5338 64.24 41.7258 64.592C41.9178 64.944 42.1738 65.224 42.4938 65.432C42.8218 65.632 43.1898 65.732 43.5978 65.732C44.0058 65.732 44.3698 65.632 44.6898 65.432C45.0178 65.224 45.2738 64.944 45.4578 64.592C45.6498 64.24 45.7458 63.836 45.7458 63.38ZM52.7937 60.296C52.9377 60.296 53.0537 60.344 53.1417 60.44C53.2297 60.528 53.2737 60.64 53.2737 60.776V64.052C53.2737 64.86 53.0457 65.488 52.5897 65.936C52.1417 66.376 51.5137 66.596 50.7057 66.596C49.9057 66.596 49.2777 66.376 48.8217 65.936C48.3737 65.488 48.1497 64.86 48.1497 64.052V60.776C48.1497 60.64 48.1937 60.528 48.2817 60.44C48.3777 60.344 48.4937 60.296 48.6297 60.296C48.7737 60.296 48.8897 60.344 48.9777 60.44C49.0657 60.528 49.1097 60.64 49.1097 60.776V64.052C49.1097 64.596 49.2497 65.008 49.5297 65.288C49.8097 65.568 50.2017 65.708 50.7057 65.708C51.2257 65.708 51.6217 65.568 51.8937 65.288C52.1737 65.008 52.3137 64.596 52.3137 64.052V60.776C52.3137 60.64 52.3577 60.528 52.4457 60.44C52.5417 60.344 52.6577 60.296 52.7937 60.296ZM54.7041 65.516C54.6321 65.412 54.6001 65.304 54.6081 65.192C54.6161 65.072 54.6841 64.968 54.8121 64.88C54.8921 64.824 54.9841 64.8 55.0881 64.808C55.2001 64.816 55.3001 64.868 55.3881 64.964C55.6121 65.228 55.8681 65.44 56.1561 65.6C56.4441 65.752 56.7961 65.828 57.2121 65.828C57.4041 65.82 57.5961 65.788 57.7881 65.732C57.9801 65.676 58.1401 65.58 58.2681 65.444C58.4041 65.3 58.4721 65.112 58.4721 64.88C58.4721 64.656 58.4041 64.48 58.2681 64.352C58.1321 64.216 57.9561 64.108 57.7401 64.028C57.5241 63.94 57.2881 63.864 57.0321 63.8C56.7681 63.728 56.5081 63.648 56.2521 63.56C55.9961 63.464 55.7641 63.348 55.5561 63.212C55.3561 63.068 55.1921 62.892 55.0641 62.684C54.9441 62.468 54.8841 62.208 54.8841 61.904C54.8841 61.544 54.9801 61.232 55.1721 60.968C55.3721 60.704 55.6361 60.5 55.9641 60.356C56.3001 60.212 56.6641 60.14 57.0561 60.14C57.2801 60.14 57.5121 60.168 57.7521 60.224C58.0001 60.272 58.2401 60.36 58.4721 60.488C58.7041 60.608 58.9081 60.776 59.0841 60.992C59.1561 61.072 59.1961 61.172 59.2041 61.292C59.2121 61.412 59.1601 61.52 59.0481 61.616C58.9601 61.68 58.8601 61.708 58.7481 61.7C58.6441 61.692 58.5561 61.652 58.4841 61.58C58.3161 61.38 58.1041 61.228 57.8481 61.124C57.6001 61.012 57.3241 60.956 57.0201 60.956C56.8281 60.956 56.6401 60.984 56.4561 61.04C56.2721 61.096 56.1161 61.192 55.9881 61.328C55.8681 61.456 55.8081 61.636 55.8081 61.868C55.8161 62.084 55.8881 62.26 56.0241 62.396C56.1601 62.532 56.3441 62.644 56.5761 62.732C56.8081 62.812 57.0641 62.892 57.3441 62.972C57.6001 63.036 57.8441 63.112 58.0761 63.2C58.3161 63.28 58.5321 63.388 58.7241 63.524C58.9161 63.66 59.0681 63.836 59.1801 64.052C59.2921 64.26 59.3481 64.524 59.3481 64.844C59.3481 65.212 59.2441 65.532 59.0361 65.804C58.8281 66.068 58.5521 66.272 58.2081 66.416C57.8721 66.552 57.5081 66.62 57.1161 66.62C56.6761 66.62 56.2401 66.536 55.8081 66.368C55.3841 66.2 55.0161 65.916 54.7041 65.516ZM63.6037 66.62C62.9637 66.62 62.4037 66.484 61.9237 66.212C61.4437 65.94 61.0677 65.568 60.7957 65.096C60.5317 64.616 60.3997 64.064 60.3997 63.44C60.3997 62.744 60.5357 62.152 60.8077 61.664C61.0877 61.168 61.4477 60.792 61.8877 60.536C62.3357 60.272 62.8077 60.14 63.3037 60.14C63.6717 60.14 64.0277 60.208 64.3717 60.344C64.7157 60.48 65.0197 60.68 65.2837 60.944C65.5477 61.2 65.7597 61.512 65.9197 61.88C66.0797 62.24 66.1637 62.644 66.1717 63.092C66.1717 63.22 66.1237 63.328 66.0277 63.416C65.9317 63.504 65.8197 63.548 65.6917 63.548H60.9517L60.7357 62.72H65.3557L65.1637 62.888V62.624C65.1317 62.296 65.0197 62.016 64.8277 61.784C64.6437 61.544 64.4157 61.36 64.1437 61.232C63.8797 61.104 63.5997 61.04 63.3037 61.04C63.0637 61.04 62.8237 61.084 62.5837 61.172C62.3517 61.252 62.1397 61.388 61.9477 61.58C61.7637 61.764 61.6117 62.004 61.4917 62.3C61.3797 62.596 61.3237 62.952 61.3237 63.368C61.3237 63.832 61.4157 64.24 61.5997 64.592C61.7917 64.944 62.0557 65.224 62.3917 65.432C62.7277 65.632 63.1197 65.732 63.5677 65.732C63.8477 65.732 64.0917 65.696 64.2997 65.624C64.5077 65.552 64.6877 65.464 64.8397 65.36C64.9917 65.248 65.1197 65.136 65.2237 65.024C65.3277 64.952 65.4277 64.916 65.5237 64.916C65.6437 64.916 65.7397 64.956 65.8117 65.036C65.8917 65.116 65.9317 65.212 65.9317 65.324C65.9317 65.46 65.8677 65.58 65.7397 65.684C65.5157 65.932 65.2117 66.152 64.8277 66.344C64.4437 66.528 64.0357 66.62 63.6037 66.62Z" fill="#616161"/>
<defs>
<clipPath id="clip0_8_412">
<rect width="34" height="34" fill="white" transform="translate(16.5 15.5)"/>
</clipPath>
</defs>
</svg>
